<svg width="253" height="224" viewBox="0 0 253 224" fill="none" xmlns="http://www.w3.org/2000/svg">
<rect width="253" height="224" fill="#004A54"/>
<path d="M74.4 74.53C74.4 75.05 74.22 75.49 73.86 75.85C73.52 76.19 73.09 76.36 72.57 76.36C72.05 76.36 71.61 76.19 71.25 75.85C70.91 75.49 70.74 75.05 70.74 74.53C70.74 74.01 70.91 73.58 71.25 73.24C71.61 72.9 72.05 72.73 72.57 72.73C73.09 72.73 73.52 72.9 73.86 73.24C74.22 73.58 74.4 74.01 74.4 74.53ZM86.1984 74.53C86.1984 75.05 86.0184 75.49 85.6584 75.85C85.3184 76.19 84.8884 76.36 84.3684 76.36C83.8484 76.36 83.4084 76.19 83.0484 75.85C82.7084 75.49 82.5384 75.05 82.5384 74.53C82.5384 74.01 82.7084 73.58 83.0484 73.24C83.4084 72.9 83.8484 72.73 84.3684 72.73C84.8884 72.73 85.3184 72.9 85.6584 73.24C86.0184 73.58 86.1984 74.01 86.1984 74.53ZM97.9969 74.53C97.9969 75.05 97.8169 75.49 97.4569 75.85C97.1169 76.19 96.6869 76.36 96.1669 76.36C95.6469 76.36 95.2069 76.19 94.8469 75.85C94.5069 75.49 94.3369 75.05 94.3369 74.53C94.3369 74.01 94.5069 73.58 94.8469 73.24C95.2069 72.9 95.6469 72.73 96.1669 72.73C96.6869 72.73 97.1169 72.9 97.4569 73.24C97.8169 73.58 97.9969 74.01 97.9969 74.53ZM109.795 74.53C109.795 75.05 109.615 75.49 109.255 75.85C108.915 76.19 108.485 76.36 107.965 76.36C107.445 76.36 107.005 76.19 106.645 75.85C106.305 75.49 106.135 75.05 106.135 74.53C106.135 74.01 106.305 73.58 106.645 73.24C107.005 72.9 107.445 72.73 107.965 72.73C108.485 72.73 108.915 72.9 109.255 73.24C109.615 73.58 109.795 74.01 109.795 74.53ZM121.594 74.53C121.594 75.05 121.414 75.49 121.054 75.85C120.714 76.19 120.284 76.36 119.764 76.36C119.244 76.36 118.804 76.19 118.444 75.85C118.104 75.49 117.934 75.05 117.934 74.53C117.934 74.01 118.104 73.58 118.444 73.24C118.804 72.9 119.244 72.73 119.764 72.73C120.284 72.73 120.714 72.9 121.054 73.24C121.414 73.58 121.594 74.01 121.594 74.53ZM133.392 74.53C133.392 75.05 133.212 75.49 132.852 75.85C132.512 76.19 132.082 76.36 131.562 76.36C131.042 76.36 130.602 76.19 130.242 75.85C129.902 75.49 129.732 75.05 129.732 74.53C129.732 74.01 129.902 73.58 130.242 73.24C130.602 72.9 131.042 72.73 131.562 72.73C132.082 72.73 132.512 72.9 132.852 73.24C133.212 73.58 133.392 74.01 133.392 74.53ZM145.191 74.53C145.191 75.05 145.011 75.49 144.651 75.85C144.311 76.19 143.881 76.36 143.361 76.36C142.841 76.36 142.401 76.19 142.041 75.85C141.701 75.49 141.531 75.05 141.531 74.53C141.531 74.01 141.701 73.58 142.041 73.24C142.401 72.9 142.841 72.73 143.361 72.73C143.881 72.73 144.311 72.9 144.651 73.24C145.011 73.58 145.191 74.01 145.191 74.53ZM156.989 74.53C156.989 75.05 156.809 75.49 156.449 75.85C156.109 76.19 155.679 76.36 155.159 76.36C154.639 76.36 154.199 76.19 153.839 75.85C153.499 75.49 153.329 75.05 153.329 74.53C153.329 74.01 153.499 73.58 153.839 73.24C154.199 72.9 154.639 72.73 155.159 72.73C155.679 72.73 156.109 72.9 156.449 73.24C156.809 73.58 156.989 74.01 156.989 74.53ZM168.787 74.53C168.787 75.05 168.607 75.49 168.247 75.85C167.907 76.19 167.477 76.36 166.957 76.36C166.437 76.36 165.997 76.19 165.637 75.85C165.297 75.49 165.127 75.05 165.127 74.53C165.127 74.01 165.297 73.58 165.637 73.24C165.997 72.9 166.437 72.73 166.957 72.73C167.477 72.73 167.907 72.9 168.247 73.24C168.607 73.58 168.787 74.01 168.787 74.53ZM180.586 74.53C180.586 75.05 180.406 75.49 180.046 75.85C179.706 76.19 179.276 76.36 178.756 76.36C178.236 76.36 177.796 76.19 177.436 75.85C177.096 75.49 176.926 75.05 176.926 74.53C176.926 74.01 177.096 73.58 177.436 73.24C177.796 72.9 178.236 72.73 178.756 72.73C179.276 72.73 179.706 72.9 180.046 73.24C180.406 73.58 180.586 74.01 180.586 74.53ZM74.4 88.53C74.4 89.05 74.22 89.49 73.86 89.85C73.52 90.19 73.09 90.36 72.57 90.36C72.05 90.36 71.61 90.19 71.25 89.85C70.91 89.49 70.74 89.05 70.74 88.53C70.74 88.01 70.91 87.58 71.25 87.24C71.61 86.9 72.05 86.73 72.57 86.73C73.09 86.73 73.52 86.9 73.86 87.24C74.22 87.58 74.4 88.01 74.4 88.53ZM86.1984 88.53C86.1984 89.05 86.0184 89.49 85.6584 89.85C85.3184 90.19 84.8884 90.36 84.3684 90.36C83.8484 90.36 83.4084 90.19 83.0484 89.85C82.7084 89.49 82.5384 89.05 82.5384 88.53C82.5384 88.01 82.7084 87.58 83.0484 87.24C83.4084 86.9 83.8484 86.73 84.3684 86.73C84.8884 86.73 85.3184 86.9 85.6584 87.24C86.0184 87.58 86.1984 88.01 86.1984 88.53ZM97.9969 88.53C97.9969 89.05 97.8169 89.49 97.4569 89.85C97.1169 90.19 96.6869 90.36 96.1669 90.36C95.6469 90.36 95.2069 90.19 94.8469 89.85C94.5069 89.49 94.3369 89.05 94.3369 88.53C94.3369 88.01 94.5069 87.58 94.8469 87.24C95.2069 86.9 95.6469 86.73 96.1669 86.73C96.6869 86.73 97.1169 86.9 97.4569 87.24C97.8169 87.58 97.9969 88.01 97.9969 88.53ZM109.795 88.53C109.795 89.05 109.615 89.49 109.255 89.85C108.915 90.19 108.485 90.36 107.965 90.36C107.445 90.36 107.005 90.19 106.645 89.85C106.305 89.49 106.135 89.05 106.135 88.53C106.135 88.01 106.305 87.58 106.645 87.24C107.005 86.9 107.445 86.73 107.965 86.73C108.485 86.73 108.915 86.9 109.255 87.24C109.615 87.58 109.795 88.01 109.795 88.53ZM121.594 88.53C121.594 89.05 121.414 89.49 121.054 89.85C120.714 90.19 120.284 90.36 119.764 90.36C119.244 90.36 118.804 90.19 118.444 89.85C118.104 89.49 117.934 89.05 117.934 88.53C117.934 88.01 118.104 87.58 118.444 87.24C118.804 86.9 119.244 86.73 119.764 86.73C120.284 86.73 120.714 86.9 121.054 87.24C121.414 87.58 121.594 88.01 121.594 88.53ZM133.392 88.53C133.392 89.05 133.212 89.49 132.852 89.85C132.512 90.19 132.082 90.36 131.562 90.36C131.042 90.36 130.602 90.19 130.242 89.85C129.902 89.49 129.732 89.05 129.732 88.53C129.732 88.01 129.902 87.58 130.242 87.24C130.602 86.9 131.042 86.73 131.562 86.73C132.082 86.73 132.512 86.9 132.852 87.24C133.212 87.58 133.392 88.01 133.392 88.53ZM145.191 88.53C145.191 89.05 145.011 89.49 144.651 89.85C144.311 90.19 143.881 90.36 143.361 90.36C142.841 90.36 142.401 90.19 142.041 89.85C141.701 89.49 141.531 89.05 141.531 88.53C141.531 88.01 141.701 87.58 142.041 87.24C142.401 86.9 142.841 86.73 143.361 86.73C143.881 86.73 144.311 86.9 144.651 87.24C145.011 87.58 145.191 88.01 145.191 88.53ZM156.989 88.53C156.989 89.05 156.809 89.49 156.449 89.85C156.109 90.19 155.679 90.36 155.159 90.36C154.639 90.36 154.199 90.19 153.839 89.85C153.499 89.49 153.329 89.05 153.329 88.53C153.329 88.01 153.499 87.58 153.839 87.24C154.199 86.9 154.639 86.73 155.159 86.73C155.679 86.73 156.109 86.9 156.449 87.24C156.809 87.58 156.989 88.01 156.989 88.53ZM168.787 88.53C168.787 89.05 168.607 89.49 168.247 89.85C167.907 90.19 167.477 90.36 166.957 90.36C166.437 90.36 165.997 90.19 165.637 89.85C165.297 89.49 165.127 89.05 165.127 88.53C165.127 88.01 165.297 87.58 165.637 87.24C165.997 86.9 166.437 86.73 166.957 86.73C167.477 86.73 167.907 86.9 168.247 87.24C168.607 87.58 168.787 88.01 168.787 88.53ZM180.586 88.53C180.586 89.05 180.406 89.49 180.046 89.85C179.706 90.19 179.276 90.36 178.756 90.36C178.236 90.36 177.796 90.19 177.436 89.85C177.096 89.49 176.926 89.05 176.926 88.53C176.926 88.01 177.096 87.58 177.436 87.24C177.796 86.9 178.236 86.73 178.756 86.73C179.276 86.73 179.706 86.9 180.046 87.24C180.406 87.58 180.586 88.01 180.586 88.53ZM74.4 102.53C74.4 103.05 74.22 103.49 73.86 103.85C73.52 104.19 73.09 104.36 72.57 104.36C72.05 104.36 71.61 104.19 71.25 103.85C70.91 103.49 70.74 103.05 70.74 102.53C70.74 102.01 70.91 101.58 71.25 101.24C71.61 100.9 72.05 100.73 72.57 100.73C73.09 100.73 73.52 100.9 73.86 101.24C74.22 101.58 74.4 102.01 74.4 102.53ZM86.1984 102.53C86.1984 103.05 86.0184 103.49 85.6584 103.85C85.3184 104.19 84.8884 104.36 84.3684 104.36C83.8484 104.36 83.4084 104.19 83.0484 103.85C82.7084 103.49 82.5384 103.05 82.5384 102.53C82.5384 102.01 82.7084 101.58 83.0484 101.24C83.4084 100.9 83.8484 100.73 84.3684 100.73C84.8884 100.73 85.3184 100.9 85.6584 101.24C86.0184 101.58 86.1984 102.01 86.1984 102.53ZM97.9969 102.53C97.9969 103.05 97.8169 103.49 97.4569 103.85C97.1169 104.19 96.6869 104.36 96.1669 104.36C95.6469 104.36 95.2069 104.19 94.8469 103.85C94.5069 103.49 94.3369 103.05 94.3369 102.53C94.3369 102.01 94.5069 101.58 94.8469 101.24C95.2069 100.9 95.6469 100.73 96.1669 100.73C96.6869 100.73 97.1169 100.9 97.4569 101.24C97.8169 101.58 97.9969 102.01 97.9969 102.53ZM109.795 102.53C109.795 103.05 109.615 103.49 109.255 103.85C108.915 104.19 108.485 104.36 107.965 104.36C107.445 104.36 107.005 104.19 106.645 103.85C106.305 103.49 106.135 103.05 106.135 102.53C106.135 102.01 106.305 101.58 106.645 101.24C107.005 100.9 107.445 100.73 107.965 100.73C108.485 100.73 108.915 100.9 109.255 101.24C109.615 101.58 109.795 102.01 109.795 102.53ZM121.594 102.53C121.594 103.05 121.414 103.49 121.054 103.85C120.714 104.19 120.284 104.36 119.764 104.36C119.244 104.36 118.804 104.19 118.444 103.85C118.104 103.49 117.934 103.05 117.934 102.53C117.934 102.01 118.104 101.58 118.444 101.24C118.804 100.9 119.244 100.73 119.764 100.73C120.284 100.73 120.714 100.9 121.054 101.24C121.414 101.58 121.594 102.01 121.594 102.53ZM133.392 102.53C133.392 103.05 133.212 103.49 132.852 103.85C132.512 104.19 132.082 104.36 131.562 104.36C131.042 104.36 130.602 104.19 130.242 103.85C129.902 103.49 129.732 103.05 129.732 102.53C129.732 102.01 129.902 101.58 130.242 101.24C130.602 100.9 131.042 100.73 131.562 100.73C132.082 100.73 132.512 100.9 132.852 101.24C133.212 101.58 133.392 102.01 133.392 102.53ZM145.191 102.53C145.191 103.05 145.011 103.49 144.651 103.85C144.311 104.19 143.881 104.36 143.361 104.36C142.841 104.36 142.401 104.19 142.041 103.85C141.701 103.49 141.531 103.05 141.531 102.53C141.531 102.01 141.701 101.58 142.041 101.24C142.401 100.9 142.841 100.73 143.361 100.73C143.881 100.73 144.311 100.9 144.651 101.24C145.011 101.58 145.191 102.01 145.191 102.53ZM156.989 102.53C156.989 103.05 156.809 103.49 156.449 103.85C156.109 104.19 155.679 104.36 155.159 104.36C154.639 104.36 154.199 104.19 153.839 103.85C153.499 103.49 153.329 103.05 153.329 102.53C153.329 102.01 153.499 101.58 153.839 101.24C154.199 100.9 154.639 100.73 155.159 100.73C155.679 100.73 156.109 100.9 156.449 101.24C156.809 101.58 156.989 102.01 156.989 102.53ZM168.787 102.53C168.787 103.05 168.607 103.49 168.247 103.85C167.907 104.19 167.477 104.36 166.957 104.36C166.437 104.36 165.997 104.19 165.637 103.85C165.297 103.49 165.127 103.05 165.127 102.53C165.127 102.01 165.297 101.58 165.637 101.24C165.997 100.9 166.437 100.73 166.957 100.73C167.477 100.73 167.907 100.9 168.247 101.24C168.607 101.58 168.787 102.01 168.787 102.53ZM180.586 102.53C180.586 103.05 180.406 103.49 180.046 103.85C179.706 104.19 179.276 104.36 178.756 104.36C178.236 104.36 177.796 104.19 177.436 103.85C177.096 103.49 176.926 103.05 176.926 102.53C176.926 102.01 177.096 101.58 177.436 101.24C177.796 100.9 178.236 100.73 178.756 100.73C179.276 100.73 179.706 100.9 180.046 101.24C180.406 101.58 180.586 102.01 180.586 102.53ZM74.4 116.53C74.4 117.05 74.22 117.49 73.86 117.85C73.52 118.19 73.09 118.36 72.57 118.36C72.05 118.36 71.61 118.19 71.25 117.85C70.91 117.49 70.74 117.05 70.74 116.53C70.74 116.01 70.91 115.58 71.25 115.24C71.61 114.9 72.05 114.73 72.57 114.73C73.09 114.73 73.52 114.9 73.86 115.24C74.22 115.58 74.4 116.01 74.4 116.53ZM86.1984 116.53C86.1984 117.05 86.0184 117.49 85.6584 117.85C85.3184 118.19 84.8884 118.36 84.3684 118.36C83.8484 118.36 83.4084 118.19 83.0484 117.85C82.7084 117.49 82.5384 117.05 82.5384 116.53C82.5384 116.01 82.7084 115.58 83.0484 115.24C83.4084 114.9 83.8484 114.73 84.3684 114.73C84.8884 114.73 85.3184 114.9 85.6584 115.24C86.0184 115.58 86.1984 116.01 86.1984 116.53ZM97.9969 116.53C97.9969 117.05 97.8169 117.49 97.4569 117.85C97.1169 118.19 96.6869 118.36 96.1669 118.36C95.6469 118.36 95.2069 118.19 94.8469 117.85C94.5069 117.49 94.3369 117.05 94.3369 116.53C94.3369 116.01 94.5069 115.58 94.8469 115.24C95.2069 114.9 95.6469 114.73 96.1669 114.73C96.6869 114.73 97.1169 114.9 97.4569 115.24C97.8169 115.58 97.9969 116.01 97.9969 116.53ZM109.795 116.53C109.795 117.05 109.615 117.49 109.255 117.85C108.915 118.19 108.485 118.36 107.965 118.36C107.445 118.36 107.005 118.19 106.645 117.85C106.305 117.49 106.135 117.05 106.135 116.53C106.135 116.01 106.305 115.58 106.645 115.24C107.005 114.9 107.445 114.73 107.965 114.73C108.485 114.73 108.915 114.9 109.255 115.24C109.615 115.58 109.795 116.01 109.795 116.53ZM121.594 116.53C121.594 117.05 121.414 117.49 121.054 117.85C120.714 118.19 120.284 118.36 119.764 118.36C119.244 118.36 118.804 118.19 118.444 117.85C118.104 117.49 117.934 117.05 117.934 116.53C117.934 116.01 118.104 115.58 118.444 115.24C118.804 114.9 119.244 114.73 119.764 114.73C120.284 114.73 120.714 114.9 121.054 115.24C121.414 115.58 121.594 116.01 121.594 116.53ZM133.392 116.53C133.392 117.05 133.212 117.49 132.852 117.85C132.512 118.19 132.082 118.36 131.562 118.36C131.042 118.36 130.602 118.19 130.242 117.85C129.902 117.49 129.732 117.05 129.732 116.53C129.732 116.01 129.902 115.58 130.242 115.24C130.602 114.9 131.042 114.73 131.562 114.73C132.082 114.73 132.512 114.9 132.852 115.24C133.212 115.58 133.392 116.01 133.392 116.53ZM145.191 116.53C145.191 117.05 145.011 117.49 144.651 117.85C144.311 118.19 143.881 118.36 143.361 118.36C142.841 118.36 142.401 118.19 142.041 117.85C141.701 117.49 141.531 117.05 141.531 116.53C141.531 116.01 141.701 115.58 142.041 115.24C142.401 114.9 142.841 114.73 143.361 114.73C143.881 114.73 144.311 114.9 144.651 115.24C145.011 115.58 145.191 116.01 145.191 116.53ZM156.989 116.53C156.989 117.05 156.809 117.49 156.449 117.85C156.109 118.19 155.679 118.36 155.159 118.36C154.639 118.36 154.199 118.19 153.839 117.85C153.499 117.49 153.329 117.05 153.329 116.53C153.329 116.01 153.499 115.58 153.839 115.24C154.199 114.9 154.639 114.73 155.159 114.73C155.679 114.73 156.109 114.9 156.449 115.24C156.809 115.58 156.989 116.01 156.989 116.53ZM168.787 116.53C168.787 117.05 168.607 117.49 168.247 117.85C167.907 118.19 167.477 118.36 166.957 118.36C166.437 118.36 165.997 118.19 165.637 117.85C165.297 117.49 165.127 117.05 165.127 116.53C165.127 116.01 165.297 115.58 165.637 115.24C165.997 114.9 166.437 114.73 166.957 114.73C167.477 114.73 167.907 114.9 168.247 115.24C168.607 115.58 168.787 116.01 168.787 116.53ZM180.586 116.53C180.586 117.05 180.406 117.49 180.046 117.85C179.706 118.19 179.276 118.36 178.756 118.36C178.236 118.36 177.796 118.19 177.436 117.85C177.096 117.49 176.926 117.05 176.926 116.53C176.926 116.01 177.096 115.58 177.436 115.24C177.796 114.9 178.236 114.73 178.756 114.73C179.276 114.73 179.706 114.9 180.046 115.24C180.406 115.58 180.586 116.01 180.586 116.53ZM74.4 130.53C74.4 131.05 74.22 131.49 73.86 131.85C73.52 132.19 73.09 132.36 72.57 132.36C72.05 132.36 71.61 132.19 71.25 131.85C70.91 131.49 70.74 131.05 70.74 130.53C70.74 130.01 70.91 129.58 71.25 129.24C71.61 128.9 72.05 128.73 72.57 128.73C73.09 128.73 73.52 128.9 73.86 129.24C74.22 129.58 74.4 130.01 74.4 130.53ZM86.1984 130.53C86.1984 131.05 86.0184 131.49 85.6584 131.85C85.3184 132.19 84.8884 132.36 84.3684 132.36C83.8484 132.36 83.4084 132.19 83.0484 131.85C82.7084 131.49 82.5384 131.05 82.5384 130.53C82.5384 130.01 82.7084 129.58 83.0484 129.24C83.4084 128.9 83.8484 128.73 84.3684 128.73C84.8884 128.73 85.3184 128.9 85.6584 129.24C86.0184 129.58 86.1984 130.01 86.1984 130.53ZM97.9969 130.53C97.9969 131.05 97.8169 131.49 97.4569 131.85C97.1169 132.19 96.6869 132.36 96.1669 132.36C95.6469 132.36 95.2069 132.19 94.8469 131.85C94.5069 131.49 94.3369 131.05 94.3369 130.53C94.3369 130.01 94.5069 129.58 94.8469 129.24C95.2069 128.9 95.6469 128.73 96.1669 128.73C96.6869 128.73 97.1169 128.9 97.4569 129.24C97.8169 129.58 97.9969 130.01 97.9969 130.53ZM109.795 130.53C109.795 131.05 109.615 131.49 109.255 131.85C108.915 132.19 108.485 132.36 107.965 132.36C107.445 132.36 107.005 132.19 106.645 131.85C106.305 131.49 106.135 131.05 106.135 130.53C106.135 130.01 106.305 129.58 106.645 129.24C107.005 128.9 107.445 128.73 107.965 128.73C108.485 128.73 108.915 128.9 109.255 129.24C109.615 129.58 109.795 130.01 109.795 130.53ZM121.594 130.53C121.594 131.05 121.414 131.49 121.054 131.85C120.714 132.19 120.284 132.36 119.764 132.36C119.244 132.36 118.804 132.19 118.444 131.85C118.104 131.49 117.934 131.05 117.934 130.53C117.934 130.01 118.104 129.58 118.444 129.24C118.804 128.9 119.244 128.73 119.764 128.73C120.284 128.73 120.714 128.9 121.054 129.24C121.414 129.58 121.594 130.01 121.594 130.53ZM133.392 130.53C133.392 131.05 133.212 131.49 132.852 131.85C132.512 132.19 132.082 132.36 131.562 132.36C131.042 132.36 130.602 132.19 130.242 131.85C129.902 131.49 129.732 131.05 129.732 130.53C129.732 130.01 129.902 129.58 130.242 129.24C130.602 128.9 131.042 128.73 131.562 128.73C132.082 128.73 132.512 128.9 132.852 129.24C133.212 129.58 133.392 130.01 133.392 130.53ZM145.191 130.53C145.191 131.05 145.011 131.49 144.651 131.85C144.311 132.19 143.881 132.36 143.361 132.36C142.841 132.36 142.401 132.19 142.041 131.85C141.701 131.49 141.531 131.05 141.531 130.53C141.531 130.01 141.701 129.58 142.041 129.24C142.401 128.9 142.841 128.73 143.361 128.73C143.881 128.73 144.311 128.9 144.651 129.24C145.011 129.58 145.191 130.01 145.191 130.53ZM156.989 130.53C156.989 131.05 156.809 131.49 156.449 131.85C156.109 132.19 155.679 132.36 155.159 132.36C154.639 132.36 154.199 132.19 153.839 131.85C153.499 131.49 153.329 131.05 153.329 130.53C153.329 130.01 153.499 129.58 153.839 129.24C154.199 128.9 154.639 128.73 155.159 128.73C155.679 128.73 156.109 128.9 156.449 129.24C156.809 129.58 156.989 130.01 156.989 130.53ZM168.787 130.53C168.787 131.05 168.607 131.49 168.247 131.85C167.907 132.19 167.477 132.36 166.957 132.36C166.437 132.36 165.997 132.19 165.637 131.85C165.297 131.49 165.127 131.05 165.127 130.53C165.127 130.01 165.297 129.58 165.637 129.24C165.997 128.9 166.437 128.73 166.957 128.73C167.477 128.73 167.907 128.9 168.247 129.24C168.607 129.58 168.787 130.01 168.787 130.53ZM180.586 130.53C180.586 131.05 180.406 131.49 180.046 131.85C179.706 132.19 179.276 132.36 178.756 132.36C178.236 132.36 177.796 132.19 177.436 131.85C177.096 131.49 176.926 131.05 176.926 130.53C176.926 130.01 177.096 129.58 177.436 129.24C177.796 128.9 178.236 128.73 178.756 128.73C179.276 128.73 179.706 128.9 180.046 129.24C180.406 129.58 180.586 130.01 180.586 130.53Z" fill="#005F6C"/>
</svg>
