<svg width="142" height="169" viewBox="0 0 142 169" fill="none" xmlns="http://www.w3.org/2000/svg">
<path d="M13.53 109.6C14.05 109.6 14.49 109.78 14.85 110.14C15.19 110.48 15.36 110.91 15.36 111.43C15.36 111.95 15.19 112.39 14.85 112.75C14.49 113.09 14.05 113.26 13.53 113.26C13.01 113.26 12.58 113.09 12.24 112.75C11.9 112.39 11.73 111.95 11.73 111.43C11.73 110.91 11.9 110.48 12.24 110.14C12.58 109.78 13.01 109.6 13.53 109.6ZM13.53 97.8016C14.05 97.8016 14.49 97.9816 14.85 98.3416C15.19 98.6816 15.36 99.1116 15.36 99.6316C15.36 100.152 15.19 100.592 14.85 100.952C14.49 101.292 14.05 101.462 13.53 101.462C13.01 101.462 12.58 101.292 12.24 100.952C11.9 100.592 11.73 100.152 11.73 99.6316C11.73 99.1116 11.9 98.6816 12.24 98.3416C12.58 97.9816 13.01 97.8016 13.53 97.8016ZM13.53 86.0031C14.05 86.0031 14.49 86.1831 14.85 86.5431C15.19 86.8831 15.36 87.3131 15.36 87.8331C15.36 88.3531 15.19 88.7931 14.85 89.1531C14.49 89.4931 14.05 89.6631 13.53 89.6631C13.01 89.6631 12.58 89.4931 12.24 89.1531C11.9 88.7931 11.73 88.3531 11.73 87.8331C11.73 87.3131 11.9 86.8831 12.24 86.5431C12.58 86.1831 13.01 86.0031 13.53 86.0031ZM13.53 74.2047C14.05 74.2047 14.49 74.3847 14.85 74.7447C15.19 75.0847 15.36 75.5147 15.36 76.0347C15.36 76.5547 15.19 76.9947 14.85 77.3547C14.49 77.6947 14.05 77.8647 13.53 77.8647C13.01 77.8647 12.58 77.6947 12.24 77.3547C11.9 76.9947 11.73 76.5547 11.73 76.0347C11.73 75.5147 11.9 75.0847 12.24 74.7447C12.58 74.3847 13.01 74.2047 13.53 74.2047ZM13.53 62.4063C14.05 62.4063 14.49 62.5863 14.85 62.9463C15.19 63.2863 15.36 63.7163 15.36 64.2363C15.36 64.7563 15.19 65.1963 14.85 65.5563C14.49 65.8963 14.05 66.0663 13.53 66.0663C13.01 66.0663 12.58 65.8963 12.24 65.5563C11.9 65.1963 11.73 64.7563 11.73 64.2363C11.73 63.7163 11.9 63.2863 12.24 62.9463C12.58 62.5863 13.01 62.4063 13.53 62.4063ZM13.53 50.6078C14.05 50.6078 14.49 50.7878 14.85 51.1478C15.19 51.4878 15.36 51.9178 15.36 52.4378C15.36 52.9578 15.19 53.3978 14.85 53.7578C14.49 54.0978 14.05 54.2678 13.53 54.2678C13.01 54.2678 12.58 54.0978 12.24 53.7578C11.9 53.3978 11.73 52.9578 11.73 52.4378C11.73 51.9178 11.9 51.4878 12.24 51.1478C12.58 50.7878 13.01 50.6078 13.53 50.6078ZM13.53 38.8094C14.05 38.8094 14.49 38.9894 14.85 39.3494C15.19 39.6894 15.36 40.1194 15.36 40.6394C15.36 41.1594 15.19 41.5994 14.85 41.9594C14.49 42.2994 14.05 42.4694 13.53 42.4694C13.01 42.4694 12.58 42.2994 12.24 41.9594C11.9 41.5994 11.73 41.1594 11.73 40.6394C11.73 40.1194 11.9 39.6894 12.24 39.3494C12.58 38.9894 13.01 38.8094 13.53 38.8094ZM13.53 27.0109C14.05 27.0109 14.49 27.1909 14.85 27.5509C15.19 27.8909 15.36 28.3209 15.36 28.8409C15.36 29.3609 15.19 29.8009 14.85 30.1609C14.49 30.5009 14.05 30.6709 13.53 30.6709C13.01 30.6709 12.58 30.5009 12.24 30.1609C11.9 29.8009 11.73 29.3609 11.73 28.8409C11.73 28.3209 11.9 27.8909 12.24 27.5509C12.58 27.1909 13.01 27.0109 13.53 27.0109ZM13.53 15.2125C14.05 15.2125 14.49 15.3925 14.85 15.7525C15.19 16.0925 15.36 16.5225 15.36 17.0425C15.36 17.5625 15.19 18.0025 14.85 18.3625C14.49 18.7025 14.05 18.8725 13.53 18.8725C13.01 18.8725 12.58 18.7025 12.24 18.3625C11.9 18.0025 11.73 17.5625 11.73 17.0425C11.73 16.5225 11.9 16.0925 12.24 15.7525C12.58 15.3925 13.01 15.2125 13.53 15.2125ZM13.53 3.41406C14.05 3.41406 14.49 3.59406 14.85 3.95406C15.19 4.29406 15.36 4.72406 15.36 5.24406C15.36 5.76406 15.19 6.20406 14.85 6.56406C14.49 6.90406 14.05 7.07406 13.53 7.07406C13.01 7.07406 12.58 6.90406 12.24 6.56406C11.9 6.20406 11.73 5.76406 11.73 5.24406C11.73 4.72406 11.9 4.29406 12.24 3.95406C12.58 3.59406 13.01 3.41406 13.53 3.41406ZM27.53 109.6C28.05 109.6 28.49 109.78 28.85 110.14C29.19 110.48 29.36 110.91 29.36 111.43C29.36 111.95 29.19 112.39 28.85 112.75C28.49 113.09 28.05 113.26 27.53 113.26C27.01 113.26 26.58 113.09 26.24 112.75C25.9 112.39 25.73 111.95 25.73 111.43C25.73 110.91 25.9 110.48 26.24 110.14C26.58 109.78 27.01 109.6 27.53 109.6ZM27.53 97.8016C28.05 97.8016 28.49 97.9816 28.85 98.3416C29.19 98.6816 29.36 99.1116 29.36 99.6316C29.36 100.152 29.19 100.592 28.85 100.952C28.49 101.292 28.05 101.462 27.53 101.462C27.01 101.462 26.58 101.292 26.24 100.952C25.9 100.592 25.73 100.152 25.73 99.6316C25.73 99.1116 25.9 98.6816 26.24 98.3416C26.58 97.9816 27.01 97.8016 27.53 97.8016ZM27.53 86.0031C28.05 86.0031 28.49 86.1831 28.85 86.5431C29.19 86.8831 29.36 87.3131 29.36 87.8331C29.36 88.3531 29.19 88.7931 28.85 89.1531C28.49 89.4931 28.05 89.6631 27.53 89.6631C27.01 89.6631 26.58 89.4931 26.24 89.1531C25.9 88.7931 25.73 88.3531 25.73 87.8331C25.73 87.3131 25.9 86.8831 26.24 86.5431C26.58 86.1831 27.01 86.0031 27.53 86.0031ZM27.53 74.2047C28.05 74.2047 28.49 74.3847 28.85 74.7447C29.19 75.0847 29.36 75.5147 29.36 76.0347C29.36 76.5547 29.19 76.9947 28.85 77.3547C28.49 77.6947 28.05 77.8647 27.53 77.8647C27.01 77.8647 26.58 77.6947 26.24 77.3547C25.9 76.9947 25.73 76.5547 25.73 76.0347C25.73 75.5147 25.9 75.0847 26.24 74.7447C26.58 74.3847 27.01 74.2047 27.53 74.2047ZM27.53 62.4063C28.05 62.4063 28.49 62.5863 28.85 62.9463C29.19 63.2863 29.36 63.7163 29.36 64.2363C29.36 64.7563 29.19 65.1963 28.85 65.5563C28.49 65.8963 28.05 66.0663 27.53 66.0663C27.01 66.0663 26.58 65.8963 26.24 65.5563C25.9 65.1963 25.73 64.7563 25.73 64.2363C25.73 63.7163 25.9 63.2863 26.24 62.9463C26.58 62.5863 27.01 62.4063 27.53 62.4063ZM27.53 50.6078C28.05 50.6078 28.49 50.7878 28.85 51.1478C29.19 51.4878 29.36 51.9178 29.36 52.4378C29.36 52.9578 29.19 53.3978 28.85 53.7578C28.49 54.0978 28.05 54.2678 27.53 54.2678C27.01 54.2678 26.58 54.0978 26.24 53.7578C25.9 53.3978 25.73 52.9578 25.73 52.4378C25.73 51.9178 25.9 51.4878 26.24 51.1478C26.58 50.7878 27.01 50.6078 27.53 50.6078ZM27.53 38.8094C28.05 38.8094 28.49 38.9894 28.85 39.3494C29.19 39.6894 29.36 40.1194 29.36 40.6394C29.36 41.1594 29.19 41.5994 28.85 41.9594C28.49 42.2994 28.05 42.4694 27.53 42.4694C27.01 42.4694 26.58 42.2994 26.24 41.9594C25.9 41.5994 25.73 41.1594 25.73 40.6394C25.73 40.1194 25.9 39.6894 26.24 39.3494C26.58 38.9894 27.01 38.8094 27.53 38.8094ZM27.53 27.0109C28.05 27.0109 28.49 27.1909 28.85 27.5509C29.19 27.8909 29.36 28.3209 29.36 28.8409C29.36 29.3609 29.19 29.8009 28.85 30.1609C28.49 30.5009 28.05 30.6709 27.53 30.6709C27.01 30.6709 26.58 30.5009 26.24 30.1609C25.9 29.8009 25.73 29.3609 25.73 28.8409C25.73 28.3209 25.9 27.8909 26.24 27.5509C26.58 27.1909 27.01 27.0109 27.53 27.0109ZM27.53 15.2125C28.05 15.2125 28.49 15.3925 28.85 15.7525C29.19 16.0925 29.36 16.5225 29.36 17.0425C29.36 17.5625 29.19 18.0025 28.85 18.3625C28.49 18.7025 28.05 18.8725 27.53 18.8725C27.01 18.8725 26.58 18.7025 26.24 18.3625C25.9 18.0025 25.73 17.5625 25.73 17.0425C25.73 16.5225 25.9 16.0925 26.24 15.7525C26.58 15.3925 27.01 15.2125 27.53 15.2125ZM27.53 3.41406C28.05 3.41406 28.49 3.59406 28.85 3.95406C29.19 4.29406 29.36 4.72406 29.36 5.24406C29.36 5.76406 29.19 6.20406 28.85 6.56406C28.49 6.90406 28.05 7.07406 27.53 7.07406C27.01 7.07406 26.58 6.90406 26.24 6.56406C25.9 6.20406 25.73 5.76406 25.73 5.24406C25.73 4.72406 25.9 4.29406 26.24 3.95406C26.58 3.59406 27.01 3.41406 27.53 3.41406ZM41.53 109.6C42.05 109.6 42.49 109.78 42.85 110.14C43.19 110.48 43.36 110.91 43.36 111.43C43.36 111.95 43.19 112.39 42.85 112.75C42.49 113.09 42.05 113.26 41.53 113.26C41.01 113.26 40.58 113.09 40.24 112.75C39.9 112.39 39.73 111.95 39.73 111.43C39.73 110.91 39.9 110.48 40.24 110.14C40.58 109.78 41.01 109.6 41.53 109.6ZM41.53 97.8016C42.05 97.8016 42.49 97.9816 42.85 98.3416C43.19 98.6816 43.36 99.1116 43.36 99.6316C43.36 100.152 43.19 100.592 42.85 100.952C42.49 101.292 42.05 101.462 41.53 101.462C41.01 101.462 40.58 101.292 40.24 100.952C39.9 100.592 39.73 100.152 39.73 99.6316C39.73 99.1116 39.9 98.6816 40.24 98.3416C40.58 97.9816 41.01 97.8016 41.53 97.8016ZM41.53 86.0031C42.05 86.0031 42.49 86.1831 42.85 86.5431C43.19 86.8831 43.36 87.3131 43.36 87.8331C43.36 88.3531 43.19 88.7931 42.85 89.1531C42.49 89.4931 42.05 89.6631 41.53 89.6631C41.01 89.6631 40.58 89.4931 40.24 89.1531C39.9 88.7931 39.73 88.3531 39.73 87.8331C39.73 87.3131 39.9 86.8831 40.24 86.5431C40.58 86.1831 41.01 86.0031 41.53 86.0031ZM41.53 74.2047C42.05 74.2047 42.49 74.3847 42.85 74.7447C43.19 75.0847 43.36 75.5147 43.36 76.0347C43.36 76.5547 43.19 76.9947 42.85 77.3547C42.49 77.6947 42.05 77.8647 41.53 77.8647C41.01 77.8647 40.58 77.6947 40.24 77.3547C39.9 76.9947 39.73 76.5547 39.73 76.0347C39.73 75.5147 39.9 75.0847 40.24 74.7447C40.58 74.3847 41.01 74.2047 41.53 74.2047ZM41.53 62.4063C42.05 62.4063 42.49 62.5863 42.85 62.9463C43.19 63.2863 43.36 63.7163 43.36 64.2363C43.36 64.7563 43.19 65.1963 42.85 65.5563C42.49 65.8963 42.05 66.0663 41.53 66.0663C41.01 66.0663 40.58 65.8963 40.24 65.5563C39.9 65.1963 39.73 64.7563 39.73 64.2363C39.73 63.7163 39.9 63.2863 40.24 62.9463C40.58 62.5863 41.01 62.4063 41.53 62.4063ZM41.53 50.6078C42.05 50.6078 42.49 50.7878 42.85 51.1478C43.19 51.4878 43.36 51.9178 43.36 52.4378C43.36 52.9578 43.19 53.3978 42.85 53.7578C42.49 54.0978 42.05 54.2678 41.53 54.2678C41.01 54.2678 40.58 54.0978 40.24 53.7578C39.9 53.3978 39.73 52.9578 39.73 52.4378C39.73 51.9178 39.9 51.4878 40.24 51.1478C40.58 50.7878 41.01 50.6078 41.53 50.6078ZM41.53 38.8094C42.05 38.8094 42.49 38.9894 42.85 39.3494C43.19 39.6894 43.36 40.1194 43.36 40.6394C43.36 41.1594 43.19 41.5994 42.85 41.9594C42.49 42.2994 42.05 42.4694 41.53 42.4694C41.01 42.4694 40.58 42.2994 40.24 41.9594C39.9 41.5994 39.73 41.1594 39.73 40.6394C39.73 40.1194 39.9 39.6894 40.24 39.3494C40.58 38.9894 41.01 38.8094 41.53 38.8094ZM41.53 27.0109C42.05 27.0109 42.49 27.1909 42.85 27.5509C43.19 27.8909 43.36 28.3209 43.36 28.8409C43.36 29.3609 43.19 29.8009 42.85 30.1609C42.49 30.5009 42.05 30.6709 41.53 30.6709C41.01 30.6709 40.58 30.5009 40.24 30.1609C39.9 29.8009 39.73 29.3609 39.73 28.8409C39.73 28.3209 39.9 27.8909 40.24 27.5509C40.58 27.1909 41.01 27.0109 41.53 27.0109ZM41.53 15.2125C42.05 15.2125 42.49 15.3925 42.85 15.7525C43.19 16.0925 43.36 16.5225 43.36 17.0425C43.36 17.5625 43.19 18.0025 42.85 18.3625C42.49 18.7025 42.05 18.8725 41.53 18.8725C41.01 18.8725 40.58 18.7025 40.24 18.3625C39.9 18.0025 39.73 17.5625 39.73 17.0425C39.73 16.5225 39.9 16.0925 40.24 15.7525C40.58 15.3925 41.01 15.2125 41.53 15.2125ZM41.53 3.41406C42.05 3.41406 42.49 3.59406 42.85 3.95406C43.19 4.29406 43.36 4.72406 43.36 5.24406C43.36 5.76406 43.19 6.20406 42.85 6.56406C42.49 6.90406 42.05 7.07406 41.53 7.07406C41.01 7.07406 40.58 6.90406 40.24 6.56406C39.9 6.20406 39.73 5.76406 39.73 5.24406C39.73 4.72406 39.9 4.29406 40.24 3.95406C40.58 3.59406 41.01 3.41406 41.53 3.41406ZM55.53 109.6C56.05 109.6 56.49 109.78 56.85 110.14C57.19 110.48 57.36 110.91 57.36 111.43C57.36 111.95 57.19 112.39 56.85 112.75C56.49 113.09 56.05 113.26 55.53 113.26C55.01 113.26 54.58 113.09 54.24 112.75C53.9 112.39 53.73 111.95 53.73 111.43C53.73 110.91 53.9 110.48 54.24 110.14C54.58 109.78 55.01 109.6 55.53 109.6ZM55.53 97.8016C56.05 97.8016 56.49 97.9816 56.85 98.3416C57.19 98.6816 57.36 99.1116 57.36 99.6316C57.36 100.152 57.19 100.592 56.85 100.952C56.49 101.292 56.05 101.462 55.53 101.462C55.01 101.462 54.58 101.292 54.24 100.952C53.9 100.592 53.73 100.152 53.73 99.6316C53.73 99.1116 53.9 98.6816 54.24 98.3416C54.58 97.9816 55.01 97.8016 55.53 97.8016ZM55.53 86.0031C56.05 86.0031 56.49 86.1831 56.85 86.5431C57.19 86.8831 57.36 87.3131 57.36 87.8331C57.36 88.3531 57.19 88.7931 56.85 89.1531C56.49 89.4931 56.05 89.6631 55.53 89.6631C55.01 89.6631 54.58 89.4931 54.24 89.1531C53.9 88.7931 53.73 88.3531 53.73 87.8331C53.73 87.3131 53.9 86.8831 54.24 86.5431C54.58 86.1831 55.01 86.0031 55.53 86.0031ZM55.53 74.2047C56.05 74.2047 56.49 74.3847 56.85 74.7447C57.19 75.0847 57.36 75.5147 57.36 76.0347C57.36 76.5547 57.19 76.9947 56.85 77.3547C56.49 77.6947 56.05 77.8647 55.53 77.8647C55.01 77.8647 54.58 77.6947 54.24 77.3547C53.9 76.9947 53.73 76.5547 53.73 76.0347C53.73 75.5147 53.9 75.0847 54.24 74.7447C54.58 74.3847 55.01 74.2047 55.53 74.2047ZM55.53 62.4063C56.05 62.4063 56.49 62.5863 56.85 62.9463C57.19 63.2863 57.36 63.7163 57.36 64.2363C57.36 64.7563 57.19 65.1963 56.85 65.5563C56.49 65.8963 56.05 66.0663 55.53 66.0663C55.01 66.0663 54.58 65.8963 54.24 65.5563C53.9 65.1963 53.73 64.7563 53.73 64.2363C53.73 63.7163 53.9 63.2863 54.24 62.9463C54.58 62.5863 55.01 62.4063 55.53 62.4063ZM55.53 50.6078C56.05 50.6078 56.49 50.7878 56.85 51.1478C57.19 51.4878 57.36 51.9178 57.36 52.4378C57.36 52.9578 57.19 53.3978 56.85 53.7578C56.49 54.0978 56.05 54.2678 55.53 54.2678C55.01 54.2678 54.58 54.0978 54.24 53.7578C53.9 53.3978 53.73 52.9578 53.73 52.4378C53.73 51.9178 53.9 51.4878 54.24 51.1478C54.58 50.7878 55.01 50.6078 55.53 50.6078ZM55.53 38.8094C56.05 38.8094 56.49 38.9894 56.85 39.3494C57.19 39.6894 57.36 40.1194 57.36 40.6394C57.36 41.1594 57.19 41.5994 56.85 41.9594C56.49 42.2994 56.05 42.4694 55.53 42.4694C55.01 42.4694 54.58 42.2994 54.24 41.9594C53.9 41.5994 53.73 41.1594 53.73 40.6394C53.73 40.1194 53.9 39.6894 54.24 39.3494C54.58 38.9894 55.01 38.8094 55.53 38.8094ZM55.53 27.0109C56.05 27.0109 56.49 27.1909 56.85 27.5509C57.19 27.8909 57.36 28.3209 57.36 28.8409C57.36 29.3609 57.19 29.8009 56.85 30.1609C56.49 30.5009 56.05 30.6709 55.53 30.6709C55.01 30.6709 54.58 30.5009 54.24 30.1609C53.9 29.8009 53.73 29.3609 53.73 28.8409C53.73 28.3209 53.9 27.8909 54.24 27.5509C54.58 27.1909 55.01 27.0109 55.53 27.0109ZM55.53 15.2125C56.05 15.2125 56.49 15.3925 56.85 15.7525C57.19 16.0925 57.36 16.5225 57.36 17.0425C57.36 17.5625 57.19 18.0025 56.85 18.3625C56.49 18.7025 56.05 18.8725 55.53 18.8725C55.01 18.8725 54.58 18.7025 54.24 18.3625C53.9 18.0025 53.73 17.5625 53.73 17.0425C53.73 16.5225 53.9 16.0925 54.24 15.7525C54.58 15.3925 55.01 15.2125 55.53 15.2125ZM55.53 3.41406C56.05 3.41406 56.49 3.59406 56.85 3.95406C57.19 4.29406 57.36 4.72406 57.36 5.24406C57.36 5.76406 57.19 6.20406 56.85 6.56406C56.49 6.90406 56.05 7.07406 55.53 7.07406C55.01 7.07406 54.58 6.90406 54.24 6.56406C53.9 6.20406 53.73 5.76406 53.73 5.24406C53.73 4.72406 53.9 4.29406 54.24 3.95406C54.58 3.59406 55.01 3.41406 55.53 3.41406ZM69.53 109.6C70.05 109.6 70.49 109.78 70.85 110.14C71.19 110.48 71.36 110.91 71.36 111.43C71.36 111.95 71.19 112.39 70.85 112.75C70.49 113.09 70.05 113.26 69.53 113.26C69.01 113.26 68.58 113.09 68.24 112.75C67.9 112.39 67.73 111.95 67.73 111.43C67.73 110.91 67.9 110.48 68.24 110.14C68.58 109.78 69.01 109.6 69.53 109.6ZM69.53 97.8016C70.05 97.8016 70.49 97.9816 70.85 98.3416C71.19 98.6816 71.36 99.1116 71.36 99.6316C71.36 100.152 71.19 100.592 70.85 100.952C70.49 101.292 70.05 101.462 69.53 101.462C69.01 101.462 68.58 101.292 68.24 100.952C67.9 100.592 67.73 100.152 67.73 99.6316C67.73 99.1116 67.9 98.6816 68.24 98.3416C68.58 97.9816 69.01 97.8016 69.53 97.8016ZM69.53 86.0031C70.05 86.0031 70.49 86.1831 70.85 86.5431C71.19 86.8831 71.36 87.3131 71.36 87.8331C71.36 88.3531 71.19 88.7931 70.85 89.1531C70.49 89.4931 70.05 89.6631 69.53 89.6631C69.01 89.6631 68.58 89.4931 68.24 89.1531C67.9 88.7931 67.73 88.3531 67.73 87.8331C67.73 87.3131 67.9 86.8831 68.24 86.5431C68.58 86.1831 69.01 86.0031 69.53 86.0031ZM69.53 74.2047C70.05 74.2047 70.49 74.3847 70.85 74.7447C71.19 75.0847 71.36 75.5147 71.36 76.0347C71.36 76.5547 71.19 76.9947 70.85 77.3547C70.49 77.6947 70.05 77.8647 69.53 77.8647C69.01 77.8647 68.58 77.6947 68.24 77.3547C67.9 76.9947 67.73 76.5547 67.73 76.0347C67.73 75.5147 67.9 75.0847 68.24 74.7447C68.58 74.3847 69.01 74.2047 69.53 74.2047ZM69.53 62.4063C70.05 62.4063 70.49 62.5863 70.85 62.9463C71.19 63.2863 71.36 63.7163 71.36 64.2363C71.36 64.7563 71.19 65.1963 70.85 65.5563C70.49 65.8963 70.05 66.0663 69.53 66.0663C69.01 66.0663 68.58 65.8963 68.24 65.5563C67.9 65.1963 67.73 64.7563 67.73 64.2363C67.73 63.7163 67.9 63.2863 68.24 62.9463C68.58 62.5863 69.01 62.4063 69.53 62.4063ZM69.53 50.6078C70.05 50.6078 70.49 50.7878 70.85 51.1478C71.19 51.4878 71.36 51.9178 71.36 52.4378C71.36 52.9578 71.19 53.3978 70.85 53.7578C70.49 54.0978 70.05 54.2678 69.53 54.2678C69.01 54.2678 68.58 54.0978 68.24 53.7578C67.9 53.3978 67.73 52.9578 67.73 52.4378C67.73 51.9178 67.9 51.4878 68.24 51.1478C68.58 50.7878 69.01 50.6078 69.53 50.6078ZM69.53 38.8094C70.05 38.8094 70.49 38.9894 70.85 39.3494C71.19 39.6894 71.36 40.1194 71.36 40.6394C71.36 41.1594 71.19 41.5994 70.85 41.9594C70.49 42.2994 70.05 42.4694 69.53 42.4694C69.01 42.4694 68.58 42.2994 68.24 41.9594C67.9 41.5994 67.73 41.1594 67.73 40.6394C67.73 40.1194 67.9 39.6894 68.24 39.3494C68.58 38.9894 69.01 38.8094 69.53 38.8094ZM69.53 27.0109C70.05 27.0109 70.49 27.1909 70.85 27.5509C71.19 27.8909 71.36 28.3209 71.36 28.8409C71.36 29.3609 71.19 29.8009 70.85 30.1609C70.49 30.5009 70.05 30.6709 69.53 30.6709C69.01 30.6709 68.58 30.5009 68.24 30.1609C67.9 29.8009 67.73 29.3609 67.73 28.8409C67.73 28.3209 67.9 27.8909 68.24 27.5509C68.58 27.1909 69.01 27.0109 69.53 27.0109ZM69.53 15.2125C70.05 15.2125 70.49 15.3925 70.85 15.7525C71.19 16.0925 71.36 16.5225 71.36 17.0425C71.36 17.5625 71.19 18.0025 70.85 18.3625C70.49 18.7025 70.05 18.8725 69.53 18.8725C69.01 18.8725 68.58 18.7025 68.24 18.3625C67.9 18.0025 67.73 17.5625 67.73 17.0425C67.73 16.5225 67.9 16.0925 68.24 15.7525C68.58 15.3925 69.01 15.2125 69.53 15.2125ZM69.53 3.41406C70.05 3.41406 70.49 3.59406 70.85 3.95406C71.19 4.29406 71.36 4.72406 71.36 5.24406C71.36 5.76406 71.19 6.20406 70.85 6.56406C70.49 6.90406 70.05 7.07406 69.53 7.07406C69.01 7.07406 68.58 6.90406 68.24 6.56406C67.9 6.20406 67.73 5.76406 67.73 5.24406C67.73 4.72406 67.9 4.29406 68.24 3.95406C68.58 3.59406 69.01 3.41406 69.53 3.41406Z" fill="white" fill-opacity="0.73"/>
<path d="M83.53 163.6C84.05 163.6 84.49 163.78 84.85 164.14C85.19 164.48 85.36 164.91 85.36 165.43C85.36 165.95 85.19 166.39 84.85 166.75C84.49 167.09 84.05 167.26 83.53 167.26C83.01 167.26 82.58 167.09 82.24 166.75C81.9 166.39 81.73 165.95 81.73 165.43C81.73 164.91 81.9 164.48 82.24 164.14C82.58 163.78 83.01 163.6 83.53 163.6ZM83.53 151.802C84.05 151.802 84.49 151.982 84.85 152.342C85.19 152.682 85.36 153.112 85.36 153.632C85.36 154.152 85.19 154.592 84.85 154.952C84.49 155.292 84.05 155.462 83.53 155.462C83.01 155.462 82.58 155.292 82.24 154.952C81.9 154.592 81.73 154.152 81.73 153.632C81.73 153.112 81.9 152.682 82.24 152.342C82.58 151.982 83.01 151.802 83.53 151.802ZM83.53 140.003C84.05 140.003 84.49 140.183 84.85 140.543C85.19 140.883 85.36 141.313 85.36 141.833C85.36 142.353 85.19 142.793 84.85 143.153C84.49 143.493 84.05 143.663 83.53 143.663C83.01 143.663 82.58 143.493 82.24 143.153C81.9 142.793 81.73 142.353 81.73 141.833C81.73 141.313 81.9 140.883 82.24 140.543C82.58 140.183 83.01 140.003 83.53 140.003ZM83.53 128.205C84.05 128.205 84.49 128.385 84.85 128.745C85.19 129.085 85.36 129.515 85.36 130.035C85.36 130.555 85.19 130.995 84.85 131.355C84.49 131.695 84.05 131.865 83.53 131.865C83.01 131.865 82.58 131.695 82.24 131.355C81.9 130.995 81.73 130.555 81.73 130.035C81.73 129.515 81.9 129.085 82.24 128.745C82.58 128.385 83.01 128.205 83.53 128.205ZM83.53 116.406C84.05 116.406 84.49 116.586 84.85 116.946C85.19 117.286 85.36 117.716 85.36 118.236C85.36 118.756 85.19 119.196 84.85 119.556C84.49 119.896 84.05 120.066 83.53 120.066C83.01 120.066 82.58 119.896 82.24 119.556C81.9 119.196 81.73 118.756 81.73 118.236C81.73 117.716 81.9 117.286 82.24 116.946C82.58 116.586 83.01 116.406 83.53 116.406ZM83.53 104.608C84.05 104.608 84.49 104.788 84.85 105.148C85.19 105.488 85.36 105.918 85.36 106.438C85.36 106.958 85.19 107.398 84.85 107.758C84.49 108.098 84.05 108.268 83.53 108.268C83.01 108.268 82.58 108.098 82.24 107.758C81.9 107.398 81.73 106.958 81.73 106.438C81.73 105.918 81.9 105.488 82.24 105.148C82.58 104.788 83.01 104.608 83.53 104.608ZM83.53 92.8094C84.05 92.8094 84.49 92.9894 84.85 93.3494C85.19 93.6894 85.36 94.1194 85.36 94.6394C85.36 95.1594 85.19 95.5994 84.85 95.9594C84.49 96.2994 84.05 96.4694 83.53 96.4694C83.01 96.4694 82.58 96.2994 82.24 95.9594C81.9 95.5994 81.73 95.1594 81.73 94.6394C81.73 94.1194 81.9 93.6894 82.24 93.3494C82.58 92.9894 83.01 92.8094 83.53 92.8094ZM83.53 81.0109C84.05 81.0109 84.49 81.1909 84.85 81.5509C85.19 81.8909 85.36 82.3209 85.36 82.8409C85.36 83.3609 85.19 83.8009 84.85 84.1609C84.49 84.5009 84.05 84.6709 83.53 84.6709C83.01 84.6709 82.58 84.5009 82.24 84.1609C81.9 83.8009 81.73 83.3609 81.73 82.8409C81.73 82.3209 81.9 81.8909 82.24 81.5509C82.58 81.1909 83.01 81.0109 83.53 81.0109ZM83.53 69.2125C84.05 69.2125 84.49 69.3925 84.85 69.7525C85.19 70.0925 85.36 70.5225 85.36 71.0425C85.36 71.5625 85.19 72.0025 84.85 72.3625C84.49 72.7025 84.05 72.8725 83.53 72.8725C83.01 72.8725 82.58 72.7025 82.24 72.3625C81.9 72.0025 81.73 71.5625 81.73 71.0425C81.73 70.5225 81.9 70.0925 82.24 69.7525C82.58 69.3925 83.01 69.2125 83.53 69.2125ZM83.53 57.4141C84.05 57.4141 84.49 57.5941 84.85 57.9541C85.19 58.2941 85.36 58.7241 85.36 59.2441C85.36 59.7641 85.19 60.2041 84.85 60.5641C84.49 60.9041 84.05 61.0741 83.53 61.0741C83.01 61.0741 82.58 60.9041 82.24 60.5641C81.9 60.2041 81.73 59.7641 81.73 59.2441C81.73 58.7241 81.9 58.2941 82.24 57.9541C82.58 57.5941 83.01 57.4141 83.53 57.4141ZM97.53 163.6C98.05 163.6 98.49 163.78 98.85 164.14C99.19 164.48 99.36 164.91 99.36 165.43C99.36 165.95 99.19 166.39 98.85 166.75C98.49 167.09 98.05 167.26 97.53 167.26C97.01 167.26 96.58 167.09 96.24 166.75C95.9 166.39 95.73 165.95 95.73 165.43C95.73 164.91 95.9 164.48 96.24 164.14C96.58 163.78 97.01 163.6 97.53 163.6ZM97.53 151.802C98.05 151.802 98.49 151.982 98.85 152.342C99.19 152.682 99.36 153.112 99.36 153.632C99.36 154.152 99.19 154.592 98.85 154.952C98.49 155.292 98.05 155.462 97.53 155.462C97.01 155.462 96.58 155.292 96.24 154.952C95.9 154.592 95.73 154.152 95.73 153.632C95.73 153.112 95.9 152.682 96.24 152.342C96.58 151.982 97.01 151.802 97.53 151.802ZM97.53 140.003C98.05 140.003 98.49 140.183 98.85 140.543C99.19 140.883 99.36 141.313 99.36 141.833C99.36 142.353 99.19 142.793 98.85 143.153C98.49 143.493 98.05 143.663 97.53 143.663C97.01 143.663 96.58 143.493 96.24 143.153C95.9 142.793 95.73 142.353 95.73 141.833C95.73 141.313 95.9 140.883 96.24 140.543C96.58 140.183 97.01 140.003 97.53 140.003ZM97.53 128.205C98.05 128.205 98.49 128.385 98.85 128.745C99.19 129.085 99.36 129.515 99.36 130.035C99.36 130.555 99.19 130.995 98.85 131.355C98.49 131.695 98.05 131.865 97.53 131.865C97.01 131.865 96.58 131.695 96.24 131.355C95.9 130.995 95.73 130.555 95.73 130.035C95.73 129.515 95.9 129.085 96.24 128.745C96.58 128.385 97.01 128.205 97.53 128.205ZM97.53 116.406C98.05 116.406 98.49 116.586 98.85 116.946C99.19 117.286 99.36 117.716 99.36 118.236C99.36 118.756 99.19 119.196 98.85 119.556C98.49 119.896 98.05 120.066 97.53 120.066C97.01 120.066 96.58 119.896 96.24 119.556C95.9 119.196 95.73 118.756 95.73 118.236C95.73 117.716 95.9 117.286 96.24 116.946C96.58 116.586 97.01 116.406 97.53 116.406ZM97.53 104.608C98.05 104.608 98.49 104.788 98.85 105.148C99.19 105.488 99.36 105.918 99.36 106.438C99.36 106.958 99.19 107.398 98.85 107.758C98.49 108.098 98.05 108.268 97.53 108.268C97.01 108.268 96.58 108.098 96.24 107.758C95.9 107.398 95.73 106.958 95.73 106.438C95.73 105.918 95.9 105.488 96.24 105.148C96.58 104.788 97.01 104.608 97.53 104.608ZM97.53 92.8094C98.05 92.8094 98.49 92.9894 98.85 93.3494C99.19 93.6894 99.36 94.1194 99.36 94.6394C99.36 95.1594 99.19 95.5994 98.85 95.9594C98.49 96.2994 98.05 96.4694 97.53 96.4694C97.01 96.4694 96.58 96.2994 96.24 95.9594C95.9 95.5994 95.73 95.1594 95.73 94.6394C95.73 94.1194 95.9 93.6894 96.24 93.3494C96.58 92.9894 97.01 92.8094 97.53 92.8094ZM97.53 81.0109C98.05 81.0109 98.49 81.1909 98.85 81.5509C99.19 81.8909 99.36 82.3209 99.36 82.8409C99.36 83.3609 99.19 83.8009 98.85 84.1609C98.49 84.5009 98.05 84.6709 97.53 84.6709C97.01 84.6709 96.58 84.5009 96.24 84.1609C95.9 83.8009 95.73 83.3609 95.73 82.8409C95.73 82.3209 95.9 81.8909 96.24 81.5509C96.58 81.1909 97.01 81.0109 97.53 81.0109ZM97.53 69.2125C98.05 69.2125 98.49 69.3925 98.85 69.7525C99.19 70.0925 99.36 70.5225 99.36 71.0425C99.36 71.5625 99.19 72.0025 98.85 72.3625C98.49 72.7025 98.05 72.8725 97.53 72.8725C97.01 72.8725 96.58 72.7025 96.24 72.3625C95.9 72.0025 95.73 71.5625 95.73 71.0425C95.73 70.5225 95.9 70.0925 96.24 69.7525C96.58 69.3925 97.01 69.2125 97.53 69.2125ZM97.53 57.4141C98.05 57.4141 98.49 57.5941 98.85 57.9541C99.19 58.2941 99.36 58.7241 99.36 59.2441C99.36 59.7641 99.19 60.2041 98.85 60.5641C98.49 60.9041 98.05 61.0741 97.53 61.0741C97.01 61.0741 96.58 60.9041 96.24 60.5641C95.9 60.2041 95.73 59.7641 95.73 59.2441C95.73 58.7241 95.9 58.2941 96.24 57.9541C96.58 57.5941 97.01 57.4141 97.53 57.4141ZM111.53 163.6C112.05 163.6 112.49 163.78 112.85 164.14C113.19 164.48 113.36 164.91 113.36 165.43C113.36 165.95 113.19 166.39 112.85 166.75C112.49 167.09 112.05 167.26 111.53 167.26C111.01 167.26 110.58 167.09 110.24 166.75C109.9 166.39 109.73 165.95 109.73 165.43C109.73 164.91 109.9 164.48 110.24 164.14C110.58 163.78 111.01 163.6 111.53 163.6ZM111.53 151.802C112.05 151.802 112.49 151.982 112.85 152.342C113.19 152.682 113.36 153.112 113.36 153.632C113.36 154.152 113.19 154.592 112.85 154.952C112.49 155.292 112.05 155.462 111.53 155.462C111.01 155.462 110.58 155.292 110.24 154.952C109.9 154.592 109.73 154.152 109.73 153.632C109.73 153.112 109.9 152.682 110.24 152.342C110.58 151.982 111.01 151.802 111.53 151.802ZM111.53 140.003C112.05 140.003 112.49 140.183 112.85 140.543C113.19 140.883 113.36 141.313 113.36 141.833C113.36 142.353 113.19 142.793 112.85 143.153C112.49 143.493 112.05 143.663 111.53 143.663C111.01 143.663 110.58 143.493 110.24 143.153C109.9 142.793 109.73 142.353 109.73 141.833C109.73 141.313 109.9 140.883 110.24 140.543C110.58 140.183 111.01 140.003 111.53 140.003ZM111.53 128.205C112.05 128.205 112.49 128.385 112.85 128.745C113.19 129.085 113.36 129.515 113.36 130.035C113.36 130.555 113.19 130.995 112.85 131.355C112.49 131.695 112.05 131.865 111.53 131.865C111.01 131.865 110.58 131.695 110.24 131.355C109.9 130.995 109.73 130.555 109.73 130.035C109.73 129.515 109.9 129.085 110.24 128.745C110.58 128.385 111.01 128.205 111.53 128.205ZM111.53 116.406C112.05 116.406 112.49 116.586 112.85 116.946C113.19 117.286 113.36 117.716 113.36 118.236C113.36 118.756 113.19 119.196 112.85 119.556C112.49 119.896 112.05 120.066 111.53 120.066C111.01 120.066 110.58 119.896 110.24 119.556C109.9 119.196 109.73 118.756 109.73 118.236C109.73 117.716 109.9 117.286 110.24 116.946C110.58 116.586 111.01 116.406 111.53 116.406ZM111.53 104.608C112.05 104.608 112.49 104.788 112.85 105.148C113.19 105.488 113.36 105.918 113.36 106.438C113.36 106.958 113.19 107.398 112.85 107.758C112.49 108.098 112.05 108.268 111.53 108.268C111.01 108.268 110.58 108.098 110.24 107.758C109.9 107.398 109.73 106.958 109.73 106.438C109.73 105.918 109.9 105.488 110.24 105.148C110.58 104.788 111.01 104.608 111.53 104.608ZM111.53 92.8094C112.05 92.8094 112.49 92.9894 112.85 93.3494C113.19 93.6894 113.36 94.1194 113.36 94.6394C113.36 95.1594 113.19 95.5994 112.85 95.9594C112.49 96.2994 112.05 96.4694 111.53 96.4694C111.01 96.4694 110.58 96.2994 110.24 95.9594C109.9 95.5994 109.73 95.1594 109.73 94.6394C109.73 94.1194 109.9 93.6894 110.24 93.3494C110.58 92.9894 111.01 92.8094 111.53 92.8094ZM111.53 81.0109C112.05 81.0109 112.49 81.1909 112.85 81.5509C113.19 81.8909 113.36 82.3209 113.36 82.8409C113.36 83.3609 113.19 83.8009 112.85 84.1609C112.49 84.5009 112.05 84.6709 111.53 84.6709C111.01 84.6709 110.58 84.5009 110.24 84.1609C109.9 83.8009 109.73 83.3609 109.73 82.8409C109.73 82.3209 109.9 81.8909 110.24 81.5509C110.58 81.1909 111.01 81.0109 111.53 81.0109ZM111.53 69.2125C112.05 69.2125 112.49 69.3925 112.85 69.7525C113.19 70.0925 113.36 70.5225 113.36 71.0425C113.36 71.5625 113.19 72.0025 112.85 72.3625C112.49 72.7025 112.05 72.8725 111.53 72.8725C111.01 72.8725 110.58 72.7025 110.24 72.3625C109.9 72.0025 109.73 71.5625 109.73 71.0425C109.73 70.5225 109.9 70.0925 110.24 69.7525C110.58 69.3925 111.01 69.2125 111.53 69.2125ZM111.53 57.4141C112.05 57.4141 112.49 57.5941 112.85 57.9541C113.19 58.2941 113.36 58.7241 113.36 59.2441C113.36 59.7641 113.19 60.2041 112.85 60.5641C112.49 60.9041 112.05 61.0741 111.53 61.0741C111.01 61.0741 110.58 60.9041 110.24 60.5641C109.9 60.2041 109.73 59.7641 109.73 59.2441C109.73 58.7241 109.9 58.2941 110.24 57.9541C110.58 57.5941 111.01 57.4141 111.53 57.4141ZM125.53 163.6C126.05 163.6 126.49 163.78 126.85 164.14C127.19 164.48 127.36 164.91 127.36 165.43C127.36 165.95 127.19 166.39 126.85 166.75C126.49 167.09 126.05 167.26 125.53 167.26C125.01 167.26 124.58 167.09 124.24 166.75C123.9 166.39 123.73 165.95 123.73 165.43C123.73 164.91 123.9 164.48 124.24 164.14C124.58 163.78 125.01 163.6 125.53 163.6ZM125.53 151.802C126.05 151.802 126.49 151.982 126.85 152.342C127.19 152.682 127.36 153.112 127.36 153.632C127.36 154.152 127.19 154.592 126.85 154.952C126.49 155.292 126.05 155.462 125.53 155.462C125.01 155.462 124.58 155.292 124.24 154.952C123.9 154.592 123.73 154.152 123.73 153.632C123.73 153.112 123.9 152.682 124.24 152.342C124.58 151.982 125.01 151.802 125.53 151.802ZM125.53 140.003C126.05 140.003 126.49 140.183 126.85 140.543C127.19 140.883 127.36 141.313 127.36 141.833C127.36 142.353 127.19 142.793 126.85 143.153C126.49 143.493 126.05 143.663 125.53 143.663C125.01 143.663 124.58 143.493 124.24 143.153C123.9 142.793 123.73 142.353 123.73 141.833C123.73 141.313 123.9 140.883 124.24 140.543C124.58 140.183 125.01 140.003 125.53 140.003ZM125.53 128.205C126.05 128.205 126.49 128.385 126.85 128.745C127.19 129.085 127.36 129.515 127.36 130.035C127.36 130.555 127.19 130.995 126.85 131.355C126.49 131.695 126.05 131.865 125.53 131.865C125.01 131.865 124.58 131.695 124.24 131.355C123.9 130.995 123.73 130.555 123.73 130.035C123.73 129.515 123.9 129.085 124.24 128.745C124.58 128.385 125.01 128.205 125.53 128.205ZM125.53 116.406C126.05 116.406 126.49 116.586 126.85 116.946C127.19 117.286 127.36 117.716 127.36 118.236C127.36 118.756 127.19 119.196 126.85 119.556C126.49 119.896 126.05 120.066 125.53 120.066C125.01 120.066 124.58 119.896 124.24 119.556C123.9 119.196 123.73 118.756 123.73 118.236C123.73 117.716 123.9 117.286 124.24 116.946C124.58 116.586 125.01 116.406 125.53 116.406ZM125.53 104.608C126.05 104.608 126.49 104.788 126.85 105.148C127.19 105.488 127.36 105.918 127.36 106.438C127.36 106.958 127.19 107.398 126.85 107.758C126.49 108.098 126.05 108.268 125.53 108.268C125.01 108.268 124.58 108.098 124.24 107.758C123.9 107.398 123.73 106.958 123.73 106.438C123.73 105.918 123.9 105.488 124.24 105.148C124.58 104.788 125.01 104.608 125.53 104.608ZM125.53 92.8094C126.05 92.8094 126.49 92.9894 126.85 93.3494C127.19 93.6894 127.36 94.1194 127.36 94.6394C127.36 95.1594 127.19 95.5994 126.85 95.9594C126.49 96.2994 126.05 96.4694 125.53 96.4694C125.01 96.4694 124.58 96.2994 124.24 95.9594C123.9 95.5994 123.73 95.1594 123.73 94.6394C123.73 94.1194 123.9 93.6894 124.24 93.3494C124.58 92.9894 125.01 92.8094 125.53 92.8094ZM125.53 81.0109C126.05 81.0109 126.49 81.1909 126.85 81.5509C127.19 81.8909 127.36 82.3209 127.36 82.8409C127.36 83.3609 127.19 83.8009 126.85 84.1609C126.49 84.5009 126.05 84.6709 125.53 84.6709C125.01 84.6709 124.58 84.5009 124.24 84.1609C123.9 83.8009 123.73 83.3609 123.73 82.8409C123.73 82.3209 123.9 81.8909 124.24 81.5509C124.58 81.1909 125.01 81.0109 125.53 81.0109ZM125.53 69.2125C126.05 69.2125 126.49 69.3925 126.85 69.7525C127.19 70.0925 127.36 70.5225 127.36 71.0425C127.36 71.5625 127.19 72.0025 126.85 72.3625C126.49 72.7025 126.05 72.8725 125.53 72.8725C125.01 72.8725 124.58 72.7025 124.24 72.3625C123.9 72.0025 123.73 71.5625 123.73 71.0425C123.73 70.5225 123.9 70.0925 124.24 69.7525C124.58 69.3925 125.01 69.2125 125.53 69.2125ZM125.53 57.4141C126.05 57.4141 126.49 57.5941 126.85 57.9541C127.19 58.2941 127.36 58.7241 127.36 59.2441C127.36 59.7641 127.19 60.2041 126.85 60.5641C126.49 60.9041 126.05 61.0741 125.53 61.0741C125.01 61.0741 124.58 60.9041 124.24 60.5641C123.9 60.2041 123.73 59.7641 123.73 59.2441C123.73 58.7241 123.9 58.2941 124.24 57.9541C124.58 57.5941 125.01 57.4141 125.53 57.4141ZM139.53 163.6C140.05 163.6 140.49 163.78 140.85 164.14C141.19 164.48 141.36 164.91 141.36 165.43C141.36 165.95 141.19 166.39 140.85 166.75C140.49 167.09 140.05 167.26 139.53 167.26C139.01 167.26 138.58 167.09 138.24 166.75C137.9 166.39 137.73 165.95 137.73 165.43C137.73 164.91 137.9 164.48 138.24 164.14C138.58 163.78 139.01 163.6 139.53 163.6ZM139.53 151.802C140.05 151.802 140.49 151.982 140.85 152.342C141.19 152.682 141.36 153.112 141.36 153.632C141.36 154.152 141.19 154.592 140.85 154.952C140.49 155.292 140.05 155.462 139.53 155.462C139.01 155.462 138.58 155.292 138.24 154.952C137.9 154.592 137.73 154.152 137.73 153.632C137.73 153.112 137.9 152.682 138.24 152.342C138.58 151.982 139.01 151.802 139.53 151.802ZM139.53 140.003C140.05 140.003 140.49 140.183 140.85 140.543C141.19 140.883 141.36 141.313 141.36 141.833C141.36 142.353 141.19 142.793 140.85 143.153C140.49 143.493 140.05 143.663 139.53 143.663C139.01 143.663 138.58 143.493 138.24 143.153C137.9 142.793 137.73 142.353 137.73 141.833C137.73 141.313 137.9 140.883 138.24 140.543C138.58 140.183 139.01 140.003 139.53 140.003ZM139.53 128.205C140.05 128.205 140.49 128.385 140.85 128.745C141.19 129.085 141.36 129.515 141.36 130.035C141.36 130.555 141.19 130.995 140.85 131.355C140.49 131.695 140.05 131.865 139.53 131.865C139.01 131.865 138.58 131.695 138.24 131.355C137.9 130.995 137.73 130.555 137.73 130.035C137.73 129.515 137.9 129.085 138.24 128.745C138.58 128.385 139.01 128.205 139.53 128.205ZM139.53 116.406C140.05 116.406 140.49 116.586 140.85 116.946C141.19 117.286 141.36 117.716 141.36 118.236C141.36 118.756 141.19 119.196 140.85 119.556C140.49 119.896 140.05 120.066 139.53 120.066C139.01 120.066 138.58 119.896 138.24 119.556C137.9 119.196 137.73 118.756 137.73 118.236C137.73 117.716 137.9 117.286 138.24 116.946C138.58 116.586 139.01 116.406 139.53 116.406ZM139.53 104.608C140.05 104.608 140.49 104.788 140.85 105.148C141.19 105.488 141.36 105.918 141.36 106.438C141.36 106.958 141.19 107.398 140.85 107.758C140.49 108.098 140.05 108.268 139.53 108.268C139.01 108.268 138.58 108.098 138.24 107.758C137.9 107.398 137.73 106.958 137.73 106.438C137.73 105.918 137.9 105.488 138.24 105.148C138.58 104.788 139.01 104.608 139.53 104.608ZM139.53 92.8094C140.05 92.8094 140.49 92.9894 140.85 93.3494C141.19 93.6894 141.36 94.1194 141.36 94.6394C141.36 95.1594 141.19 95.5994 140.85 95.9594C140.49 96.2994 140.05 96.4694 139.53 96.4694C139.01 96.4694 138.58 96.2994 138.24 95.9594C137.9 95.5994 137.73 95.1594 137.73 94.6394C137.73 94.1194 137.9 93.6894 138.24 93.3494C138.58 92.9894 139.01 92.8094 139.53 92.8094ZM139.53 81.0109C140.05 81.0109 140.49 81.1909 140.85 81.5509C141.19 81.8909 141.36 82.3209 141.36 82.8409C141.36 83.3609 141.19 83.8009 140.85 84.1609C140.49 84.5009 140.05 84.6709 139.53 84.6709C139.01 84.6709 138.58 84.5009 138.24 84.1609C137.9 83.8009 137.73 83.3609 137.73 82.8409C137.73 82.3209 137.9 81.8909 138.24 81.5509C138.58 81.1909 139.01 81.0109 139.53 81.0109ZM139.53 69.2125C140.05 69.2125 140.49 69.3925 140.85 69.7525C141.19 70.0925 141.36 70.5225 141.36 71.0425C141.36 71.5625 141.19 72.0025 140.85 72.3625C140.49 72.7025 140.05 72.8725 139.53 72.8725C139.01 72.8725 138.58 72.7025 138.24 72.3625C137.9 72.0025 137.73 71.5625 137.73 71.0425C137.73 70.5225 137.9 70.0925 138.24 69.7525C138.58 69.3925 139.01 69.2125 139.53 69.2125ZM139.53 57.4141C140.05 57.4141 140.49 57.5941 140.85 57.9541C141.19 58.2941 141.36 58.7241 141.36 59.2441C141.36 59.7641 141.19 60.2041 140.85 60.5641C140.49 60.9041 140.05 61.0741 139.53 61.0741C139.01 61.0741 138.58 60.9041 138.24 60.5641C137.9 60.2041 137.73 59.7641 137.73 59.2441C137.73 58.7241 137.9 58.2941 138.24 57.9541C138.58 57.5941 139.01 57.4141 139.53 57.4141Z" fill="white" fill-opacity="0.73"/>
</svg>
