<svg width="56" height="58" viewBox="0 0 56 58" fill="none" xmlns="http://www.w3.org/2000/svg">
<g clip-path="url(#clip0_604_321)">
<path d="M53.6582 18.4277H44.9779L50.1611 12.5218C50.4489 12.1935 50.5949 11.7707 50.5721 11.3306C50.5488 10.8901 50.3596 10.4855 50.0392 10.1909L47.8101 8.14205C47.1486 7.53388 46.127 7.58976 45.5332 8.2668L36.6155 18.4277H21.0951C20.6464 18.4277 20.2825 18.7998 20.2825 19.2593C20.2825 19.7189 20.6464 20.091 21.0951 20.091H35.1558L31.5305 24.2217C31.2427 24.5496 31.0971 24.9729 31.1199 25.413C31.1229 25.4649 31.128 25.5161 31.1352 25.5672L29.8892 29.0156C29.7043 29.5276 29.841 30.0942 30.2379 30.4589C30.4813 30.6829 30.7885 30.799 31.0996 30.799C31.2951 30.799 31.4924 30.7531 31.6769 30.6595L34.8963 29.0213C34.9167 29.0221 34.9366 29.0243 34.9573 29.0243C34.9865 29.0243 35.0157 29.0234 35.0453 29.0217C35.4753 28.9979 35.8706 28.8047 36.1588 28.4763L43.5182 20.091H53.6582C53.8076 20.091 53.9291 20.2154 53.9291 20.3683V52.4116C53.9291 52.5645 53.8076 52.6888 53.6582 52.6888H47.7467C47.298 52.6888 46.9341 53.0609 46.9341 53.5205C46.9341 53.9796 47.298 54.3522 47.7467 54.3522H53.6582C54.7036 54.3522 55.5543 53.4815 55.5543 52.4116V20.3683C55.5543 19.2979 54.7036 18.4277 53.6582 18.4277ZM48.9439 11.4198L47.9786 12.5192L45.7685 10.4877L46.7339 9.38785L48.9439 11.4198ZM44.6825 11.7252L45.1832 12.1853L33.2487 25.7837L32.7481 25.3233L44.6825 11.7252ZM32.2978 27.1452L33.2365 28.0085L31.7044 28.7878L32.2978 27.1452ZM34.9581 27.3553L34.4575 26.8953L46.3923 13.2968L46.8926 13.7568L34.9581 27.3553Z" fill="#00525D"/>
<path d="M44.2081 52.6888H7.65989C4.37737 52.6888 1.70684 49.9555 1.70684 46.5959V46.1562C1.70684 42.7966 4.37695 40.0637 7.65946 40.0637H9.3295C10.3753 40.0637 11.2255 39.193 11.2255 38.1231V20.0911H17.5565C18.0056 20.0911 18.3691 19.7186 18.3691 19.2594C18.3691 18.7998 18.0056 18.4277 17.5565 18.4277H11.2255V15.5398C11.2255 15.0806 10.862 14.7081 10.413 14.7081C9.96433 14.7081 9.60036 15.0806 9.60036 15.5398V38.1231C9.60036 38.276 9.4789 38.4003 9.3295 38.4003H7.65946C5.24794 38.4003 3.09543 39.5595 1.70684 41.3619V11.8929C1.70684 8.53327 4.37737 5.79997 7.65989 5.79997H9.3295C9.4789 5.79997 9.60036 5.92429 9.60036 6.0772V11.9181C9.60036 12.3776 9.96433 12.7497 10.413 12.7497C10.862 12.7497 11.2255 12.3776 11.2255 11.9181V6.0772C11.2255 5.00727 10.3753 4.1366 9.3295 4.1366H7.65989C3.48141 4.1366 0.081665 7.61582 0.081665 11.8929V46.5959C0.081665 50.8726 3.48141 54.3522 7.65989 54.3522H44.2081C44.6572 54.3522 45.0207 53.9797 45.0207 53.5205C45.0207 53.0609 44.6572 52.6888 44.2081 52.6888Z" fill="#00525D"/>
<path d="M43.4406 27.208C40.1212 27.208 37.3995 29.8711 37.2048 33.2191H33.464C33.0153 33.2191 32.6514 33.5916 32.6514 34.0508V43.5511C32.6514 44.0107 33.0153 44.3828 33.464 44.3828H42.7461C43.1951 44.3828 43.5587 44.0107 43.5587 43.5511V39.9956C46.9499 39.9306 49.689 37.089 49.689 33.6033C49.689 30.0769 46.886 27.208 43.4406 27.208ZM41.9339 38.0758C40.5106 37.572 39.4009 36.376 38.9908 34.8825H41.9339V38.0758ZM34.2765 42.7194V34.8825H37.3182C37.799 37.2961 39.6121 39.2185 41.9339 39.8093V42.7194H34.2765ZM43.5591 38.3322V34.0508C43.5591 33.5916 43.1951 33.2191 42.7465 33.2191H38.8342C39.0259 30.789 41.0181 28.8714 43.441 28.8714C45.9901 28.8714 48.0643 30.9939 48.0643 33.6033C48.0639 36.172 46.0536 38.2677 43.5591 38.3322Z" fill="#00525D"/>
<path d="M46.4598 40.5731C46.0108 40.5731 45.6472 40.9452 45.6472 41.4048C45.6472 41.864 46.0108 42.2365 46.4598 42.2365H48.2674C48.7164 42.2365 49.08 41.864 49.08 41.4048C49.08 40.9452 48.7164 40.5731 48.2674 40.5731H46.4598Z" fill="#00525D"/>
<path d="M49.08 43.5512C49.08 43.092 48.7164 42.7195 48.2674 42.7195H46.4598C46.0108 42.7195 45.6472 43.092 45.6472 43.5512C45.6472 44.0108 46.0108 44.3829 46.4598 44.3829H48.2674C48.7164 44.3829 49.08 44.0108 49.08 43.5512Z" fill="#00525D"/>
<path d="M14.925 26.8766H16.2251C16.6737 26.8766 17.0377 26.5045 17.0377 26.0449C17.0377 25.5858 16.6737 25.2133 16.2251 25.2133H14.925C14.4763 25.2133 14.1124 25.5858 14.1124 26.0449C14.1124 26.5045 14.4763 26.8766 14.925 26.8766Z" fill="#00525D"/>
<path d="M14.925 29.2998H21.1975C21.6466 29.2998 22.0101 28.9273 22.0101 28.4682C22.0101 28.0086 21.6466 27.6365 21.1975 27.6365H14.925C14.4763 27.6365 14.1124 28.0086 14.1124 28.4682C14.1124 28.9273 14.4763 29.2998 14.925 29.2998Z" fill="#00525D"/>
<path d="M19.8972 26.8766H21.1974C21.6464 26.8766 22.01 26.5045 22.01 26.0449C22.01 25.5858 21.6464 25.2133 21.1974 25.2133H19.8972C19.4486 25.2133 19.0847 25.5858 19.0847 26.0449C19.0847 26.5045 19.4486 26.8766 19.8972 26.8766Z" fill="#00525D"/>
<path d="M26.1697 25.2133H24.8696C24.421 25.2133 24.057 25.5858 24.057 26.0449C24.057 26.5045 24.421 26.8766 24.8696 26.8766H26.1697C26.6188 26.8766 26.9823 26.5045 26.9823 26.0449C26.9823 25.5858 26.6188 25.2133 26.1697 25.2133Z" fill="#00525D"/>
<path d="M14.925 31.7048H21.1975C21.6466 31.7048 22.0101 31.3322 22.0101 30.8731C22.0101 30.4135 21.6466 30.0414 21.1975 30.0414H14.925C14.4763 30.0414 14.1124 30.4135 14.1124 30.8731C14.1124 31.3322 14.4763 31.7048 14.925 31.7048Z" fill="#00525D"/>
<path d="M14.1124 33.2776C14.1124 33.7372 14.4763 34.1093 14.925 34.1093H24.8698C25.3189 34.1093 25.6824 33.7372 25.6824 33.2776C25.6824 32.8184 25.3189 32.4459 24.8698 32.4459H14.925C14.4763 32.4459 14.1124 32.8184 14.1124 33.2776Z" fill="#00525D"/>
<path d="M26.9826 35.6825C26.9826 35.2234 26.619 34.8508 26.17 34.8508H14.925C14.4763 34.8508 14.1124 35.2234 14.1124 35.6825C14.1124 36.1421 14.4763 36.5142 14.925 36.5142H26.17C26.619 36.5142 26.9826 36.1421 26.9826 35.6825Z" fill="#00525D"/>
<path d="M17.9768 39.5573C17.9768 39.0977 17.6128 38.7256 17.1642 38.7256H14.925C14.4763 38.7256 14.1124 39.0977 14.1124 39.5573V41.8487C14.1124 42.3083 14.4763 42.6804 14.925 42.6804H17.1642C17.6128 42.6804 17.9768 42.3083 17.9768 41.8487V39.5573ZM16.3516 41.0175H15.7375V40.389H16.3516V41.0175Z" fill="#00525D"/>
<path d="M23.3494 39.5573C23.3494 39.0977 22.9854 38.7256 22.5368 38.7256H20.2975C19.8489 38.7256 19.4849 39.0977 19.4849 39.5573V41.8487C19.4849 42.3083 19.8489 42.6804 20.2975 42.6804H22.5368C22.9854 42.6804 23.3494 42.3083 23.3494 41.8487V39.5573ZM21.7242 41.0175H21.1101V40.389H21.7242V41.0175Z" fill="#00525D"/>
<path d="M28.722 39.5573C28.722 39.0977 28.358 38.7256 27.9094 38.7256H25.6701C25.2211 38.7256 24.8575 39.0977 24.8575 39.5573V41.8487C24.8575 42.3083 25.2211 42.6804 25.6701 42.6804H27.9094C28.358 42.6804 28.722 42.3083 28.722 41.8487V39.5573ZM27.0968 41.0175H26.4827V40.389H27.0968V41.0175Z" fill="#00525D"/>
<path d="M17.1642 44.566H14.925C14.4763 44.566 14.1124 44.9381 14.1124 45.3977V47.6892C14.1124 48.1488 14.4763 48.5209 14.925 48.5209H17.1642C17.6128 48.5209 17.9768 48.1488 17.9768 47.6892V45.3977C17.9768 44.9381 17.6128 44.566 17.1642 44.566ZM16.3516 46.8575H15.7375V46.229H16.3516V46.8575Z" fill="#00525D"/>
<path d="M22.5368 44.5659H20.2975C19.8489 44.5659 19.4849 44.938 19.4849 45.3976V47.6891C19.4849 48.1487 19.8489 48.5208 20.2975 48.5208H22.5368C22.9854 48.5208 23.3494 48.1487 23.3494 47.6891V45.3976C23.3494 44.938 22.9854 44.5659 22.5368 44.5659ZM21.7242 46.8574H21.1101V46.2289H21.7242V46.8574Z" fill="#00525D"/>
<path d="M25.6701 48.5208H27.9094C28.358 48.5208 28.722 48.1487 28.722 47.6891V45.3972C28.722 44.9381 28.358 44.5656 27.9094 44.5656H25.6701C25.2211 44.5656 24.8575 44.9381 24.8575 45.3972V47.6891C24.8575 48.1487 25.2211 48.5208 25.6701 48.5208ZM26.4827 46.2294H27.0968V46.8575H26.4827V46.2294Z" fill="#00525D"/>
</g>
<defs>
<clipPath id="clip0_604_321">
<rect width="55.4726" height="56.7764" fill="white" transform="translate(0.081665 0.809814)"/>
</clipPath>
</defs>
</svg>
