<svg width="62" height="63" viewBox="0 0 62 63" fill="none" xmlns="http://www.w3.org/2000/svg">
<path d="M58.1752 34.5315H51.5461V31.8524L53.0783 28.7159H55.3341V26.7773H53.3842C53.1493 24.6462 52.1565 22.6781 50.595 21.248C49.0334 19.818 47.0123 19.026 44.917 19.0231V18.0539C44.917 17.7968 44.8172 17.5503 44.6396 17.3685C44.462 17.1867 44.2211 17.0846 43.9699 17.0846C43.7188 17.0846 43.4779 17.1867 43.3003 17.3685C43.1227 17.5503 43.0229 17.7968 43.0229 18.0539V19.0231C40.9276 19.026 38.9065 19.818 37.3449 21.248C35.7834 22.6781 34.7906 24.6462 34.5557 26.7773H32.6058V28.7159H34.8615L36.3938 31.8524V34.5315H25.0296V31.8524L26.5619 28.7159H28.8177V26.7773H26.8678C26.6329 24.6462 25.6401 22.6781 24.0785 21.248C22.517 19.818 20.4959 19.026 18.4005 19.0231V18.0539C18.4005 17.7968 18.3008 17.5503 18.1232 17.3685C17.9456 17.1867 17.7047 17.0846 17.4535 17.0846C17.2024 17.0846 16.9615 17.1867 16.7839 17.3685C16.6063 17.5503 16.5065 17.7968 16.5065 18.0539V19.0231C14.4111 19.026 12.3901 19.818 10.8285 21.248C9.26695 22.6781 8.27412 24.6462 8.03924 26.7773H6.08933V28.7159H8.34512L9.87739 31.8524V34.5315H3.24828C2.99712 34.5315 2.75624 34.6336 2.57864 34.8154C2.40104 34.9972 2.30127 35.2437 2.30127 35.5008V56.8248C2.30127 57.0819 2.40104 57.3284 2.57864 57.5102C2.75624 57.692 2.99712 57.7941 3.24828 57.7941C3.77662 57.7924 4.29978 57.9007 4.78591 58.1125C5.27205 58.3243 5.711 58.6351 6.07607 59.026C7.15693 60.101 8.60467 60.7024 10.1118 60.7024C11.6189 60.7024 13.0666 60.101 14.1475 59.026C14.5136 58.6366 14.9526 58.3268 15.4385 58.1152C15.9243 57.9036 16.4468 57.7946 16.9748 57.7946C17.5028 57.7946 18.0253 57.9036 18.5111 58.1152C18.997 58.3268 19.436 58.6366 19.8021 59.026C20.8831 60.1011 22.331 60.7024 23.8383 60.7024C25.3456 60.7024 26.7935 60.1011 27.8745 59.026C28.2409 58.6366 28.6804 58.3269 29.1665 58.1153C29.6526 57.9037 30.1754 57.7947 30.7037 57.7947C31.2319 57.7947 31.7547 57.9037 32.2409 58.1153C32.727 58.3269 33.1664 58.6366 33.5329 59.026C34.6143 60.101 36.0625 60.7022 37.57 60.7022C39.0775 60.7022 40.5257 60.101 41.6071 59.026C41.9736 58.6366 42.413 58.3269 42.8992 58.1153C43.3853 57.9037 43.9081 57.7947 44.4364 57.7947C44.9646 57.7947 45.4874 57.9037 45.9735 58.1153C46.4597 58.3269 46.8991 58.6366 47.2656 59.026C48.348 60.1008 49.7969 60.7019 51.305 60.7019C52.8132 60.7019 54.2621 60.1008 55.3445 59.026C55.7101 58.635 56.1496 58.3241 56.6362 58.1124C57.1228 57.9006 57.6464 57.7923 58.1752 57.7941C58.4263 57.7941 58.6672 57.692 58.8448 57.5102C59.0224 57.3284 59.1222 57.0819 59.1222 56.8248V35.5008C59.1222 35.2437 59.0224 34.9972 58.8448 34.8154C58.6672 34.6336 58.4263 34.5315 58.1752 34.5315ZM36.9791 28.7159H50.9608L50.0138 30.6544H37.9261L36.9791 28.7159ZM43.0229 20.9617H44.917C46.5106 20.9637 48.0503 21.5523 49.255 22.62C50.4597 23.6877 51.249 25.1633 51.4788 26.7773H36.4611C36.6909 25.1633 37.4802 23.6877 38.6849 22.62C39.8896 21.5523 41.4293 20.9637 43.0229 20.9617ZM38.2879 32.593H49.652V34.5315H38.2879V32.593ZM10.4626 28.7159H24.4444L23.4974 30.6544H11.4097L10.4626 28.7159ZM16.5065 20.9617H18.4005C19.9941 20.9637 21.5339 21.5523 22.7386 22.62C23.9433 23.6877 24.7326 25.1633 24.9624 26.7773H9.94463C10.1744 25.1633 10.9637 23.6877 12.1685 22.62C13.3732 21.5523 14.9129 20.9637 16.5065 20.9617ZM11.7714 32.593H23.1356V34.5315H11.7714V32.593ZM57.2282 55.9273C56.066 56.1397 54.9906 56.6976 54.1362 57.5314C53.6619 57.9903 53.1034 58.3484 52.4931 58.585V50.0399H50.5991V58.7013C49.795 58.53 49.0568 58.1236 48.4739 57.5314C47.7333 56.8249 46.8385 56.3098 45.864 56.029V46.1628H43.9699V55.8817C42.6305 55.997 41.3701 56.5785 40.3988 57.5295C40.0324 57.919 39.5929 58.2288 39.1068 58.4405C38.6207 58.6521 38.0978 58.7612 37.5695 58.7612C37.0413 58.7612 36.5184 58.6521 36.0323 58.4405C35.5461 58.2288 35.1067 57.919 34.7403 57.5295C33.884 56.7017 32.8105 56.1473 31.6512 55.934L31.6587 51.0092H29.7647L29.7571 55.937C28.5971 56.1489 27.523 56.7035 26.667 57.5324C26.1939 57.9893 25.6375 58.3463 25.0296 58.5831V44.2243H23.1356V58.7023C22.3316 58.531 21.5934 58.1246 21.0105 57.5324C20.2705 56.8246 19.3755 56.3087 18.4005 56.0281V47.1321H16.5065V55.8817C15.1682 55.9972 13.9091 56.5788 12.9391 57.5295C12.573 57.9189 12.1339 58.2287 11.6481 58.4403C11.1623 58.6519 10.6398 58.7609 10.1118 58.7609C9.5838 58.7609 9.06125 58.6519 8.57544 58.4403C8.08962 58.2287 7.65053 57.9189 7.28446 57.5295C6.43075 56.6966 5.35637 56.1394 4.1953 55.9273V36.4701H57.2282V55.9273Z" fill="#00525D"/>
<path d="M6.08936 47.1322H7.98339V40.3472H10.8244V38.4087H6.08936V47.1322Z" fill="#00525D"/>
<path d="M49.652 40.3472H53.44V44.2243H55.3341V38.4087H49.652V40.3472Z" fill="#00525D"/>
<path d="M52.4929 2.54553H8.93018C8.67901 2.54553 8.43813 2.64765 8.26053 2.82943C8.08293 3.0112 7.98316 3.25774 7.98316 3.51481V6.99062L2.57854 12.5223C2.44614 12.6578 2.35598 12.8305 2.31946 13.0185C2.28293 13.2065 2.30169 13.4013 2.37335 13.5784C2.44501 13.7555 2.56636 13.9069 2.72206 14.0134C2.87775 14.1199 3.06081 14.1768 3.24808 14.1768H58.175C58.3622 14.1768 58.5453 14.1199 58.701 14.0134C58.8567 13.9069 58.9781 13.7555 59.0497 13.5784C59.1214 13.4013 59.1401 13.2065 59.1036 13.0185C59.0671 12.8305 58.9769 12.6578 58.8445 12.5223L53.4399 6.99062V3.51481C53.4399 3.25774 53.3401 3.0112 53.1625 2.82943C52.9849 2.64765 52.744 2.54553 52.4929 2.54553ZM9.87719 4.48408H51.5459V6.42263H9.87719V4.48408ZM5.53418 12.2383L9.32224 8.36117H52.1008L55.8889 12.2383H5.53418Z" fill="#00525D"/>
</svg>
