<svg width="69" height="70" viewBox="0 0 69 70" fill="none" xmlns="http://www.w3.org/2000/svg">
<path d="M19.7851 27.3538C19.5041 27.3538 19.2347 27.468 19.036 27.6714C18.8373 27.8747 18.7257 28.1505 18.7257 28.4381V30.6066C18.7257 30.8942 18.8373 31.17 19.036 31.3733C19.2347 31.5767 19.5041 31.6909 19.7851 31.6909H26.1413C26.4223 31.6909 26.6917 31.5767 26.8904 31.3733C27.0891 31.17 27.2007 30.8942 27.2007 30.6066V24.101C27.2007 23.8134 27.0891 23.5376 26.8904 23.3343C26.6917 23.131 26.4223 23.0167 26.1413 23.0167H24.0226C23.7416 23.0167 23.4722 23.131 23.2735 23.3343C23.0748 23.5376 22.9632 23.8134 22.9632 24.101C22.9632 24.3886 23.0748 24.6644 23.2735 24.8677C23.4722 25.071 23.7416 25.1853 24.0226 25.1853H25.0819V29.5224H20.8445V28.4381C20.8445 28.1505 20.7328 27.8747 20.5342 27.6714C20.3355 27.468 20.066 27.3538 19.7851 27.3538Z" fill="#00525D"/>
<path d="M18.7257 42.5336C18.7257 42.8212 18.8373 43.097 19.036 43.3003C19.2347 43.5037 19.5041 43.6179 19.7851 43.6179H26.1413C26.4223 43.6179 26.6917 43.5037 26.8904 43.3003C27.0891 43.097 27.2007 42.8212 27.2007 42.5336V36.028C27.2007 35.7404 27.0891 35.4646 26.8904 35.2613C26.6917 35.058 26.4223 34.9437 26.1413 34.9437H19.7851C19.5041 34.9437 19.2347 35.058 19.036 35.2613C18.8373 35.4646 18.7257 35.7404 18.7257 36.028V42.5336ZM20.8445 37.1123H25.0819V41.4494H20.8445V37.1123Z" fill="#00525D"/>
<path d="M18.7257 54.4607C18.7257 54.7483 18.8373 55.0241 19.036 55.2274C19.2347 55.4307 19.5041 55.545 19.7851 55.545H26.1413C26.4223 55.545 26.6917 55.4307 26.8904 55.2274C27.0891 55.0241 27.2007 54.7483 27.2007 54.4607V50.5248L30.9932 47.7491C31.1946 47.5726 31.324 47.3253 31.3559 47.0559C31.3878 46.7866 31.3199 46.5148 31.1655 46.2942C31.0112 46.0736 30.7817 45.9203 30.5223 45.8644C30.2629 45.8086 29.9925 45.8543 29.7644 45.9925L27.2007 47.8683C27.1793 47.596 27.0584 47.3421 26.862 47.1571C26.6656 46.9722 26.4082 46.8699 26.1413 46.8708H19.7851C19.5041 46.8708 19.2347 46.985 19.036 47.1884C18.8373 47.3917 18.7257 47.6675 18.7257 47.9551V54.4607ZM25.0819 53.3764H20.8445V51.2079L22.1157 52.9427C22.2144 53.0774 22.3423 53.1867 22.4894 53.262C22.6365 53.3372 22.7987 53.3764 22.9632 53.3764C23.184 53.375 23.3988 53.3029 23.5776 53.1704L25.0819 52.0861V53.3764ZM25.0819 49.408L23.1857 50.7959L21.9038 49.0393H25.0819V49.408Z" fill="#00525D"/>
<path d="M32.4975 55.5449H43.0912C43.3722 55.5449 43.6416 55.4307 43.8403 55.2273C44.039 55.024 44.1506 54.7482 44.1506 54.4606C44.1506 54.173 44.039 53.8973 43.8403 53.6939C43.6416 53.4906 43.3722 53.3763 43.0912 53.3763H32.4975C32.2165 53.3763 31.9471 53.4906 31.7484 53.6939C31.5497 53.8973 31.4381 54.173 31.4381 54.4606C31.4381 54.7482 31.5497 55.024 31.7484 55.2273C31.9471 55.4307 32.2165 55.5449 32.4975 55.5449Z" fill="#00525D"/>
<path d="M32.4975 51.2079H37.7943C38.0753 51.2079 38.3448 51.0936 38.5434 50.8903C38.7421 50.6869 38.8537 50.4111 38.8537 50.1236C38.8537 49.836 38.7421 49.5602 38.5434 49.3569C38.3448 49.1535 38.0753 49.0393 37.7943 49.0393H32.4975C32.2165 49.0393 31.9471 49.1535 31.7484 49.3569C31.5497 49.5602 31.4381 49.836 31.4381 50.1236C31.4381 50.4111 31.5497 50.6869 31.7484 50.8903C31.9471 51.0936 32.2165 51.2079 32.4975 51.2079Z" fill="#00525D"/>
<path d="M43.0912 41.4493H32.4975C32.2165 41.4493 31.9471 41.5636 31.7484 41.7669C31.5497 41.9703 31.4381 42.246 31.4381 42.5336C31.4381 42.8212 31.5497 43.097 31.7484 43.3003C31.9471 43.5037 32.2165 43.6179 32.4975 43.6179H43.0912C43.3722 43.6179 43.6416 43.5037 43.8403 43.3003C44.039 43.097 44.1506 42.8212 44.1506 42.5336C44.1506 42.246 44.039 41.9703 43.8403 41.7669C43.6416 41.5636 43.3722 41.4493 43.0912 41.4493Z" fill="#00525D"/>
<path d="M32.4975 37.1123C32.2165 37.1123 31.9471 37.2265 31.7484 37.4299C31.5497 37.6332 31.4381 37.909 31.4381 38.1966C31.4381 38.4841 31.5497 38.7599 31.7484 38.9633C31.9471 39.1666 32.2165 39.2808 32.4975 39.2808H37.7943C38.0753 39.2808 38.3448 39.1666 38.5434 38.9633C38.7421 38.7599 38.8537 38.4841 38.8537 38.1966C38.8537 37.909 38.7421 37.6332 38.5434 37.4299C38.3448 37.2265 38.0753 37.1123 37.7943 37.1123H32.4975Z" fill="#00525D"/>
<path d="M42.0319 31.691C42.3128 31.691 42.5823 31.5768 42.781 31.3734C42.9796 31.1701 43.0913 30.8943 43.0913 30.6067C43.0913 30.3192 42.9796 30.0434 42.781 29.84C42.5823 29.6367 42.3128 29.5225 42.0319 29.5225H31.4382C31.1572 29.5225 30.8877 29.6367 30.6891 29.84C30.4904 30.0434 30.3788 30.3192 30.3788 30.6067C30.3788 30.8943 30.4904 31.1701 30.6891 31.3734C30.8877 31.5768 31.1572 31.691 31.4382 31.691H42.0319Z" fill="#00525D"/>
<path d="M31.4382 27.3538H38.8538C39.1347 27.3538 39.4042 27.2396 39.6029 27.0363C39.8015 26.8329 39.9131 26.5571 39.9131 26.2696C39.9131 25.982 39.8015 25.7062 39.6029 25.5029C39.4042 25.2995 39.1347 25.1853 38.8538 25.1853H31.4382C31.1572 25.1853 30.8877 25.2995 30.6891 25.5029C30.4904 25.7062 30.3788 25.982 30.3788 26.2696C30.3788 26.5571 30.4904 26.8329 30.6891 27.0363C30.8877 27.2396 31.1572 27.3538 31.4382 27.3538Z" fill="#00525D"/>
<path d="M53.6849 37.5352V39.7037C53.6849 39.9913 53.7965 40.2671 53.9952 40.4704C54.1939 40.6738 54.4633 40.788 54.7443 40.788C55.0253 40.788 55.2947 40.6738 55.4934 40.4704C55.6921 40.2671 55.8037 39.9913 55.8037 39.7037V37.5352C55.8037 37.2476 55.6921 36.9718 55.4934 36.7685C55.2947 36.5652 55.0253 36.4509 54.7443 36.4509C54.4633 36.4509 54.1939 36.5652 53.9952 36.7685C53.7965 36.9718 53.6849 37.2476 53.6849 37.5352Z" fill="#00525D"/>
<path d="M22.9632 13.2583H24.0226V16.5111C24.0226 16.7987 24.1342 17.0745 24.3328 17.2778C24.5315 17.4812 24.801 17.5954 25.0819 17.5954H44.1506C44.4316 17.5954 44.7011 17.4812 44.8997 17.2778C45.0984 17.0745 45.21 16.7987 45.21 16.5111V13.2583H53.685V14.7654C53.685 15.053 53.7966 15.3288 53.9953 15.5321C54.194 15.7355 54.4634 15.8497 54.7444 15.8497C55.0253 15.8497 55.2948 15.7355 55.4935 15.5321C55.6921 15.3288 55.8037 15.053 55.8037 14.7654V12.174C55.8037 11.8865 55.6921 11.6107 55.4935 11.4073C55.2948 11.204 55.0253 11.0898 54.7444 11.0898H45.21V7.83695C45.21 7.54938 45.0984 7.27359 44.8997 7.07025C44.7011 6.86691 44.4316 6.75268 44.1506 6.75268H39.8072C39.5641 5.52714 38.9144 4.42532 37.9684 3.6339C37.0224 2.84249 35.8381 2.41016 34.6163 2.41016C33.3945 2.41016 32.2102 2.84249 31.2642 3.6339C30.3181 4.42532 29.6685 5.52714 29.4254 6.75268H25.0819C24.801 6.75268 24.5315 6.86691 24.3328 7.07025C24.1342 7.27359 24.0226 7.54938 24.0226 7.83695V11.0898H22.9632C22.6822 11.0898 22.4128 11.204 22.2141 11.4073C22.0154 11.6107 21.9038 11.8865 21.9038 12.174C21.9038 12.4616 22.0154 12.7374 22.2141 12.9407C22.4128 13.1441 22.6822 13.2583 22.9632 13.2583ZM34.6163 4.58413C35.2738 4.58378 35.9152 4.79216 36.4522 5.18054C36.9891 5.56893 37.3951 6.11821 37.6143 6.75268H31.6183C31.8374 6.11821 32.2435 5.56893 32.7804 5.18054C33.3174 4.79216 33.9588 4.58378 34.6163 4.58413ZM26.1413 8.92122H43.0913V15.4269H26.1413V8.92122Z" fill="#00525D"/>
<path d="M64.8508 48.7249C64.7523 48.6233 64.6351 48.5426 64.5061 48.4876C64.377 48.4325 64.2385 48.4042 64.0986 48.4042C63.9588 48.4042 63.8203 48.4325 63.6912 48.4876C63.5621 48.5426 63.445 48.6233 63.3465 48.7249L59.6069 52.5524L56.6089 49.4839L60.3485 45.6564C60.4478 45.5556 60.5266 45.4357 60.5803 45.3036C60.6341 45.1714 60.6618 45.0297 60.6618 44.8866C60.6618 44.7434 60.6341 44.6017 60.5803 44.4696C60.5266 44.3375 60.4478 44.2176 60.3485 44.1168C59.3552 43.1004 58.0081 42.5295 56.6036 42.5295C55.199 42.5295 53.852 43.1004 52.8587 44.1168L49.8607 47.1852C49.1339 47.9321 48.6355 48.8796 48.4267 49.9118C48.2178 50.944 48.3075 52.0161 48.6848 52.9969L36.6609 65.3034H15.5476V31.279C15.5476 30.9914 15.436 30.7156 15.2373 30.5123C15.0386 30.3089 14.7692 30.1947 14.4882 30.1947C14.2072 30.1947 13.9378 30.3089 13.7391 30.5123C13.5404 30.7156 13.4288 30.9914 13.4288 31.279V66.3877C13.4288 66.6753 13.5404 66.9511 13.7391 67.1544C13.9378 67.3577 14.2072 67.472 14.4882 67.472H37.0952C37.237 67.4693 37.377 67.4399 37.5084 67.3852C37.6346 67.3324 37.7498 67.2551 37.8474 67.1575L49.8607 54.851L54.363 59.4592L48.3881 65.6179C48.2888 65.7187 48.21 65.8386 48.1562 65.9707C48.1025 66.1028 48.0748 66.2446 48.0748 66.3877C48.0748 66.5308 48.1025 66.6726 48.1562 66.8047C48.21 66.9368 48.2888 67.0567 48.3881 67.1575C48.4871 67.258 48.6045 67.3375 48.7336 67.3915C48.8627 67.4454 49.0009 67.4728 49.1403 67.472C49.4182 67.4708 49.6845 67.3578 49.8819 67.1575L56.2381 60.6519C56.8521 60.9003 57.506 61.029 58.1661 61.0314C58.8622 61.0327 59.5517 60.8935 60.1952 60.6219C60.8387 60.3503 61.4235 59.9515 61.9163 59.4484L64.9144 56.3799C65.8957 55.3551 66.4401 53.9739 66.4282 52.5389C66.4163 51.104 65.8491 49.7325 64.8508 48.7249ZM63.3465 54.851L60.3485 57.9195C59.7526 58.5287 58.9448 58.8708 58.1026 58.8708C57.2604 58.8708 56.4526 58.5287 55.8567 57.9195L51.365 53.3764C50.7698 52.7665 50.4355 51.9398 50.4355 51.0778C50.4355 50.2158 50.7698 49.389 51.365 48.7791L54.363 45.7106C54.6534 45.3987 55.0015 45.1489 55.3871 44.9758C55.7726 44.8027 56.1879 44.7097 56.6089 44.7023C57.0813 44.7042 57.5477 44.8115 57.9755 45.0167L54.363 48.7249C54.1657 48.9281 54.0549 49.2029 54.0549 49.4893C54.0549 49.7758 54.1657 50.0506 54.363 50.2537L58.8547 54.851C59.0532 55.053 59.3217 55.1663 59.6016 55.1663C59.8815 55.1663 60.15 55.053 60.3485 54.851L63.9715 51.2079C64.2412 51.8083 64.3258 52.4784 64.2142 53.1293C64.1025 53.7801 63.7999 54.3806 63.3465 54.851Z" fill="#00525D"/>
<path d="M50.6129 58.6893C50.4145 58.4874 50.146 58.374 49.8661 58.374C49.5862 58.374 49.3177 58.4874 49.1192 58.6893L42.3392 65.6178C42.2399 65.7186 42.1611 65.8385 42.1074 65.9707C42.0536 66.1028 42.0259 66.2445 42.0259 66.3877C42.0259 66.5308 42.0536 66.6725 42.1074 66.8046C42.1611 66.9368 42.2399 67.0567 42.3392 67.1575C42.4377 67.2591 42.5549 67.3398 42.684 67.3948C42.8131 67.4499 42.9515 67.4782 43.0914 67.4782C43.2312 67.4782 43.3697 67.4499 43.4988 67.3948C43.6279 67.3398 43.7451 67.2591 43.8435 67.1575L50.6129 60.2181C50.8102 60.015 50.921 59.7402 50.921 59.4537C50.921 59.1673 50.8102 58.8925 50.6129 58.6893Z" fill="#00525D"/>
<path d="M15.4734 27.3539V25.5323C15.8418 25.3591 16.196 25.1561 16.5328 24.9251L18.0794 25.8359C18.3227 25.9773 18.6107 26.0144 18.8806 25.9393C19.1505 25.8641 19.3804 25.6827 19.5202 25.4347L21.6389 21.6831C21.7094 21.56 21.7555 21.4239 21.7745 21.2825C21.7934 21.1412 21.785 20.9974 21.7495 20.8594C21.7141 20.7214 21.6524 20.5919 21.568 20.4784C21.4836 20.3648 21.3781 20.2694 21.2576 20.1977L19.7109 19.2869C19.7533 18.8833 19.7533 18.4762 19.7109 18.0725L21.2576 17.1617C21.3781 17.09 21.4836 16.9946 21.568 16.8811C21.6524 16.7675 21.7141 16.638 21.7495 16.5C21.785 16.362 21.7934 16.2182 21.7745 16.0769C21.7555 15.9355 21.7094 15.7994 21.6389 15.6763L19.5202 11.9247C19.3804 11.6767 19.1505 11.4953 18.8806 11.4202C18.6107 11.345 18.3227 11.3822 18.0794 11.5235L16.5328 12.4343C16.196 12.2033 15.8418 12.0003 15.4734 11.8271V10.0055C15.4734 9.71797 15.3618 9.44218 15.1631 9.23884C14.9644 9.0355 14.695 8.92126 14.414 8.92126H10.1765C9.89556 8.92126 9.62611 9.0355 9.42743 9.23884C9.22876 9.44218 9.11715 9.71797 9.11715 10.0055V11.8271C8.74902 12.0008 8.39481 12.2038 8.05778 12.4343L6.54287 11.5235C6.42196 11.4518 6.28839 11.4053 6.14985 11.3867C6.0113 11.3681 5.87053 11.3777 5.73563 11.415C5.60073 11.4522 5.47437 11.5165 5.36382 11.604C5.25328 11.6915 5.16074 11.8005 5.09153 11.9247L2.97279 15.6763C2.90274 15.8 2.85731 15.9367 2.83911 16.0785C2.8209 16.2203 2.83029 16.3644 2.86672 16.5025C2.90315 16.6406 2.96591 16.7699 3.05139 16.883C3.13686 16.9962 3.24336 17.0909 3.36475 17.1617L4.95381 18.0725V18.6797C4.95381 18.6797 4.95381 19.0809 4.95381 19.2869L3.36475 20.1977C3.24336 20.2685 3.13686 20.3632 3.05139 20.4764C2.96591 20.5895 2.90315 20.7189 2.86672 20.8569C2.83029 20.995 2.8209 21.1391 2.83911 21.2809C2.85731 21.4227 2.90274 21.5594 2.97279 21.6831L5.09153 25.4347C5.23201 25.6849 5.46385 25.8677 5.73602 25.943C5.87079 25.9802 6.01141 25.9899 6.14985 25.9716C6.28829 25.9532 6.42184 25.9071 6.54287 25.8359C6.66391 25.7647 6.77006 25.6698 6.85526 25.5566C6.94046 25.4435 7.00304 25.3142 7.03944 25.1763C7.07584 25.0383 7.08533 24.8944 7.06739 24.7527C7.04944 24.611 7.0044 24.4743 6.93484 24.3505L5.34578 21.5313L6.57466 20.8483C6.77009 20.7315 6.92387 20.5538 7.01347 20.3411C7.10307 20.1284 7.12378 19.892 7.07256 19.6664C6.94556 19.015 6.94556 18.3444 7.07256 17.693C7.12378 17.4674 7.10307 17.231 7.01347 17.0183C6.92387 16.8056 6.77009 16.6279 6.57466 16.5112L5.34578 15.7847L6.40516 13.8981L7.63403 14.6354C7.8242 14.7469 8.0435 14.7954 8.2617 14.774C8.4799 14.7527 8.68625 14.6625 8.85231 14.5161C9.34767 14.0868 9.9147 13.7525 10.5261 13.5294C10.7328 13.4555 10.9121 13.3177 11.0392 13.1352C11.1663 12.9527 11.235 12.7343 11.2359 12.5102V11.0898H13.3546V12.5536C13.3547 12.7764 13.4219 12.9938 13.547 13.1762C13.6721 13.3585 13.8491 13.497 14.0538 13.5728C14.6675 13.7909 15.2354 14.1257 15.7276 14.5595C15.8937 14.7059 16.1001 14.796 16.3183 14.8174C16.5364 14.8387 16.7557 14.7903 16.9459 14.6787L18.1854 13.9414L19.2448 15.8281L18.0053 16.5112C17.8159 16.6238 17.6654 16.7938 17.5743 16.9977C17.4832 17.2016 17.4562 17.4294 17.4968 17.6497C17.6238 18.301 17.6238 18.9717 17.4968 19.623C17.4364 19.856 17.4536 20.103 17.5457 20.3249C17.6378 20.5468 17.7995 20.731 18.0053 20.8483L19.2448 21.5747L18.1854 23.4613L16.9459 22.724C16.7557 22.6125 16.5364 22.564 16.3183 22.5854C16.1001 22.6068 15.8937 22.6969 15.7276 22.8433C15.2354 23.2771 14.6675 23.6119 14.0538 23.83C13.8491 23.9058 13.6721 24.0443 13.547 24.2266C13.4219 24.409 13.3547 24.6264 13.3546 24.8492V26.2696H11.2359V24.8058C11.2359 24.5183 11.1243 24.2425 10.9256 24.0392C10.7269 23.8358 10.4575 23.7216 10.1765 23.7216C9.89556 23.7216 9.62611 23.8358 9.42743 24.0392C9.22876 24.2425 9.11715 24.5183 9.11715 24.8058V27.3539C9.11715 27.6415 9.22876 27.9172 9.42743 28.1206C9.62611 28.3239 9.89556 28.4382 10.1765 28.4382H14.414C14.695 28.4382 14.9644 28.3239 15.1631 28.1206C15.3618 27.9172 15.4734 27.6415 15.4734 27.3539Z" fill="#00525D"/>
<path d="M12.2953 21.9325C12.9239 21.9325 13.5383 21.7417 14.061 21.3843C14.5836 21.0269 14.991 20.5189 15.2315 19.9245C15.472 19.3301 15.535 18.6761 15.4124 18.0451C15.2897 17.4141 14.987 16.8345 14.5426 16.3796C14.0981 15.9247 13.5318 15.6149 12.9153 15.4894C12.2988 15.3639 11.6598 15.4283 11.0791 15.6745C10.4984 15.9207 10.002 16.3376 9.6528 16.8725C9.30358 17.4075 9.11719 18.0364 9.11719 18.6797C9.11719 19.5424 9.45202 20.3698 10.048 20.9798C10.6441 21.5898 11.4524 21.9325 12.2953 21.9325ZM12.2953 17.5954C12.5048 17.5954 12.7096 17.659 12.8839 17.7782C13.0581 17.8973 13.1939 18.0666 13.274 18.2648C13.3542 18.4629 13.3752 18.6809 13.3343 18.8912C13.2934 19.1016 13.1926 19.2948 13.0444 19.4464C12.8962 19.598 12.7075 19.7013 12.502 19.7431C12.2965 19.785 12.0835 19.7635 11.8899 19.6814C11.6963 19.5994 11.5309 19.4604 11.4145 19.2821C11.2981 19.1038 11.2359 18.8941 11.2359 18.6797C11.2359 18.3921 11.3475 18.1163 11.5462 17.913C11.7449 17.7097 12.0143 17.5954 12.2953 17.5954Z" fill="#00525D"/>
<path d="M46.6825 34.4992C46.6234 34.6067 46.584 34.7242 46.5659 34.8462L45.7502 40.6253C45.722 40.8384 45.7562 41.0552 45.8487 41.2483C45.9411 41.4413 46.0875 41.6019 46.2693 41.7096C46.4308 41.8033 46.6134 41.8519 46.799 41.8506C47.0367 41.8522 47.268 41.772 47.4558 41.6229L51.937 38.0122C51.9678 37.9861 51.9962 37.9571 52.0217 37.9255L52.1171 37.7954V37.7412L62.7108 18.9616L63.7702 17.0858C63.9791 16.7156 64.1147 16.307 64.1691 15.8832C64.2236 15.4593 64.196 15.0287 64.0878 14.6158C63.9795 14.203 63.7929 13.816 63.5384 13.477C63.284 13.138 62.9667 12.8537 62.6048 12.6403C62.2432 12.4265 61.8439 12.2877 61.4298 12.2319C61.0158 12.1761 60.595 12.2044 60.1916 12.3152C59.7882 12.426 59.4101 12.617 59.0789 12.8775C58.7477 13.1379 58.4699 13.4626 58.2614 13.833L57.202 15.7088L46.6083 34.4884C46.618 34.498 46.6303 34.5042 46.6437 34.5061C46.657 34.5081 46.6706 34.5057 46.6825 34.4992ZM48.441 36.7436L49.3945 37.3075L48.2292 38.2508L48.441 36.7436ZM60.1789 14.8847C60.3194 14.6345 60.5512 14.4517 60.8234 14.3765C61.0956 14.3012 61.3858 14.3398 61.6302 14.4835C61.8747 14.6273 62.0533 14.8646 62.1268 15.1432C62.2003 15.4218 62.1627 15.7188 62.0222 15.969L61.4925 16.9123L60.5709 16.3702L59.6492 15.828L60.1789 14.8847ZM58.5898 17.7038L59.5115 18.246L60.4331 18.7881L50.8988 35.6919L49.9771 35.1498L49.0555 34.6076L58.5898 17.7038Z" fill="#00525D"/>
</svg>
