<svg width="63" height="65" viewBox="0 0 63 65" fill="none" xmlns="http://www.w3.org/2000/svg">
<g clip-path="url(#clip0_604_282)">
<path d="M61.422 31.5825H46.8848V29.48H50.807C51.3056 29.48 51.7099 29.0662 51.7099 28.5559C51.7099 28.0455 51.3056 27.6318 50.807 27.6318H46.8848V25.5292H49.6079C50.6223 25.5292 51.5761 25.1249 52.2934 24.3907L58.2314 18.3131C58.6183 18.5104 59.0472 18.6154 59.4921 18.6154C60.2489 18.6154 60.9602 18.3138 61.4953 17.7662C62.0304 17.2185 62.3251 16.4905 62.3251 15.7159C62.3251 14.9414 62.0304 14.2134 61.4953 13.6657C60.9603 13.118 60.2489 12.8164 59.4921 12.8164C58.7354 12.8164 58.0241 13.118 57.489 13.6656C56.9539 14.2132 56.6592 14.9413 56.6592 15.7158C56.6592 16.1712 56.7617 16.6102 56.9545 17.0062L51.0165 23.0838C50.6403 23.4688 50.14 23.681 49.6078 23.681H46.8847V21.6421C46.8847 18.9541 44.748 16.7673 42.1219 16.7673H40.1298V8.58664C41.2503 8.19987 42.0598 7.11474 42.0598 5.839C42.0598 4.2402 40.7889 2.93957 39.2269 2.93957C37.6649 2.93957 36.3941 4.24032 36.3941 5.839C36.3941 7.11474 37.2035 8.19975 38.324 8.58664V16.7672H36.2698V12.7528C36.2698 12.2425 35.8656 11.8287 35.3669 11.8287C34.8683 11.8287 34.4641 12.2425 34.4641 12.7528V16.7672H32.4097V1.88833C32.4097 1.37798 32.0055 0.964233 31.5069 0.964233C31.0082 0.964233 30.604 1.37798 30.604 1.88833V16.7672H28.5498V12.7528C28.5498 12.2425 28.1455 11.8287 27.6469 11.8287C27.1483 11.8287 26.744 12.2425 26.744 12.7528V16.7672H24.6898V13.9803C24.6898 12.9419 24.2947 11.9657 23.5774 11.2316L17.6373 5.15197C18.1621 4.06758 17.9862 2.71545 17.1051 1.81354C16.0005 0.683063 14.2033 0.683186 13.0988 1.81354C11.9943 2.94401 11.9943 4.78344 13.0988 5.91404C13.6511 6.47921 14.3765 6.76186 15.1019 6.76186C15.5339 6.76186 15.9651 6.65923 16.3605 6.45876L22.3006 12.5385C22.6769 12.9236 22.8841 13.4357 22.8841 13.9803V16.7672H20.892C20.4893 16.7672 20.0888 16.8189 19.7016 16.9208C19.2188 17.048 18.9281 17.5518 19.0523 18.0461C19.1765 18.5405 19.6689 18.838 20.1518 18.7107C20.3919 18.6475 20.6409 18.6154 20.8919 18.6154H42.1219C43.7525 18.6154 45.079 19.9732 45.079 21.642V43.3711C45.079 43.6277 45.0477 43.8824 44.986 44.128C44.8619 44.6223 45.1527 45.126 45.6356 45.253C45.711 45.2728 45.7866 45.2823 45.8611 45.2823C46.2633 45.2823 46.6301 45.0052 46.7348 44.588C46.8343 44.1923 46.8847 43.7827 46.8847 43.3709V41.332H54.8774C55.2553 42.4789 56.3155 43.3074 57.5619 43.3074C59.124 43.3074 60.3948 42.0067 60.3948 40.4079C60.3948 38.8091 59.1239 37.5085 57.5619 37.5085C56.3155 37.5085 55.2554 38.337 54.8774 39.4838H46.8847V37.3812H50.8069C51.3055 37.3812 51.7098 36.9675 51.7098 36.4571C51.7098 35.9468 51.3055 35.533 50.8069 35.533H46.8847V33.4307H61.422C61.9206 33.4307 62.3249 33.0169 62.3249 32.5066C62.3249 31.9962 61.9206 31.5825 61.422 31.5825ZM58.7658 14.9726C58.9598 14.774 59.2177 14.6647 59.492 14.6647C59.7664 14.6647 60.0242 14.774 60.2183 14.9726C60.4124 15.1712 60.5191 15.4351 60.5191 15.7159C60.5191 15.9967 60.4124 16.2607 60.2183 16.4593C60.0242 16.6579 59.7664 16.7672 59.492 16.7672C59.2177 16.7672 58.9598 16.6579 58.7658 16.4593C58.5717 16.2607 58.4649 15.9967 58.4649 15.7159C58.4649 15.4351 58.5717 15.1711 58.7658 14.9726ZM15.8281 4.60725C15.4277 5.01693 14.7761 5.01705 14.3754 4.60713C13.9749 4.1972 13.9749 3.53025 14.3754 3.12045C14.5757 2.91542 14.8387 2.81303 15.1018 2.81303C15.3649 2.81303 15.6279 2.91555 15.8281 3.12045C16.2286 3.53038 16.2286 4.19732 15.8281 4.60725ZM39.2269 6.89025C38.6606 6.89025 38.1998 6.41859 38.1998 5.839C38.1998 5.25941 38.6605 4.78776 39.2269 4.78776C39.7933 4.78776 40.254 5.25941 40.254 5.839C40.254 6.41859 39.7932 6.89025 39.2269 6.89025ZM57.562 39.3568C58.1285 39.3568 58.5892 39.8285 58.5892 40.4081C58.5892 40.9878 58.1283 41.4593 57.562 41.4593C56.9958 41.4593 56.5349 40.9876 56.5349 40.4081C56.5348 39.8283 56.9957 39.3568 57.562 39.3568Z" fill="#00525D"/>
<path d="M49.9147 59.0992C49.0336 58.1973 47.7124 58.0173 46.6529 58.5544L40.7129 52.4746C40.3366 52.0895 40.1294 51.5775 40.1294 51.0329V48.2459H42.1215C42.5242 48.2459 42.9245 48.1942 43.3116 48.0923C43.7944 47.9651 44.0852 47.4613 43.9609 46.967C43.8367 46.4728 43.3447 46.1752 42.8615 46.3024C42.6214 46.3656 42.3725 46.3976 42.1215 46.3976H20.8915C19.2609 46.3976 17.9344 45.0398 17.9344 43.371V21.6421C17.9344 21.3852 17.9657 21.1304 18.0275 20.8848C18.1518 20.3906 17.8611 19.8868 17.3782 19.7595C16.8953 19.6322 16.403 19.9298 16.2788 20.424C16.1791 20.82 16.1287 21.2298 16.1287 21.6421V23.681H8.13584C7.75796 22.5341 6.69775 21.7057 5.4513 21.7057C3.88922 21.7057 2.61845 23.0063 2.61845 24.6051C2.61845 26.2039 3.88934 27.5045 5.4513 27.5045C6.69775 27.5045 7.75784 26.676 8.13584 25.5292H16.1285V27.6318H12.2063C11.7077 27.6318 11.3035 28.0455 11.3035 28.5559C11.3035 29.0662 11.7077 29.48 12.2063 29.48H16.1285V31.5825H1.59135C1.09272 31.5825 0.688477 31.9962 0.688477 32.5066C0.688477 33.0169 1.09272 33.4307 1.59135 33.4307H16.1285V35.5331H12.2063C11.7077 35.5331 11.3035 35.9469 11.3035 36.4572C11.3035 36.9676 11.7077 37.3813 12.2063 37.3813H16.1285V39.4839H13.4055C12.391 39.4839 11.4372 39.8882 10.72 40.6224L4.78197 46.7C4.39506 46.5027 3.96614 46.3978 3.5212 46.3978C2.76448 46.3978 2.05314 46.6994 1.51803 47.2469C0.983174 47.7946 0.688477 48.5228 0.688477 49.2972C0.688477 50.0716 0.983174 50.7998 1.51828 51.3474C2.05326 51.8951 2.76472 52.1966 3.52145 52.1966C4.27817 52.1966 4.98951 51.895 5.52462 51.3474C6.05972 50.7998 6.35441 50.0717 6.35441 49.2972C6.35441 48.8418 6.25185 48.4028 6.05912 48.0068L11.9971 41.9292C12.3733 41.5442 12.8736 41.332 13.4058 41.332H16.1289V43.3709C16.1289 46.0589 18.2656 48.2457 20.8917 48.2457H22.8838V56.4263C21.7633 56.813 20.9538 57.8981 20.9538 59.1739C20.9538 60.7727 22.2247 62.0733 23.7867 62.0733C25.3487 62.0733 26.6195 60.7726 26.6195 59.1739C26.6195 57.8981 25.8101 56.8131 24.6896 56.4263V48.2457H26.7438V52.2601C26.7438 52.7704 27.148 53.1842 27.6466 53.1842C28.1453 53.1842 28.5495 52.7704 28.5495 52.2601V48.2457H30.6036V63.1248C30.6036 63.6352 31.0079 64.0489 31.5065 64.0489C32.0051 64.0489 32.4094 63.6352 32.4094 63.1248V48.2459H34.4636V52.2603C34.4636 52.7707 34.8678 53.1844 35.3664 53.1844C35.8651 53.1844 36.2693 52.7707 36.2693 52.2603V48.2459H38.3235V51.0329C38.3235 52.0712 38.7186 53.0474 39.436 53.7815L45.376 59.8612C44.8513 60.9455 45.0272 62.2977 45.9084 63.1996C46.4606 63.7649 47.1861 64.0474 47.9115 64.0474C48.637 64.0474 49.3625 63.7649 49.9147 63.1996C51.0192 62.0691 51.0192 60.2297 49.9147 59.0992ZM5.4513 25.6563C4.8849 25.6563 4.4242 25.1847 4.4242 24.6051C4.4242 24.0254 4.88502 23.5538 5.4513 23.5538C6.01758 23.5538 6.47841 24.0255 6.47841 24.6051C6.47853 25.1848 6.0177 25.6563 5.4513 25.6563ZM4.2476 50.0405C4.05354 50.2391 3.79568 50.3484 3.52133 50.3484C3.24697 50.3484 2.98911 50.2391 2.79506 50.0405C2.601 49.8419 2.49422 49.578 2.49422 49.2972C2.49422 49.0164 2.601 48.7525 2.79506 48.5538C2.98911 48.3552 3.24697 48.2459 3.52133 48.2459C3.79568 48.2459 4.05354 48.3552 4.2476 48.5538C4.44165 48.7525 4.54843 49.0164 4.54843 49.2972C4.54843 49.578 4.44165 49.842 4.2476 50.0405ZM24.8136 59.1741C24.8136 59.7537 24.3529 60.2254 23.7865 60.2254C23.22 60.2254 22.7593 59.7537 22.7593 59.1741C22.7593 58.5945 23.2202 58.1229 23.7865 58.1229C24.3527 58.1229 24.8136 58.5945 24.8136 59.1741ZM48.6379 61.8928C48.2374 62.3027 47.5858 62.3026 47.1853 61.8928C46.7847 61.4829 46.7847 60.8159 47.1853 60.4061C47.3856 60.2012 47.6486 60.0987 47.9117 60.0987C48.1747 60.0987 48.4377 60.2012 48.6379 60.4061C49.0383 60.8159 49.0383 61.4829 48.6379 61.8928Z" fill="#00525D"/>
<path d="M41.0946 30.0375C41.0946 28.0612 39.6823 26.3871 37.7488 25.8432C37.806 25.6015 37.8378 25.353 37.8378 25.0991C37.8378 23.228 36.2151 21.7057 34.2209 21.7057C33.1406 21.7057 32.1701 22.1528 31.5068 22.8596C30.8435 22.1528 29.873 21.7057 28.7928 21.7057C26.7984 21.7057 25.1759 23.228 25.1759 25.0991C25.1759 25.353 25.2077 25.6015 25.2649 25.8432C23.3314 26.387 21.9191 28.0611 21.9191 30.0375C21.9191 31.0034 22.253 31.9147 22.87 32.6673C22.2667 33.4665 21.9191 34.4368 21.9191 35.4698C21.9188 37.0411 22.7391 38.5081 24.0902 39.4182C24.0902 39.4189 24.0902 39.4197 24.0902 39.4204C24.0902 41.5638 25.9562 43.3076 28.25 43.3076C29.5682 43.3076 30.7442 42.7311 31.5068 41.8344C32.2695 42.7311 33.4455 43.3076 34.7637 43.3076C36.9711 43.3076 38.7816 41.6923 38.9147 39.6603C40.2554 38.8641 41.0946 37.4695 41.0946 35.9636C41.0946 34.8559 40.6332 33.7992 39.839 33.0006C40.6331 32.2019 41.0946 31.1451 41.0946 30.0375ZM37.8992 33.8177C38.7692 34.2876 39.2885 35.0899 39.2885 35.9636C39.2885 36.615 38.9927 37.2363 38.4931 37.701C38.0185 36.8014 37.1795 36.0853 36.1195 35.7445C35.644 35.5916 35.1371 35.8623 34.9876 36.3491C34.8381 36.836 35.1027 37.3547 35.5783 37.5077C36.4988 37.8037 37.1173 38.5725 37.1173 39.4205C37.1173 40.5448 36.0613 41.4596 34.7632 41.4596C33.4652 41.4596 32.4092 40.5448 32.4092 39.4205V33.4944C32.4092 32.3701 33.4652 31.4555 34.7632 31.4555C35.2618 31.4555 35.6661 31.0417 35.6661 30.5314C35.6661 30.021 35.2618 29.6073 34.7632 29.6073C33.8899 29.6073 33.079 29.8606 32.4092 30.292V29.1116C32.4092 28.6013 32.005 28.1875 31.5064 28.1875C31.0077 28.1875 30.6035 28.6013 30.6035 29.1116V34.2418C30.2996 34.0466 29.9664 33.8851 29.606 33.7691C29.13 33.6161 28.6234 33.8869 28.474 34.3736C28.3245 34.8606 28.589 35.3793 29.0646 35.5323C29.9851 35.8284 30.6035 36.5971 30.6035 37.4451V39.4204C30.6035 40.5447 29.5475 41.4594 28.2495 41.4594C26.9514 41.4594 25.8954 40.5447 25.8954 39.4204C25.8954 38.9385 26.095 38.4701 26.4574 38.1014C26.8111 37.7416 26.8127 37.1565 26.4612 36.7945C26.1097 36.4325 25.5381 36.4308 25.1845 36.7906C24.9681 37.0107 24.7819 37.2513 24.6271 37.5069C24.0569 36.9549 23.7241 36.2287 23.7241 35.4696C23.7241 34.1005 24.7739 32.8977 26.2772 32.5447C26.7632 32.4306 27.0668 31.9348 26.9553 31.4374C26.8438 30.9398 26.3593 30.6292 25.8734 30.7433C25.2682 30.8854 24.7111 31.1226 24.2171 31.4339C23.8967 31.0221 23.7242 30.5399 23.7242 30.0373C23.7246 28.6473 25.0119 27.5158 26.5989 27.505C26.607 27.5053 26.6151 27.5064 26.623 27.5064C26.8291 27.5064 27.0363 27.4346 27.2059 27.2876C27.552 26.9877 27.6215 26.4788 27.3891 26.096C27.3823 26.0847 27.376 26.0731 27.3688 26.0621C27.3651 26.0566 27.3606 26.0513 27.3568 26.0457C27.3428 26.0256 27.3285 26.0059 27.3129 25.9869C27.3125 25.9863 27.3121 25.9857 27.3116 25.9852C27.161 25.803 26.9813 25.5014 26.9813 25.099C26.9813 24.2469 27.7939 23.5537 28.7924 23.5537C29.791 23.5537 30.6036 24.2469 30.6036 25.099C30.6036 25.6093 31.0079 26.023 31.5065 26.023C32.0051 26.023 32.4093 25.6093 32.4093 25.099C32.4093 24.2469 33.2219 23.5537 34.2205 23.5537C35.2191 23.5537 36.0317 24.2469 36.0317 25.099C36.0317 25.3267 35.9734 25.5208 35.8962 25.6805C35.3827 25.7302 34.886 25.8572 34.4144 26.0607C33.9549 26.259 33.7396 26.801 33.9333 27.2713C34.127 27.7415 34.6565 27.9622 35.116 27.7638C35.5063 27.5954 35.9262 27.5087 36.3642 27.5053C36.3728 27.5055 36.3814 27.5064 36.39 27.5064C36.3981 27.5064 36.4061 27.5053 36.4141 27.505C38.0011 27.5156 39.2885 28.6473 39.2885 30.0373C39.2885 30.911 38.7692 31.7131 37.8992 32.1832C37.603 32.3431 37.4176 32.6577 37.4176 33.0004C37.4176 33.3432 37.603 33.6578 37.8992 33.8177Z" fill="#00525D"/>
</g>
<defs>
<clipPath id="clip0_604_282">
<rect width="61.6363" height="63.0849" fill="white" transform="translate(0.688477 0.964111)"/>
</clipPath>
</defs>
</svg>
