<svg width="254" height="444" viewBox="0 0 254 444" fill="none" xmlns="http://www.w3.org/2000/svg">
<rect x="0.0351562" y="0.886719" width="253.263" height="442.603" fill="#00525D"/>
<path d="M51.483 72.1924C51.483 72.7124 51.303 73.1524 50.943 73.5124C50.603 73.8524 50.173 74.0224 49.653 74.0224C49.133 74.0224 48.693 73.8524 48.333 73.5124C47.993 73.1524 47.823 72.7124 47.823 72.1924C47.823 71.6724 47.993 71.2424 48.333 70.9024C48.693 70.5624 49.133 70.3924 49.653 70.3924C50.173 70.3924 50.603 70.5624 50.943 70.9024C51.303 71.2424 51.483 71.6724 51.483 72.1924ZM63.2814 72.1924C63.2814 72.7124 63.1014 73.1524 62.7414 73.5124C62.4014 73.8524 61.9714 74.0224 61.4514 74.0224C60.9314 74.0224 60.4914 73.8524 60.1314 73.5124C59.7914 73.1524 59.6214 72.7124 59.6214 72.1924C59.6214 71.6724 59.7914 71.2424 60.1314 70.9024C60.4914 70.5624 60.9314 70.3924 61.4514 70.3924C61.9714 70.3924 62.4014 70.5624 62.7414 70.9024C63.1014 71.2424 63.2814 71.6724 63.2814 72.1924ZM75.0799 72.1924C75.0799 72.7124 74.8999 73.1524 74.5399 73.5124C74.1999 73.8524 73.7699 74.0224 73.2499 74.0224C72.7299 74.0224 72.2899 73.8524 71.9299 73.5124C71.5899 73.1524 71.4199 72.7124 71.4199 72.1924C71.4199 71.6724 71.5899 71.2424 71.9299 70.9024C72.2899 70.5624 72.7299 70.3924 73.2499 70.3924C73.7699 70.3924 74.1999 70.5624 74.5399 70.9024C74.8999 71.2424 75.0799 71.6724 75.0799 72.1924ZM86.8783 72.1924C86.8783 72.7124 86.6983 73.1524 86.3383 73.5124C85.9983 73.8524 85.5683 74.0224 85.0483 74.0224C84.5283 74.0224 84.0883 73.8524 83.7283 73.5124C83.3883 73.1524 83.2183 72.7124 83.2183 72.1924C83.2183 71.6724 83.3883 71.2424 83.7283 70.9024C84.0883 70.5624 84.5283 70.3924 85.0483 70.3924C85.5683 70.3924 85.9983 70.5624 86.3383 70.9024C86.6983 71.2424 86.8783 71.6724 86.8783 72.1924ZM51.483 86.1924C51.483 86.7124 51.303 87.1524 50.943 87.5124C50.603 87.8524 50.173 88.0224 49.653 88.0224C49.133 88.0224 48.693 87.8524 48.333 87.5124C47.993 87.1524 47.823 86.7124 47.823 86.1924C47.823 85.6724 47.993 85.2424 48.333 84.9024C48.693 84.5624 49.133 84.3924 49.653 84.3924C50.173 84.3924 50.603 84.5624 50.943 84.9024C51.303 85.2424 51.483 85.6724 51.483 86.1924ZM63.2814 86.1924C63.2814 86.7124 63.1014 87.1524 62.7414 87.5124C62.4014 87.8524 61.9714 88.0224 61.4514 88.0224C60.9314 88.0224 60.4914 87.8524 60.1314 87.5124C59.7914 87.1524 59.6214 86.7124 59.6214 86.1924C59.6214 85.6724 59.7914 85.2424 60.1314 84.9024C60.4914 84.5624 60.9314 84.3924 61.4514 84.3924C61.9714 84.3924 62.4014 84.5624 62.7414 84.9024C63.1014 85.2424 63.2814 85.6724 63.2814 86.1924ZM75.0799 86.1924C75.0799 86.7124 74.8999 87.1524 74.5399 87.5124C74.1999 87.8524 73.7699 88.0224 73.2499 88.0224C72.7299 88.0224 72.2899 87.8524 71.9299 87.5124C71.5899 87.1524 71.4199 86.7124 71.4199 86.1924C71.4199 85.6724 71.5899 85.2424 71.9299 84.9024C72.2899 84.5624 72.7299 84.3924 73.2499 84.3924C73.7699 84.3924 74.1999 84.5624 74.5399 84.9024C74.8999 85.2424 75.0799 85.6724 75.0799 86.1924ZM86.8783 86.1924C86.8783 86.7124 86.6983 87.1524 86.3383 87.5124C85.9983 87.8524 85.5683 88.0224 85.0483 88.0224C84.5283 88.0224 84.0883 87.8524 83.7283 87.5124C83.3883 87.1524 83.2183 86.7124 83.2183 86.1924C83.2183 85.6724 83.3883 85.2424 83.7283 84.9024C84.0883 84.5624 84.5283 84.3924 85.0483 84.3924C85.5683 84.3924 85.9983 84.5624 86.3383 84.9024C86.6983 85.2424 86.8783 85.6724 86.8783 86.1924ZM51.483 100.192C51.483 100.712 51.303 101.152 50.943 101.512C50.603 101.852 50.173 102.022 49.653 102.022C49.133 102.022 48.693 101.852 48.333 101.512C47.993 101.152 47.823 100.712 47.823 100.192C47.823 99.6724 47.993 99.2424 48.333 98.9024C48.693 98.5624 49.133 98.3924 49.653 98.3924C50.173 98.3924 50.603 98.5624 50.943 98.9024C51.303 99.2424 51.483 99.6724 51.483 100.192ZM63.2814 100.192C63.2814 100.712 63.1014 101.152 62.7414 101.512C62.4014 101.852 61.9714 102.022 61.4514 102.022C60.9314 102.022 60.4914 101.852 60.1314 101.512C59.7914 101.152 59.6214 100.712 59.6214 100.192C59.6214 99.6724 59.7914 99.2424 60.1314 98.9024C60.4914 98.5624 60.9314 98.3924 61.4514 98.3924C61.9714 98.3924 62.4014 98.5624 62.7414 98.9024C63.1014 99.2424 63.2814 99.6724 63.2814 100.192ZM75.0799 100.192C75.0799 100.712 74.8999 101.152 74.5399 101.512C74.1999 101.852 73.7699 102.022 73.2499 102.022C72.7299 102.022 72.2899 101.852 71.9299 101.512C71.5899 101.152 71.4199 100.712 71.4199 100.192C71.4199 99.6724 71.5899 99.2424 71.9299 98.9024C72.2899 98.5624 72.7299 98.3924 73.2499 98.3924C73.7699 98.3924 74.1999 98.5624 74.5399 98.9024C74.8999 99.2424 75.0799 99.6724 75.0799 100.192ZM86.8783 100.192C86.8783 100.712 86.6983 101.152 86.3383 101.512C85.9983 101.852 85.5683 102.022 85.0483 102.022C84.5283 102.022 84.0883 101.852 83.7283 101.512C83.3883 101.152 83.2183 100.712 83.2183 100.192C83.2183 99.6724 83.3883 99.2424 83.7283 98.9024C84.0883 98.5624 84.5283 98.3924 85.0483 98.3924C85.5683 98.3924 85.9983 98.5624 86.3383 98.9024C86.6983 99.2424 86.8783 99.6724 86.8783 100.192Z" fill="white" fill-opacity="0.73"/>
</svg>
