<svg width="57" height="58" viewBox="0 0 57 58" fill="none" xmlns="http://www.w3.org/2000/svg">
<g clip-path="url(#clip0_604_234)">
<path d="M56.3629 29.9623V22.6144C56.3629 20.5767 55.0815 18.8141 53.175 18.2288L47.4157 16.4604V15.0693C49.0361 13.9094 50.0998 11.9889 50.0998 9.8167V7.06856C50.0998 3.5339 47.2903 0.658325 43.8368 0.658325C40.3833 0.658325 37.5738 3.5339 37.5738 7.06856V9.81581C37.5738 11.9889 38.6376 13.9094 40.2579 15.0684V16.4595L35.1823 18.0182C33.2775 16.2748 30.8507 15.3103 28.274 15.3103C25.7078 15.3103 23.36 16.2726 21.5457 17.8581L16.9952 16.4604V15.0693C18.6156 13.9094 19.6794 11.9889 19.6794 9.8167V7.06856C19.6794 3.5339 16.8698 0.658325 13.4163 0.658325C9.96284 0.658325 7.1533 3.5339 7.1533 7.06856V9.81581C7.1533 11.9889 8.21709 13.9094 9.83746 15.0684V16.4595L4.07813 18.2279C2.17161 18.8141 0.890259 20.5767 0.890259 22.6144V29.9623H2.6797V22.6144C2.6797 21.3919 3.44816 20.334 4.59277 19.9834L10.3538 18.214C10.8746 18.9062 11.882 19.889 13.4163 19.889C14.9506 19.889 15.9581 18.9062 16.4788 18.214L20.1481 19.3404C18.9834 20.8397 18.2075 22.6645 17.9721 24.661C16.8296 23.4183 15.2119 22.6363 13.4163 22.6363C9.96284 22.6363 7.1533 25.5119 7.1533 29.0465V31.7938C7.1533 33.9669 8.21709 35.8874 9.83746 37.0464V38.4374L4.07813 40.2059C2.17161 40.7921 0.890259 42.5547 0.890259 44.5923V52.856H11.6269C12.1197 52.856 12.5216 53.2674 12.5216 53.7717V57.4347H44.7315V53.7717C44.7315 53.2674 45.1335 52.856 45.6262 52.856H56.3629V44.5923C56.3629 42.5547 55.0815 40.7921 53.175 40.2068L47.4157 38.4383V37.0473C49.0361 35.8874 50.0998 33.9669 50.0998 31.7947V29.0474C50.0998 25.5128 47.2903 22.6372 43.8368 22.6372C42.0849 22.6372 40.5013 23.379 39.3632 24.5693V23.7014C39.3632 21.8927 38.403 20.2646 36.9045 19.4039L40.7743 18.2149C41.2951 18.9062 42.3025 19.889 43.8368 19.889C45.3711 19.889 46.3785 18.9062 46.8993 18.214L52.6612 19.9834C53.805 20.334 54.5734 21.3919 54.5734 22.6144V29.9623H56.3629ZM13.4163 2.48982C15.8829 2.48982 17.8899 4.544 17.8899 7.06856H13.7868C13.2184 7.06856 12.661 6.83247 12.2595 6.4211L11.6269 5.77364L10.9943 6.4211C10.5928 6.83247 10.0354 7.06856 9.46699 7.06856H8.94274C8.94274 4.544 10.9497 2.48982 13.4163 2.48982ZM8.94274 9.81581V8.90006H9.46699C10.2464 8.90006 10.9908 8.67112 11.6269 8.24366C12.263 8.67112 13.0074 8.90006 13.7868 8.90006H17.8899V9.81581C17.8899 12.3404 15.8829 14.3946 13.4163 14.3946C10.9497 14.3946 8.94274 12.3404 8.94274 9.81581ZM13.4163 18.0575C12.4653 18.0575 11.8488 17.2397 11.6269 16.8901V15.9569C12.194 16.1299 12.7947 16.2261 13.4163 16.2261C14.038 16.2261 14.6387 16.1299 15.2058 15.956V16.8892C14.9838 17.2406 14.3674 18.0575 13.4163 18.0575ZM38.0102 34.1305C38.4659 35.315 39.2522 36.3278 40.2579 37.0473V38.4383L34.4995 40.2068C34.3099 40.2645 34.1255 40.3396 33.9455 40.4227L33.1002 40.2233V38.4191C34.0565 37.6326 34.8101 36.5997 35.2728 35.4156C36.3033 35.3231 37.2697 34.8741 38.0102 34.1305ZM28.6266 40.0355C29.5759 40.0355 30.4815 39.8415 31.3107 39.4963V40.4934L28.6266 42.5538L25.9424 40.4934V39.4963C26.7716 39.8415 27.6772 40.0355 28.6266 40.0355ZM24.8437 41.9394L27.025 43.6144L24.7812 44.9925L24.2137 42.0888L24.8437 41.9394ZM27.6379 49.193H29.6152L30.3112 55.6032H26.942L27.6379 49.193ZM29.7707 47.3615H27.4815L26.9678 45.7844L28.6266 44.7663L30.2845 45.7844L29.7707 47.3615ZM30.2282 43.6144L32.4095 41.9394L33.0394 42.0879L32.4719 44.9916L30.2282 43.6144ZM36.8761 32.7261C36.5663 33.0739 36.1727 33.3176 35.7459 33.4661C35.7708 33.217 35.7843 32.9648 35.7843 32.7095V28.3275C36.7472 28.7013 37.4637 29.5683 37.5602 30.6044C37.6336 31.3927 37.3912 32.1452 36.8761 32.7261ZM33.9949 32.7095C33.9949 35.7398 31.5873 38.204 28.6266 38.204C25.6659 38.204 23.2583 35.7398 23.2583 32.7095V28.1308H26.2958C28.2456 28.1308 30.143 27.6327 31.8393 26.6811L32.5471 28.1308H33.9949V32.7095ZM21.5073 33.4661C21.0804 33.3176 20.6868 33.0739 20.3771 32.7261C19.862 32.1461 19.6195 31.3927 19.6929 30.6053C19.7895 29.5692 20.5059 28.7013 21.4688 28.3284V32.7095C21.4688 32.9648 21.4824 33.217 21.5073 33.4661ZM21.9804 35.4156C22.4422 36.5997 23.1958 37.6326 24.153 38.4191V40.2233L23.3076 40.4227C23.1268 40.3396 22.9433 40.2653 22.7545 40.2068L16.9952 38.4383V37.0473C18 36.3278 18.7873 35.315 19.2429 34.1305C19.9834 34.8741 20.9498 35.3231 21.9804 35.4156ZM13.4163 24.4678C15.8829 24.4678 17.8899 26.522 17.8899 29.0465H17.3657C16.7973 29.0465 16.2399 28.8104 15.8384 28.3991L15.2058 27.7516L14.5732 28.3991C14.1717 28.8104 13.6142 29.0465 13.0459 29.0465H8.94274C8.94274 26.522 10.9497 24.4678 13.4163 24.4678ZM8.94274 31.7938V30.878H13.0459C13.8253 30.878 14.5697 30.6491 15.2058 30.2216C15.8419 30.6491 16.5863 30.878 17.3657 30.878H17.8899V31.7938C17.8899 34.3183 15.8829 36.3725 13.4163 36.3725C10.9497 36.3725 8.94274 34.3183 8.94274 31.7938ZM13.4163 38.204C14.038 38.204 14.6387 38.1079 15.2058 37.9339V38.8671C14.9838 39.2186 14.3674 40.0355 13.4163 40.0355C12.4653 40.0355 11.8488 39.2177 11.6269 38.868V37.9348C12.194 38.1079 12.7947 38.204 13.4163 38.204ZM11.6269 51.0245H8.04802V44.6143H6.25858V51.0245H2.6797V44.5923C2.6797 43.3699 3.44816 42.3119 4.59277 41.9614L10.3538 40.192C10.8746 40.8842 11.882 41.867 13.4163 41.867C14.9506 41.867 15.9581 40.8842 16.4788 40.192L19.8716 41.2343L17.3762 41.8232C14.5177 42.4988 12.5216 45.0677 12.5216 48.0693V49.193H14.3111V48.0693C14.3111 45.9248 15.7375 44.0907 17.779 43.6077L22.4693 42.4997L23.5239 47.899L25.3959 46.7498L25.9254 48.3761L25.1416 55.6032H20.5741V48.2772H18.7847V55.6032H14.3111V53.7717C14.3111 52.2573 13.1066 51.0245 11.6269 51.0245ZM52.6604 41.9614C53.805 42.3119 54.5734 43.3699 54.5734 44.5923V51.0245H50.9946V44.6143H49.2051V51.0245H45.6262C44.1466 51.0245 42.9421 52.2573 42.9421 53.7717V55.6032H38.4685V48.2772H36.6791V55.6032H32.1115L31.3269 48.3761L31.8564 46.7498L33.7284 47.899L34.783 42.4997L39.4742 43.6077C41.5157 44.0907 42.9421 45.9248 42.9421 48.0693V49.193H44.7315V48.0693C44.7315 45.0677 42.7354 42.4988 39.877 41.8232L37.3815 41.2343L40.7743 40.192C41.2951 40.8842 42.3025 41.867 43.8368 41.867C45.3711 41.867 46.3785 40.8842 46.8993 40.192L52.6604 41.9614ZM45.6262 38.868C45.4043 39.2186 44.7879 40.0355 43.8368 40.0355C42.884 40.0355 42.2667 39.215 42.0474 38.868V37.9339C42.6144 38.1079 43.2151 38.204 43.8368 38.204C44.4585 38.204 45.0592 38.1079 45.6262 37.9339V38.868ZM43.8368 36.3725C41.3702 36.3725 39.3632 34.3183 39.3632 31.7938V30.878H39.8875C40.6668 30.878 41.4113 30.6491 42.0474 30.2216C42.6835 30.6491 43.4279 30.878 44.2073 30.878H48.3104V31.7938C48.3104 34.3183 46.3034 36.3725 43.8368 36.3725ZM43.8368 24.4678C46.3034 24.4678 48.3104 26.522 48.3104 29.0465H44.2073C43.6389 29.0465 43.0815 28.8104 42.68 28.3991L42.0474 27.7516L41.4148 28.3991C41.0133 28.8104 40.4558 29.0465 39.8875 29.0465H39.3632C39.3632 26.522 41.3702 24.4678 43.8368 24.4678ZM37.5738 27.2928C36.7822 26.6794 35.7987 26.2993 34.7358 26.2993H33.6533L32.5528 24.0466L31.7096 24.6216C30.1002 25.7198 28.2286 26.2993 26.2958 26.2993H22.5173C21.4544 26.2993 20.471 26.6794 19.6794 27.2928V25.9384C19.6794 21.0887 23.5357 17.1418 28.274 17.1418C30.5698 17.1418 32.7288 18.0567 34.3518 19.7178L35.3011 20.6894L35.5017 20.7583C36.7407 21.1813 37.5738 22.3635 37.5738 23.7005V27.2928ZM43.8368 2.48982C46.3034 2.48982 48.3104 4.544 48.3104 7.06856H47.7862C47.2178 7.06856 46.6603 6.83247 46.2588 6.4211L45.6262 5.77364L44.9937 6.4211C44.5922 6.83247 44.0347 7.06856 43.4663 7.06856H39.3632C39.3632 4.544 41.3702 2.48982 43.8368 2.48982ZM39.3632 9.81581V8.90006H43.4663C44.2457 8.90006 44.9902 8.67112 45.6262 8.24366C46.2623 8.67112 47.0068 8.90006 47.7862 8.90006H48.3104V9.81581C48.3104 12.3404 46.3034 14.3946 43.8368 14.3946C41.3702 14.3946 39.3632 12.3404 39.3632 9.81581ZM43.8368 18.0575C42.884 18.0575 42.2667 17.237 42.0474 16.8901V15.956C42.6144 16.1299 43.2151 16.2261 43.8368 16.2261C44.4585 16.2261 45.0592 16.1299 45.6262 15.956V16.8892C45.4043 17.2406 44.7879 18.0575 43.8368 18.0575Z" fill="#00525D"/>
<path d="M21.4688 0.658325H23.2582V2.48982H21.4688V0.658325Z" fill="#00525D"/>
<path d="M21.4688 4.32129H23.2582V14.3945H21.4688V4.32129Z" fill="#00525D"/>
<path d="M33.9947 0.658325H35.7841V2.48982H33.9947V0.658325Z" fill="#00525D"/>
<path d="M33.9947 4.32129H35.7841V14.3945H33.9947V4.32129Z" fill="#00525D"/>
<path d="M25.0482 4.32129H26.8376V10.7315H25.0482V4.32129Z" fill="#00525D"/>
<path d="M25.0482 12.563H26.8376V14.3945H25.0482V12.563Z" fill="#00525D"/>
<path d="M30.4163 4.32129H32.2057V10.7315H30.4163V4.32129Z" fill="#00525D"/>
<path d="M30.4163 12.563H32.2057V14.3945H30.4163V12.563Z" fill="#00525D"/>
</g>
<defs>
<clipPath id="clip0_604_234">
<rect width="55.4726" height="56.7764" fill="white" transform="translate(0.890259 0.658325)"/>
</clipPath>
</defs>
</svg>
