<svg width="66" height="66" viewBox="0 0 66 66" fill="none" xmlns="http://www.w3.org/2000/svg">
<path d="M61.3594 6.1875H4.64062C3.68368 6.18856 2.76624 6.56917 2.08958 7.24583C1.41292 7.92249 1.03231 8.83993 1.03125 9.79688V47.9531C1.03231 48.9101 1.41292 49.8275 2.08958 50.5042C2.76624 51.1808 3.68368 51.5614 4.64062 51.5625H25.5544L24.9356 54.6562H20.625C20.3515 54.6562 20.0892 54.7649 19.8958 54.9583C19.7024 55.1517 19.5938 55.414 19.5938 55.6875V58.7812C19.5938 59.0548 19.7024 59.3171 19.8958 59.5105C20.0892 59.7038 20.3515 59.8125 20.625 59.8125H45.375C45.6485 59.8125 45.9108 59.7038 46.1042 59.5105C46.2976 59.3171 46.4062 59.0548 46.4062 58.7812V55.6875C46.4062 55.414 46.2976 55.1517 46.1042 54.9583C45.9108 54.7649 45.6485 54.6562 45.375 54.6562H41.0644L40.4456 51.5625H61.3594C62.3163 51.5614 63.2338 51.1808 63.9104 50.5042C64.5871 49.8275 64.9677 48.9101 64.9688 47.9531V9.79688C64.9677 8.83993 64.5871 7.92249 63.9104 7.24583C63.2338 6.56917 62.3163 6.18856 61.3594 6.1875ZM44.3438 56.7188V57.75H21.6562V56.7188H44.3438ZM27.0394 54.6562L27.6581 51.5625H38.3419L38.9606 54.6562H27.0394ZM62.9062 47.9531C62.9059 48.3633 62.7428 48.7565 62.4528 49.0466C62.1628 49.3366 61.7695 49.4997 61.3594 49.5H4.64062C4.23047 49.4997 3.83722 49.3366 3.5472 49.0466C3.25717 48.7565 3.09409 48.3633 3.09375 47.9531V45.375H62.9062V47.9531ZM62.9062 43.3125H3.09375V9.79688C3.09409 9.38672 3.25717 8.99347 3.5472 8.70345C3.83722 8.41343 4.23047 8.25034 4.64062 8.25H61.3594C61.7695 8.25034 62.1628 8.41343 62.4528 8.70345C62.7428 8.99347 62.9059 9.38672 62.9062 9.79688V43.3125Z" fill="#00525D"/>
<path d="M34.0312 46.4062H31.9688C31.6952 46.4062 31.4329 46.5149 31.2395 46.7083C31.0461 46.9017 30.9375 47.164 30.9375 47.4375C30.9375 47.711 31.0461 47.9733 31.2395 48.1667C31.4329 48.3601 31.6952 48.4688 31.9688 48.4688H34.0312C34.3048 48.4688 34.5671 48.3601 34.7605 48.1667C34.9539 47.9733 35.0625 47.711 35.0625 47.4375C35.0625 47.164 34.9539 46.9017 34.7605 46.7083C34.5671 46.5149 34.3048 46.4062 34.0312 46.4062Z" fill="#00525D"/>
</svg>
