<svg width="55" height="56" viewBox="0 0 55 56" fill="none" xmlns="http://www.w3.org/2000/svg">
<g clip-path="url(#clip0_604_294)">
<path d="M36.065 27.2331C36.6412 27.2331 37.1083 26.755 37.1083 26.1653C37.1083 25.5755 36.6412 25.0974 36.065 25.0974C35.4888 25.0974 35.0217 25.5755 35.0217 26.1653C35.0217 26.755 35.4888 27.2331 36.065 27.2331Z" fill="#00525D"/>
<path d="M36.2433 30.7407C35.6738 30.6541 35.1428 31.0572 35.0584 31.6406C34.7733 33.6113 33.1457 35.2457 30.7047 36.0129C28.0957 36.8329 24.4742 36.558 22.265 34.0957C21.8752 33.6613 21.2152 33.6327 20.7909 34.0314C20.3665 34.4303 20.3384 35.1058 20.7281 35.5401C22.007 36.9656 23.744 37.9371 25.7514 38.3496C26.4602 38.4953 27.1955 38.5676 27.9357 38.5676C29.0789 38.5676 30.2335 38.3951 31.3173 38.0545C34.5463 37.0397 36.7166 34.759 37.1225 31.9535C37.2069 31.3701 36.8133 30.8271 36.2433 30.7407Z" fill="#00525D"/>
<path d="M50.7446 21.297C48.8482 19.047 46.231 17.5881 43.0805 17.0022C46.0968 14.9188 48.6984 12.8455 50.5534 11.0363C53.3818 8.27798 54.3302 6.33963 53.5383 4.9366C52.6571 3.37391 50.1134 3.3847 45.5326 4.97087C41.6622 6.31102 36.8405 8.6386 31.9561 11.525C31.1124 12.0234 30.2766 12.5339 29.4588 13.0483C28.8523 11.2952 29.2524 9.29265 30.5905 7.55623C31.5928 6.2556 31.8166 4.60364 31.1747 3.24481C30.5017 1.82063 29.0248 0.967956 27.2214 0.964111H27.1724C20.8075 0.964111 14.5819 3.53452 9.6425 8.20185C4.69694 12.8749 1.66922 19.0612 1.1171 25.6208C0.452815 33.5207 2.92006 41.0313 8.06416 46.7689C13.1174 52.4052 20.2814 55.6377 27.7191 55.6377C31.7234 55.6377 35.4825 54.8879 38.8917 53.4088C42.0092 52.0564 44.7775 50.1253 47.12 47.6689C49.2919 45.3913 51.0043 42.7694 52.2096 39.8759C53.3566 37.1226 53.9833 34.2048 54.0221 31.4381C54.0785 27.4147 52.9452 23.908 50.7446 21.297ZM29.5808 15.4855C30.685 14.7727 31.8351 14.0625 32.9993 13.3746C37.5155 10.7058 42.0126 8.50768 45.6625 7.18494C49.6803 5.72894 51.3253 5.82397 51.7088 6.01191C51.6756 6.2604 51.3741 7.36594 48.7375 9.85102C46.5359 11.9262 43.3209 14.3665 39.6848 16.7225C38.5354 17.4675 37.3391 18.208 36.1294 18.923C34.4617 19.9082 32.7952 20.8294 31.1595 21.6729C30.8332 20.6981 30.4149 19.7521 29.9059 18.8495C29.4125 17.9749 28.8402 17.1537 28.2006 16.3939C28.6533 16.0902 29.1139 15.7865 29.5808 15.4855ZM29.2693 22.6202C26.3232 24.0501 23.62 25.1403 21.4612 25.7727C21.3489 25.2203 21.1513 24.6864 20.8709 24.189C20.6052 23.7175 20.2719 23.296 19.8866 22.9325C21.5027 21.3362 23.7773 19.4867 26.4557 17.5946C27.0776 18.3059 27.6288 19.0839 28.0989 19.9172C28.5849 20.7789 28.9762 21.6853 29.2693 22.6202ZM51.9356 31.4075C51.7869 42.0334 42.486 53.502 27.7191 53.502C20.8643 53.502 14.2608 50.5217 9.6017 45.3251C4.85741 40.0335 2.58265 33.1007 3.19613 25.8041C4.24978 13.2849 15.0055 3.0998 27.1724 3.0998H27.2192C28.2174 3.10193 28.9744 3.49362 29.2961 4.17458C29.5919 4.80055 29.4633 5.57025 28.9521 6.2336C27.0717 8.67362 26.6001 11.6746 27.6625 14.2048C27.1032 14.5737 26.5535 14.9441 26.0223 15.3115C26.0198 15.3133 26.0173 15.315 26.0149 15.3167C22.6973 17.6079 19.8957 19.887 18.0317 21.805C16.618 21.3105 15.0647 21.4546 13.7445 22.2346C11.5769 23.5161 8.73074 29.488 8.18226 30.6722C8.03536 30.9891 8.05008 31.3597 8.22139 31.6635C8.39281 31.9673 8.69902 32.1656 9.04061 32.194C9.61725 32.2419 11.2547 32.3628 13.0773 32.3628C15.289 32.3628 17.7729 32.1846 18.9612 31.4821C20.2485 30.7216 21.1407 29.4509 21.4498 27.9901C24.0083 27.3027 27.3512 25.9579 30.9718 24.1525C33.0003 23.142 35.0865 22.0049 37.1727 20.7726C38.231 20.1471 39.2772 19.5022 40.294 18.8518C40.3002 18.8521 40.3061 18.8531 40.3123 18.8533C49.0083 19.1085 52.0184 25.5057 51.9356 31.4075ZM19.4779 27.059C19.4111 28.1329 18.8281 29.0948 17.9179 29.6326C16.9312 30.216 13.5417 30.2946 10.7586 30.1643C12.0393 27.6331 13.8003 24.6681 14.7881 24.0842C15.7206 23.5332 16.848 23.5091 17.8045 24.0198C18.3302 24.3 18.7655 24.7275 19.0635 25.2562C19.3735 25.8061 19.5167 26.4295 19.4779 27.059Z" fill="#00525D"/>
<path d="M19.3718 7.56763C17.0707 7.56763 15.1985 9.48377 15.1985 11.839C15.1985 14.1942 17.0707 16.1104 19.3718 16.1104C21.673 16.1104 23.5451 14.1942 23.5451 11.839C23.5451 9.48377 21.673 7.56763 19.3718 7.56763ZM19.3718 13.9747C18.2213 13.9747 17.2852 13.0166 17.2852 11.839C17.2852 10.6614 18.2213 9.70331 19.3718 9.70331C20.5224 9.70331 21.4585 10.6614 21.4585 11.839C21.4585 13.0166 20.5224 13.9747 19.3718 13.9747Z" fill="#00525D"/>
<path d="M14.1552 36.2617C11.8541 36.2617 9.98193 38.1779 9.98193 40.5331C9.98193 42.8883 11.8541 44.8045 14.1552 44.8045C16.4564 44.8045 18.3285 42.8883 18.3285 40.5331C18.3285 38.1779 16.4564 36.2617 14.1552 36.2617ZM14.1552 42.6688C13.0046 42.6688 12.0686 41.7107 12.0686 40.5331C12.0686 39.3555 13.0046 38.3974 14.1552 38.3974C15.3058 38.3974 16.2419 39.3555 16.2419 40.5331C16.2419 41.7107 15.3058 42.6688 14.1552 42.6688Z" fill="#00525D"/>
<path d="M24.5884 42.6688C22.2873 42.6688 20.4152 44.585 20.4152 46.9402C20.4152 49.2954 22.2873 51.2116 24.5884 51.2116C26.8896 51.2116 28.7617 49.2954 28.7617 46.9402C28.7617 44.585 26.8896 42.6688 24.5884 42.6688ZM24.5884 49.0759C23.4379 49.0759 22.5018 48.1178 22.5018 46.9402C22.5018 45.7626 23.4379 44.8045 24.5884 44.8045C25.739 44.8045 26.6751 45.7626 26.6751 46.9402C26.6751 48.1178 25.739 49.0759 24.5884 49.0759Z" fill="#00525D"/>
<path d="M37.1083 40.5331C34.8071 40.5331 32.935 42.4492 32.935 44.8045C32.935 47.1597 34.8071 49.0758 37.1083 49.0758C39.4094 49.0758 41.2816 47.1597 41.2816 44.8045C41.2816 42.4492 39.4094 40.5331 37.1083 40.5331ZM37.1083 46.9401C35.9577 46.9401 35.0216 45.9821 35.0216 44.8045C35.0216 43.6268 35.9577 42.6688 37.1083 42.6688C38.2589 42.6688 39.1949 43.6268 39.1949 44.8045C39.1949 45.9821 38.2589 46.9401 37.1083 46.9401Z" fill="#00525D"/>
<path d="M45.4548 29.8546C43.1537 29.8546 41.2816 31.7708 41.2816 34.126C41.2816 36.4812 43.1537 38.3974 45.4548 38.3974C47.756 38.3974 49.6281 36.4812 49.6281 34.126C49.6281 31.7708 47.756 29.8546 45.4548 29.8546ZM45.4548 36.2617C44.3043 36.2617 43.3682 35.3036 43.3682 34.126C43.3682 32.9484 44.3043 31.9903 45.4548 31.9903C46.6054 31.9903 47.5415 32.9484 47.5415 34.126C47.5415 35.3036 46.6054 36.2617 45.4548 36.2617Z" fill="#00525D"/>
</g>
<defs>
<clipPath id="clip0_604_294">
<rect width="53.4181" height="54.6736" fill="white" transform="translate(0.808716 0.964111)"/>
</clipPath>
</defs>
</svg>
