<svg width="61" height="63" viewBox="0 0 61 63" fill="none" xmlns="http://www.w3.org/2000/svg">
<g clip-path="url(#clip0_604_246)">
<path d="M50.6888 10.5403H47.7305C47.2888 10.5403 47.0092 10.8266 47.0092 11.1429H47.0091V20.9349C47.0091 21.3416 47.4801 21.5525 47.9658 21.5525C48.4368 21.5525 48.9225 21.3417 48.9225 20.9349V17.4399H50.5712C52.514 17.4399 54.03 16.4908 54.03 14.0202V13.9299C54.03 11.4593 52.5581 10.5403 50.6888 10.5403ZM52.1164 14.1709C52.1164 15.3459 51.5278 15.9034 50.571 15.9034H48.9225V12.2577H50.571C51.5278 12.2577 52.1164 12.8152 52.1164 13.9902V14.1709Z" fill="#00525D"/>
<path d="M34.7196 14.3682C31.9255 11.5084 28.2106 9.93347 24.259 9.93347C20.3075 9.93347 16.5926 11.5084 13.7985 14.3682C13.4612 14.7133 13.4612 15.2728 13.7985 15.618C14.1356 15.9631 14.6823 15.9631 15.0194 15.618C17.4874 13.0921 20.7687 11.7009 24.2589 11.7009C27.7491 11.7009 31.0305 13.0921 33.4984 15.618C33.6671 15.7905 33.8881 15.8768 34.109 15.8768C34.3299 15.8768 34.5509 15.7905 34.7196 15.618C35.0567 15.2729 35.0567 14.7133 34.7196 14.3682Z" fill="#00525D"/>
<path d="M31.1574 18.0141C27.3535 14.1208 21.1642 14.1208 17.3604 18.0141C17.0231 18.3592 17.0231 18.9188 17.3604 19.2639C17.6975 19.6089 18.2443 19.6089 18.5814 19.2639C21.712 16.0598 26.8057 16.0598 29.9363 19.2639C30.1049 19.4364 30.3258 19.5226 30.5468 19.5226C30.7677 19.5226 30.9887 19.4364 31.1574 19.2639C31.4945 18.9188 31.4945 18.3592 31.1574 18.0141Z" fill="#00525D"/>
<path d="M27.6517 21.6021C25.7809 19.6873 22.7368 19.6873 20.866 21.6021C20.5287 21.9472 20.5287 22.5067 20.866 22.8519C21.2031 23.197 21.7499 23.1969 22.087 22.8519C23.2846 21.6262 25.2331 21.6262 26.4307 22.8519C26.5993 23.0245 26.8203 23.1107 27.0412 23.1107C27.2621 23.1107 27.4831 23.0244 27.6517 22.8519C27.9889 22.5067 27.9889 21.9473 27.6517 21.6021Z" fill="#00525D"/>
<path d="M42.5149 38.8135C42.1413 38.6031 41.7727 38.3726 41.4195 38.1284L35.7084 34.1796C33.9751 32.9811 31.9532 32.3477 29.8615 32.3477H19.3792C16.5967 32.3477 13.9787 33.4547 12.0073 35.4647C10.994 36.4981 9.83958 37.3624 8.57615 38.0339C7.82896 38.431 7.36481 39.2126 7.36481 40.0737C7.36481 41.3418 8.37266 42.3733 9.61159 42.3733H13.1854C13.6622 42.3733 14.0488 41.9776 14.0488 41.4896C14.0488 41.0015 13.6622 40.6058 13.1854 40.6058H9.61159C9.32488 40.6058 9.09156 40.367 9.09156 40.0736C9.09156 39.8748 9.19893 39.6942 9.37188 39.6024C10.7913 38.8481 12.0881 37.8771 13.226 36.7168C14.8714 35.039 17.0566 34.115 19.3791 34.115H21.7259V40.6058H18.8574C18.3806 40.6058 17.9939 41.0015 17.9939 41.4896C17.9939 41.9776 18.3806 42.3733 18.8574 42.3733H42.5324C43.2422 42.3733 43.8197 41.7823 43.8197 41.0558C43.8197 40.1256 43.3196 39.2663 42.5149 38.8135ZM23.453 40.606V34.1151H29.8617C31.6076 34.1151 33.2952 34.6439 34.7418 35.6441L40.4529 39.5929C40.8495 39.8671 41.2632 40.1259 41.683 40.3622C41.7916 40.4234 41.8827 40.5075 41.9511 40.606H23.453Z" fill="#00525D"/>
<path d="M25.5921 43.7167H22.9251C22.4483 43.7167 22.0616 44.1124 22.0616 44.6004C22.0616 45.0884 22.4483 45.4841 22.9251 45.4841H25.5921C26.0689 45.4841 26.4555 45.0884 26.4555 44.6004C26.4555 44.1124 26.0689 43.7167 25.5921 43.7167Z" fill="#00525D"/>
<path d="M59.891 42.975L59.6183 42.5117C58.5904 40.7659 56.8807 39.5366 54.9276 39.139L52.6985 38.6852V27.121H58.4672C59.655 27.121 60.6212 26.132 60.6212 24.9164V7.7057C60.6212 6.49 59.6549 5.5011 58.4672 5.5011H41.6517C40.4639 5.5011 39.4977 6.49012 39.4977 7.7057V14.2343C39.4977 14.7224 39.8842 15.1181 40.3611 15.1181C40.8381 15.1181 41.2246 14.7224 41.2246 14.2343V7.7057C41.2246 7.4646 41.4162 7.26844 41.6518 7.26844H58.4674C58.703 7.26844 58.8946 7.4646 58.8946 7.7057V24.9165C58.8946 25.1576 58.703 25.3538 58.4674 25.3538H41.6517C41.4161 25.3538 41.2245 25.1576 41.2245 24.9165V19.9794C41.2245 19.4914 40.838 19.0957 40.361 19.0957C39.8841 19.0957 39.4976 19.4914 39.4976 19.9794V24.9165C39.4976 26.1322 40.4639 27.1211 41.6516 27.1211H48.1932V37.7684L47.0473 37.5352C45.4658 37.2133 43.9239 36.2364 42.9016 35.5294L37.1907 31.5807C35.0179 30.0785 32.4836 29.2844 29.8615 29.2844H19.3793C15.8913 29.2844 12.6096 30.6721 10.1387 33.1916C8.57518 34.7859 6.60705 35.8733 4.44704 36.3363L3.2074 36.602C1.36451 36.997 0.0269775 38.6826 0.0269775 40.6097V49.1684C0.0269775 50.1893 0.6159 51.117 1.52752 51.5316L4.96659 53.096C5.17458 54.2091 5.69851 55.272 6.53875 56.132C7.65539 57.2749 9.1222 57.8464 10.5891 57.8464C12.056 57.8464 13.5227 57.2749 14.6395 56.132C15.3577 55.3969 15.8435 54.5133 16.0998 53.5771H44.7748C45.0311 54.5133 45.517 55.3969 46.2352 56.132C47.3172 57.2393 48.7555 57.8492 50.2856 57.8492C51.8156 57.8492 53.2541 57.2394 54.3361 56.132C55.0543 55.3969 55.5401 54.5133 55.7964 53.5771H57.4343C59.1997 53.5771 60.636 52.1071 60.636 50.3003V45.7166C60.6357 44.7505 60.3781 43.8025 59.891 42.975ZM49.92 27.121H50.9717V38.3338L49.92 38.1197V27.121ZM13.4183 54.8824C12.6626 55.6558 11.6578 56.0818 10.589 56.0818C9.52018 56.0818 8.5154 55.6558 7.75968 54.8824C6.54739 53.6416 6.27773 51.7964 6.9494 50.2861C6.95484 50.274 6.96005 50.2617 6.96549 50.2496C6.98597 50.2048 7.00764 50.1604 7.02977 50.1163C7.04019 50.0955 7.05061 50.0748 7.0615 50.0542C7.0815 50.0159 7.10234 49.9778 7.12365 49.94C7.13832 49.914 7.15336 49.8882 7.16863 49.8625C7.1884 49.8292 7.2084 49.796 7.22924 49.7632C7.24806 49.7335 7.26747 49.7042 7.28712 49.6749C7.30654 49.646 7.32583 49.6169 7.34596 49.5884C7.36904 49.5559 7.39307 49.5239 7.41722 49.4919C7.43604 49.4669 7.45439 49.4417 7.4738 49.4171C7.50221 49.3811 7.53193 49.346 7.56152 49.3109C7.57845 49.2909 7.59467 49.2704 7.61195 49.2507C7.65598 49.2006 7.70132 49.1515 7.74796 49.1034C7.75199 49.0993 7.75566 49.095 7.75968 49.0908C7.76856 49.0818 7.77791 49.0733 7.78691 49.0643C7.82645 49.0246 7.86622 48.9853 7.90682 48.9476C7.91736 48.9378 7.92849 48.9287 7.93914 48.919C7.97963 48.8823 8.02035 48.8459 8.06202 48.8111C8.06592 48.8078 8.07006 48.8048 8.07397 48.8015C9.53746 47.5893 11.6482 47.5908 13.1099 48.8064C13.1116 48.8078 13.1134 48.809 13.1152 48.8105C13.1598 48.8477 13.2035 48.8867 13.2469 48.9262C13.2547 48.9332 13.2628 48.9399 13.2705 48.947C13.3207 48.9934 13.3699 49.0413 13.4182 49.0907C13.4703 49.144 13.5205 49.1989 13.5692 49.2545C13.5907 49.279 13.6109 49.3041 13.6316 49.3289C13.657 49.3592 13.6824 49.3896 13.7068 49.4205C13.7341 49.4553 13.7605 49.4907 13.7866 49.526C13.8013 49.5458 13.8158 49.5657 13.83 49.5857C13.8616 49.6302 13.8924 49.6753 13.9221 49.721C13.9272 49.7287 13.9322 49.7366 13.9372 49.7444C14.9528 51.3322 14.78 53.4885 13.4183 54.8824ZM53.1148 54.8824C52.359 55.6558 51.3542 56.0818 50.2854 56.0818C49.2165 56.0818 48.2119 55.6558 47.4562 54.8824C46.0942 53.4885 45.9214 51.3318 46.9372 49.7441C46.9421 49.7365 46.9469 49.7289 46.9519 49.7214C46.9816 49.6756 47.0125 49.6304 47.0442 49.5855C47.0583 49.5657 47.0727 49.546 47.0873 49.5265C47.1135 49.4909 47.14 49.4554 47.1676 49.4204C47.1918 49.3897 47.2169 49.3597 47.2421 49.3296C47.2631 49.3046 47.2836 49.2791 47.3052 49.2545C47.354 49.1989 47.4042 49.1442 47.4563 49.0908C48.212 48.3174 49.2167 47.8914 50.2855 47.8914C51.3543 47.8914 52.3591 48.3174 53.1148 49.0908C53.1669 49.1442 53.2171 49.199 53.2658 49.2547C53.2874 49.2791 53.3076 49.3043 53.3285 49.3293C53.3538 49.3595 53.3791 49.3897 53.4034 49.4205C53.4309 49.4554 53.4573 49.4908 53.4834 49.5263C53.498 49.546 53.5125 49.5658 53.5267 49.5858C53.5583 49.6305 53.5892 49.6754 53.6188 49.7211C53.6239 49.7289 53.6289 49.7366 53.6339 49.7444C54.6493 51.332 54.4765 53.4887 53.1148 54.8824ZM58.9092 50.3003H58.909C58.909 51.1326 58.2474 51.8098 57.4341 51.8098H56.0126C55.9788 50.528 55.5368 49.3052 54.7413 48.3026C54.736 48.2958 54.7309 48.2888 54.7254 48.282C54.6762 48.2206 54.6252 48.1603 54.5733 48.1005C54.56 48.0852 54.5475 48.0695 54.5341 48.0542C54.4792 47.9923 54.4224 47.9316 54.3646 47.8717C54.3548 47.8616 54.3458 47.8509 54.3358 47.8409C53.592 47.0796 52.6796 46.5534 51.6849 46.299C51.2327 46.1833 50.7636 46.1238 50.2854 46.1238C49.9029 46.1238 49.5261 46.162 49.1591 46.2363C48.0583 46.4598 47.0465 47.0104 46.235 47.8409C46.2253 47.8508 46.2164 47.8612 46.2068 47.8713C46.1488 47.9315 46.0918 47.9923 46.0367 48.0545C46.0237 48.0691 46.0116 48.0844 45.9988 48.0992C45.9465 48.1595 45.8949 48.2203 45.8453 48.2824C45.8403 48.2885 45.8357 48.295 45.8307 48.3013C45.0347 49.304 44.5922 50.5275 44.5582 51.8099H16.3162C16.2822 50.526 15.8388 49.3009 15.0407 48.2974C15.037 48.2927 15.0334 48.2879 15.0298 48.2832C14.9777 48.218 14.9236 48.1542 14.8685 48.0909C14.8584 48.0793 14.8489 48.0673 14.8386 48.0557C14.7741 47.9828 14.7078 47.9111 14.6392 47.841C14.3601 47.5553 14.059 47.3052 13.7416 47.0909C12.7891 46.448 11.6891 46.1266 10.589 46.1266C9.1222 46.1266 7.65527 46.6981 6.53863 47.841C6.47482 47.9063 6.41315 47.9733 6.35278 48.0411C6.3349 48.0612 6.31774 48.0817 6.3001 48.1019C6.25749 48.1513 6.21558 48.2011 6.17474 48.2515C6.15663 48.2739 6.13852 48.2964 6.12076 48.3192C6.0785 48.3731 6.0373 48.4276 5.99706 48.4827C5.98451 48.5 5.97161 48.5168 5.95941 48.5341C5.85122 48.6857 5.75083 48.842 5.65803 49.0023C5.65542 49.0068 5.65294 49.0114 5.65033 49.0158C5.60499 49.0947 5.56155 49.1747 5.52 49.2555C5.51882 49.2578 5.51763 49.2602 5.51633 49.2625C5.2153 49.8488 5.01288 50.483 4.92007 51.1407L2.22902 49.9165C1.94041 49.7852 1.75397 49.4915 1.75397 49.1684V40.6097C1.75397 39.5143 2.5143 38.5563 3.56182 38.3317L4.80146 38.066C7.28973 37.5325 9.55687 36.2799 11.3579 34.4435C13.5028 32.2562 16.3517 31.0516 19.3796 31.0516H29.8619C32.1381 31.0516 34.3382 31.741 36.2244 33.0451L41.9353 36.9938C43.0813 37.7863 44.8232 38.8842 46.7107 39.2685L54.5911 40.8724C56.0686 41.1732 57.3619 42.1031 58.1395 43.4238L58.4123 43.8871C58.7374 44.4392 58.9092 45.0719 58.9092 45.7166V50.3003Z" fill="#00525D"/>
<path d="M12.4426 50.0894C11.9474 49.5826 11.2892 49.3036 10.589 49.3036C9.88878 49.3036 9.23049 49.5827 8.73544 50.0894C8.24039 50.5961 7.96765 51.2699 7.96765 51.9865C7.96765 52.7032 8.24039 53.3769 8.73544 53.8836C9.23049 54.3903 9.88878 54.6695 10.5891 54.6695C11.2893 54.6695 11.9476 54.3904 12.4426 53.8836C13.4647 52.8376 13.4647 51.1355 12.4426 50.0894ZM11.2215 52.6339C11.0525 52.8068 10.8279 52.902 10.589 52.902C10.35 52.902 10.1254 52.8068 9.95649 52.6338C9.78757 52.4609 9.69441 52.231 9.69441 51.9864C9.69441 51.7418 9.78745 51.512 9.95649 51.3391C10.1254 51.1662 10.35 51.0708 10.589 51.0708C10.8279 51.0708 11.0525 51.166 11.2215 51.3391C11.5702 51.6961 11.5702 52.2769 11.2215 52.6339Z" fill="#00525D"/>
<path d="M52.139 50.0895C51.6439 49.5827 50.9856 49.3036 50.2853 49.3036C49.5851 49.3036 48.927 49.5826 48.4317 50.0894C47.4097 51.1355 47.4097 52.8376 48.4317 53.8836C48.9268 54.3904 49.5851 54.6695 50.2853 54.6695C50.9856 54.6695 51.6438 54.3904 52.1389 53.8838C52.634 53.3771 52.9067 52.7033 52.9067 51.9867C52.9067 51.27 52.634 50.5962 52.139 50.0895ZM50.9178 52.634C50.7489 52.8069 50.5243 52.9021 50.2853 52.9021C50.0465 52.9021 49.8218 52.8069 49.6529 52.634C49.3041 52.2771 49.3041 51.6962 49.6529 51.3393C49.8218 51.1664 50.0465 51.0711 50.2853 51.0711C50.5243 51.0711 50.7489 51.1663 50.9179 51.3393C51.0869 51.5122 51.1799 51.742 51.1799 51.9867C51.1799 52.231 51.087 52.461 50.9178 52.634Z" fill="#00525D"/>
</g>
<defs>
<clipPath id="clip0_604_246">
<rect width="60.609" height="62.0335" fill="white" transform="translate(0.0269775 0.658325)"/>
</clipPath>
</defs>
</svg>
