<svg width="27" height="22" viewBox="0 0 27 22" fill="none" xmlns="http://www.w3.org/2000/svg">
<path d="M2.6 2.02006C2.6 2.36673 2.48 2.66006 2.24 2.90006C2.01333 3.12673 1.72667 3.24006 1.38 3.24006C1.03333 3.24006 0.74 3.12673 0.5 2.90006C0.273333 2.66006 0.16 2.36673 0.16 2.02006C0.16 1.67339 0.273333 1.38673 0.5 1.16006C0.74 0.933394 1.03333 0.820061 1.38 0.820061C1.72667 0.820061 2.01333 0.933394 2.24 1.16006C2.48 1.38673 2.6 1.67339 2.6 2.02006ZM10.4656 2.02006C10.4656 2.36673 10.3456 2.66006 10.1056 2.90006C9.87896 3.12673 9.59229 3.24006 9.24562 3.24006C8.89896 3.24006 8.60562 3.12673 8.36562 2.90006C8.13896 2.66006 8.02562 2.36673 8.02562 2.02006C8.02562 1.67339 8.13896 1.38673 8.36562 1.16006C8.60562 0.933394 8.89896 0.820061 9.24562 0.820061C9.59229 0.820061 9.87896 0.933394 10.1056 1.16006C10.3456 1.38673 10.4656 1.67339 10.4656 2.02006ZM18.3312 2.02006C18.3312 2.36673 18.2112 2.66006 17.9712 2.90006C17.7446 3.12673 17.4579 3.24006 17.1112 3.24006C16.7646 3.24006 16.4712 3.12673 16.2312 2.90006C16.0046 2.66006 15.8912 2.36673 15.8912 2.02006C15.8912 1.67339 16.0046 1.38673 16.2312 1.16006C16.4712 0.933394 16.7646 0.820061 17.1112 0.820061C17.4579 0.820061 17.7446 0.933394 17.9712 1.16006C18.2112 1.38673 18.3312 1.67339 18.3312 2.02006ZM26.1969 2.02006C26.1969 2.36673 26.0769 2.66006 25.8369 2.90006C25.6102 3.12673 25.3235 3.24006 24.9769 3.24006C24.6302 3.24006 24.3369 3.12673 24.0969 2.90006C23.8702 2.66006 23.7569 2.36673 23.7569 2.02006C23.7569 1.67339 23.8702 1.38673 24.0969 1.16006C24.3369 0.933394 24.6302 0.820061 24.9769 0.820061C25.3235 0.820061 25.6102 0.933394 25.8369 1.16006C26.0769 1.38673 26.1969 1.67339 26.1969 2.02006ZM2.6 11.0201C2.6 11.3667 2.48 11.6601 2.24 11.9001C2.01333 12.1267 1.72667 12.2401 1.38 12.2401C1.03333 12.2401 0.74 12.1267 0.5 11.9001C0.273333 11.6601 0.16 11.3667 0.16 11.0201C0.16 10.6734 0.273333 10.3867 0.5 10.1601C0.74 9.93339 1.03333 9.82006 1.38 9.82006C1.72667 9.82006 2.01333 9.93339 2.24 10.1601C2.48 10.3867 2.6 10.6734 2.6 11.0201ZM10.4656 11.0201C10.4656 11.3667 10.3456 11.6601 10.1056 11.9001C9.87896 12.1267 9.59229 12.2401 9.24562 12.2401C8.89896 12.2401 8.60562 12.1267 8.36562 11.9001C8.13896 11.6601 8.02562 11.3667 8.02562 11.0201C8.02562 10.6734 8.13896 10.3867 8.36562 10.1601C8.60562 9.93339 8.89896 9.82006 9.24562 9.82006C9.59229 9.82006 9.87896 9.93339 10.1056 10.1601C10.3456 10.3867 10.4656 10.6734 10.4656 11.0201ZM18.3312 11.0201C18.3312 11.3667 18.2112 11.6601 17.9712 11.9001C17.7446 12.1267 17.4579 12.2401 17.1112 12.2401C16.7646 12.2401 16.4712 12.1267 16.2312 11.9001C16.0046 11.6601 15.8912 11.3667 15.8912 11.0201C15.8912 10.6734 16.0046 10.3867 16.2312 10.1601C16.4712 9.93339 16.7646 9.82006 17.1112 9.82006C17.4579 9.82006 17.7446 9.93339 17.9712 10.1601C18.2112 10.3867 18.3312 10.6734 18.3312 11.0201ZM26.1969 11.0201C26.1969 11.3667 26.0769 11.6601 25.8369 11.9001C25.6102 12.1267 25.3235 12.2401 24.9769 12.2401C24.6302 12.2401 24.3369 12.1267 24.0969 11.9001C23.8702 11.6601 23.7569 11.3667 23.7569 11.0201C23.7569 10.6734 23.8702 10.3867 24.0969 10.1601C24.3369 9.93339 24.6302 9.82006 24.9769 9.82006C25.3235 9.82006 25.6102 9.93339 25.8369 10.1601C26.0769 10.3867 26.1969 10.6734 26.1969 11.0201ZM2.6 20.0201C2.6 20.3667 2.48 20.6601 2.24 20.9001C2.01333 21.1267 1.72667 21.2401 1.38 21.2401C1.03333 21.2401 0.74 21.1267 0.5 20.9001C0.273333 20.6601 0.16 20.3667 0.16 20.0201C0.16 19.6734 0.273333 19.3867 0.5 19.1601C0.74 18.9334 1.03333 18.8201 1.38 18.8201C1.72667 18.8201 2.01333 18.9334 2.24 19.1601C2.48 19.3867 2.6 19.6734 2.6 20.0201ZM10.4656 20.0201C10.4656 20.3667 10.3456 20.6601 10.1056 20.9001C9.87896 21.1267 9.59229 21.2401 9.24562 21.2401C8.89896 21.2401 8.60562 21.1267 8.36562 20.9001C8.13896 20.6601 8.02562 20.3667 8.02562 20.0201C8.02562 19.6734 8.13896 19.3867 8.36562 19.1601C8.60562 18.9334 8.89896 18.8201 9.24562 18.8201C9.59229 18.8201 9.87896 18.9334 10.1056 19.1601C10.3456 19.3867 10.4656 19.6734 10.4656 20.0201ZM18.3312 20.0201C18.3312 20.3667 18.2112 20.6601 17.9712 20.9001C17.7446 21.1267 17.4579 21.2401 17.1112 21.2401C16.7646 21.2401 16.4712 21.1267 16.2312 20.9001C16.0046 20.6601 15.8912 20.3667 15.8912 20.0201C15.8912 19.6734 16.0046 19.3867 16.2312 19.1601C16.4712 18.9334 16.7646 18.8201 17.1112 18.8201C17.4579 18.8201 17.7446 18.9334 17.9712 19.1601C18.2112 19.3867 18.3312 19.6734 18.3312 20.0201ZM26.1969 20.0201C26.1969 20.3667 26.0769 20.6601 25.8369 20.9001C25.6102 21.1267 25.3235 21.2401 24.9769 21.2401C24.6302 21.2401 24.3369 21.1267 24.0969 20.9001C23.8702 20.6601 23.7569 20.3667 23.7569 20.0201C23.7569 19.6734 23.8702 19.3867 24.0969 19.1601C24.3369 18.9334 24.6302 18.8201 24.9769 18.8201C25.3235 18.8201 25.6102 18.9334 25.8369 19.1601C26.0769 19.3867 26.1969 19.6734 26.1969 20.0201Z" fill="white" fill-opacity="0.73"/>
</svg>
