<svg width="30" height="30" viewBox="0 0 30 30" fill="none" xmlns="http://www.w3.org/2000/svg">
<g clip-path="url(#clip0_603_330)">
<path d="M19.8003 14.4141C20.1239 14.4141 20.3862 14.1517 20.3862 13.8281C20.3862 13.5045 20.1239 13.2422 19.8003 13.2422C19.4767 13.2422 19.2144 13.5045 19.2144 13.8281C19.2144 14.1517 19.4767 14.4141 19.8003 14.4141Z" fill="#00525D"/>
<path d="M19.9005 16.3387C19.5807 16.2912 19.2825 16.5124 19.2351 16.8325C19.0749 17.9138 18.1609 18.8107 16.79 19.2316C15.3248 19.6815 13.2909 19.5307 12.0502 18.1796C11.8313 17.9412 11.4606 17.9255 11.2223 18.1443C10.984 18.3632 10.9682 18.7339 11.1871 18.9722C11.9053 19.7544 12.8808 20.2875 14.0082 20.5138C14.4063 20.5937 14.8192 20.6334 15.2349 20.6334C15.877 20.6334 16.5254 20.5388 17.134 20.3518C18.9475 19.795 20.1663 18.5436 20.3943 17.0041C20.4417 16.6841 20.2206 16.3861 19.9005 16.3387Z" fill="#00525D"/>
<path d="M28.0441 11.1569C26.9791 9.92227 25.5092 9.12176 23.7399 8.80025C25.4339 7.65709 26.895 6.51943 27.9368 5.52674C29.5252 4.0132 30.0578 2.94961 29.6131 2.17975C29.1182 1.32229 27.6896 1.3282 25.117 2.19855C22.9433 2.93391 20.2355 4.21107 17.4924 5.79486C17.0185 6.06838 16.5491 6.34846 16.0899 6.6307C15.7493 5.66877 15.9739 4.56996 16.7254 3.61717C17.2884 2.9035 17.414 1.99705 17.0535 1.25145C16.6756 0.46998 15.8461 0.00210937 14.8333 0H14.8058C11.2312 0 7.73487 1.41041 4.96087 3.97143C2.18341 6.53561 0.483021 9.93006 0.172943 13.5294C-0.200124 17.8642 1.1855 21.9853 4.07447 25.1336C6.91239 28.2263 10.9357 30 15.1128 30C17.3617 30 19.4728 29.5886 21.3875 28.777C23.1382 28.0349 24.693 26.9753 26.0085 25.6274C27.2283 24.3777 28.19 22.939 28.8669 21.3513C29.5111 19.8405 29.863 18.2395 29.8848 16.7214C29.9165 14.5137 29.28 12.5896 28.0441 11.1569ZM16.1584 7.96805C16.7785 7.57693 17.4244 7.18723 18.0783 6.80977C20.6145 5.34539 23.1402 4.13924 25.19 3.41344C27.4464 2.61451 28.3702 2.66666 28.5856 2.76979C28.567 2.90613 28.3977 3.51275 26.9169 4.87635C25.6805 6.015 23.8749 7.35404 21.8329 8.6468C21.1874 9.05561 20.5155 9.46189 19.8361 9.85424C18.8995 10.3948 17.9636 10.9003 17.045 11.3631C16.8617 10.8282 16.6268 10.3092 16.3409 9.81393C16.0639 9.33398 15.7425 8.8834 15.3832 8.4665C15.6375 8.29986 15.8962 8.13322 16.1584 7.96805ZM15.9834 11.8829C14.3289 12.6676 12.8107 13.2657 11.5984 13.6127C11.5353 13.3096 11.4243 13.0167 11.2668 12.7437C11.1176 12.485 10.9304 12.2538 10.714 12.0543C11.6216 11.1784 12.8991 10.1636 14.4033 9.12533C14.7525 9.51562 15.0621 9.94254 15.3261 10.3997C15.5991 10.8726 15.8188 11.3699 15.9834 11.8829ZM28.713 16.7046C28.6295 22.5352 23.406 28.8281 15.1128 28.8281C11.2631 28.8281 7.55452 27.1928 4.93796 24.3414C2.27353 21.4378 0.996009 17.6337 1.34054 13.63C1.93228 6.76055 7.97277 1.17188 14.8058 1.17188H14.8321C15.3927 1.17305 15.8178 1.38797 15.9985 1.76162C16.1646 2.1051 16.0924 2.52744 15.8053 2.89143C14.7492 4.23029 14.4844 5.87695 15.0811 7.26533C14.7669 7.46771 14.4582 7.67098 14.1599 7.8726C14.1585 7.87353 14.1571 7.87447 14.1558 7.87541C12.2925 9.13266 10.7192 10.3832 9.67234 11.4356C8.87839 11.1643 8.00605 11.2434 7.2646 11.6713C6.04726 12.3745 4.44882 15.6514 4.14079 16.3011C4.05829 16.475 4.06656 16.6784 4.16277 16.8451C4.25904 17.0118 4.43101 17.1206 4.62284 17.1362C4.94669 17.1625 5.86632 17.2288 6.88989 17.2288C8.13196 17.2288 9.52697 17.1311 10.1943 16.7456C10.9173 16.3283 11.4184 15.631 11.5919 14.8294C13.0288 14.4523 14.9062 13.7144 16.9395 12.7237C18.0788 12.1693 19.2504 11.5453 20.4221 10.8691C21.0164 10.5259 21.604 10.1721 22.175 9.81516C22.1785 9.81533 22.1818 9.81586 22.1853 9.81598C27.069 9.95602 28.7595 13.4663 28.713 16.7046ZM10.4845 14.3186C10.447 14.9078 10.1196 15.4356 9.60841 15.7307C9.05429 16.0508 7.1507 16.0939 5.58771 16.0225C6.30695 14.6336 7.29595 13.0066 7.85066 12.6862C8.37437 12.3839 9.00753 12.3707 9.54472 12.6509C9.83997 12.8047 10.0844 13.0392 10.2518 13.3293C10.4259 13.6311 10.5063 13.9731 10.4845 14.3186Z" fill="#00525D"/>
<path d="M10.4253 3.62354C9.13295 3.62354 8.08154 4.67494 8.08154 5.96729C8.08154 7.25963 9.13295 8.31104 10.4253 8.31104C11.7176 8.31104 12.769 7.25963 12.769 5.96729C12.769 4.67494 11.7176 3.62354 10.4253 3.62354ZM10.4253 7.13916C9.77912 7.13916 9.25342 6.61346 9.25342 5.96729C9.25342 5.32111 9.77912 4.79541 10.4253 4.79541C11.0715 4.79541 11.5972 5.32111 11.5972 5.96729C11.5972 6.61346 11.0715 7.13916 10.4253 7.13916Z" fill="#00525D"/>
<path d="M7.49561 19.3682C6.20326 19.3682 5.15186 20.4196 5.15186 21.7119C5.15186 23.0043 6.20326 24.0557 7.49561 24.0557C8.78795 24.0557 9.83936 23.0043 9.83936 21.7119C9.83936 20.4196 8.78795 19.3682 7.49561 19.3682ZM7.49561 22.8838C6.84943 22.8838 6.32373 22.3581 6.32373 21.7119C6.32373 21.0657 6.84943 20.54 7.49561 20.54C8.14178 20.54 8.66748 21.0657 8.66748 21.7119C8.66748 22.3581 8.14178 22.8838 7.49561 22.8838Z" fill="#00525D"/>
<path d="M13.355 22.8838C12.0626 22.8838 11.0112 23.9352 11.0112 25.2275C11.0112 26.5199 12.0626 27.5713 13.355 27.5713C14.6473 27.5713 15.6987 26.5199 15.6987 25.2275C15.6987 23.9352 14.6473 22.8838 13.355 22.8838ZM13.355 26.3994C12.7088 26.3994 12.1831 25.8737 12.1831 25.2275C12.1831 24.5814 12.7088 24.0557 13.355 24.0557C14.0012 24.0557 14.5269 24.5814 14.5269 25.2275C14.5269 25.8737 14.0012 26.3994 13.355 26.3994Z" fill="#00525D"/>
<path d="M20.3862 21.7119C19.0939 21.7119 18.0425 22.7633 18.0425 24.0557C18.0425 25.348 19.0939 26.3994 20.3862 26.3994C21.6786 26.3994 22.73 25.348 22.73 24.0557C22.73 22.7633 21.6786 21.7119 20.3862 21.7119ZM20.3862 25.2275C19.7401 25.2275 19.2144 24.7018 19.2144 24.0557C19.2144 23.4095 19.7401 22.8838 20.3862 22.8838C21.0324 22.8838 21.5581 23.4095 21.5581 24.0557C21.5581 24.7018 21.0324 25.2275 20.3862 25.2275Z" fill="#00525D"/>
<path d="M25.0737 15.8525C23.7814 15.8525 22.73 16.9039 22.73 18.1963C22.73 19.4886 23.7814 20.54 25.0737 20.54C26.3661 20.54 27.4175 19.4886 27.4175 18.1963C27.4175 16.9039 26.3661 15.8525 25.0737 15.8525ZM25.0737 19.3682C24.4276 19.3682 23.9019 18.8425 23.9019 18.1963C23.9019 17.5501 24.4276 17.0244 25.0737 17.0244C25.7199 17.0244 26.2456 17.5501 26.2456 18.1963C26.2456 18.8425 25.7199 19.3682 25.0737 19.3682Z" fill="#00525D"/>
</g>
<defs>
<clipPath id="clip0_603_330">
<rect width="30" height="30" fill="white"/>
</clipPath>
</defs>
</svg>
