<svg width="36" height="36" viewBox="0 0 36 36" fill="none" xmlns="http://www.w3.org/2000/svg">
<path d="M10.125 14.0625C9.97582 14.0625 9.83274 14.1218 9.72725 14.2273C9.62176 14.3327 9.5625 14.4758 9.5625 14.625V15.75C9.5625 15.8992 9.62176 16.0423 9.72725 16.1477C9.83274 16.2532 9.97582 16.3125 10.125 16.3125H13.5C13.6492 16.3125 13.7923 16.2532 13.8977 16.1477C14.0032 16.0423 14.0625 15.8992 14.0625 15.75V12.375C14.0625 12.2258 14.0032 12.0827 13.8977 11.9773C13.7923 11.8718 13.6492 11.8125 13.5 11.8125H12.375C12.2258 11.8125 12.0827 11.8718 11.9773 11.9773C11.8718 12.0827 11.8125 12.2258 11.8125 12.375C11.8125 12.5242 11.8718 12.6673 11.9773 12.7727C12.0827 12.8782 12.2258 12.9375 12.375 12.9375H12.9375V15.1875H10.6875V14.625C10.6875 14.4758 10.6282 14.3327 10.5227 14.2273C10.4173 14.1218 10.2742 14.0625 10.125 14.0625Z" fill="#00525D"/>
<path d="M9.5625 21.9375C9.5625 22.0867 9.62176 22.2298 9.72725 22.3352C9.83274 22.4407 9.97582 22.5 10.125 22.5H13.5C13.6492 22.5 13.7923 22.4407 13.8977 22.3352C14.0032 22.2298 14.0625 22.0867 14.0625 21.9375V18.5625C14.0625 18.4133 14.0032 18.2702 13.8977 18.1648C13.7923 18.0593 13.6492 18 13.5 18H10.125C9.97582 18 9.83274 18.0593 9.72725 18.1648C9.62176 18.2702 9.5625 18.4133 9.5625 18.5625V21.9375ZM10.6875 19.125H12.9375V21.375H10.6875V19.125Z" fill="#00525D"/>
<path d="M9.5625 28.125C9.5625 28.2741 9.62176 28.4172 9.72725 28.5227C9.83274 28.6282 9.97582 28.6875 10.125 28.6875H13.5C13.6492 28.6875 13.7923 28.6282 13.8977 28.5227C14.0032 28.4172 14.0625 28.2741 14.0625 28.125V26.0831L16.0762 24.6431C16.1832 24.5515 16.2519 24.4232 16.2688 24.2835C16.2857 24.1438 16.2497 24.0028 16.1677 23.8883C16.0858 23.7739 15.9639 23.6943 15.8262 23.6654C15.6884 23.6364 15.5449 23.6601 15.4237 23.7318L14.0625 24.705C14.0512 24.5637 13.9869 24.4319 13.8826 24.336C13.7784 24.2401 13.6417 24.187 13.5 24.1875H10.125C9.97582 24.1875 9.83274 24.2467 9.72725 24.3522C9.62176 24.4577 9.5625 24.6008 9.5625 24.75V28.125ZM12.9375 27.5625H10.6875V26.4375L11.3625 27.3375C11.4149 27.4073 11.4828 27.464 11.5609 27.5031C11.639 27.5421 11.7252 27.5625 11.8125 27.5625C11.9297 27.5617 12.0438 27.5243 12.1387 27.4556L12.9375 26.8931V27.5625ZM12.9375 25.5037L11.9306 26.2237L11.25 25.3125H12.9375V25.5037Z" fill="#00525D"/>
<path d="M16.875 28.6875H22.5C22.6492 28.6875 22.7923 28.6282 22.8977 28.5227C23.0032 28.4173 23.0625 28.2742 23.0625 28.125C23.0625 27.9758 23.0032 27.8327 22.8977 27.7273C22.7923 27.6218 22.6492 27.5625 22.5 27.5625H16.875C16.7258 27.5625 16.5827 27.6218 16.4773 27.7273C16.3718 27.8327 16.3125 27.9758 16.3125 28.125C16.3125 28.2742 16.3718 28.4173 16.4773 28.5227C16.5827 28.6282 16.7258 28.6875 16.875 28.6875Z" fill="#00525D"/>
<path d="M16.875 26.4375H19.6875C19.8367 26.4375 19.9798 26.3782 20.0852 26.2727C20.1907 26.1673 20.25 26.0242 20.25 25.875C20.25 25.7258 20.1907 25.5827 20.0852 25.4773C19.9798 25.3718 19.8367 25.3125 19.6875 25.3125H16.875C16.7258 25.3125 16.5827 25.3718 16.4773 25.4773C16.3718 25.5827 16.3125 25.7258 16.3125 25.875C16.3125 26.0242 16.3718 26.1673 16.4773 26.2727C16.5827 26.3782 16.7258 26.4375 16.875 26.4375Z" fill="#00525D"/>
<path d="M22.5 21.375H16.875C16.7258 21.375 16.5827 21.4343 16.4773 21.5398C16.3718 21.6452 16.3125 21.7883 16.3125 21.9375C16.3125 22.0867 16.3718 22.2298 16.4773 22.3352C16.5827 22.4407 16.7258 22.5 16.875 22.5H22.5C22.6492 22.5 22.7923 22.4407 22.8977 22.3352C23.0032 22.2298 23.0625 22.0867 23.0625 21.9375C23.0625 21.7883 23.0032 21.6452 22.8977 21.5398C22.7923 21.4343 22.6492 21.375 22.5 21.375Z" fill="#00525D"/>
<path d="M16.875 19.125C16.7258 19.125 16.5827 19.1843 16.4773 19.2898C16.3718 19.3952 16.3125 19.5383 16.3125 19.6875C16.3125 19.8367 16.3718 19.9798 16.4773 20.0852C16.5827 20.1907 16.7258 20.25 16.875 20.25H19.6875C19.8367 20.25 19.9798 20.1907 20.0852 20.0852C20.1907 19.9798 20.25 19.8367 20.25 19.6875C20.25 19.5383 20.1907 19.3952 20.0852 19.2898C19.9798 19.1843 19.8367 19.125 19.6875 19.125H16.875Z" fill="#00525D"/>
<path d="M21.9375 16.3125C22.0867 16.3125 22.2298 16.2532 22.3352 16.1477C22.4407 16.0423 22.5 15.8992 22.5 15.75C22.5 15.6008 22.4407 15.4577 22.3352 15.3523C22.2298 15.2468 22.0867 15.1875 21.9375 15.1875H16.3125C16.1633 15.1875 16.0202 15.2468 15.9148 15.3523C15.8093 15.4577 15.75 15.6008 15.75 15.75C15.75 15.8992 15.8093 16.0423 15.9148 16.1477C16.0202 16.2532 16.1633 16.3125 16.3125 16.3125H21.9375Z" fill="#00525D"/>
<path d="M16.3125 14.0625H20.25C20.3992 14.0625 20.5423 14.0032 20.6477 13.8977C20.7532 13.7923 20.8125 13.6492 20.8125 13.5C20.8125 13.3508 20.7532 13.2077 20.6477 13.1023C20.5423 12.9968 20.3992 12.9375 20.25 12.9375H16.3125C16.1633 12.9375 16.0202 12.9968 15.9148 13.1023C15.8093 13.2077 15.75 13.3508 15.75 13.5C15.75 13.6492 15.8093 13.7923 15.9148 13.8977C16.0202 14.0032 16.1633 14.0625 16.3125 14.0625Z" fill="#00525D"/>
<path d="M28.125 19.3442V20.4692C28.125 20.6184 28.1843 20.7615 28.2898 20.867C28.3952 20.9725 28.5383 21.0317 28.6875 21.0317C28.8367 21.0317 28.9798 20.9725 29.0852 20.867C29.1907 20.7615 29.25 20.6184 29.25 20.4692V19.3442C29.25 19.1951 29.1907 19.052 29.0852 18.9465C28.9798 18.841 28.8367 18.7817 28.6875 18.7817C28.5383 18.7817 28.3952 18.841 28.2898 18.9465C28.1843 19.052 28.125 19.1951 28.125 19.3442Z" fill="#00525D"/>
<path d="M11.8125 6.74989H12.375V8.43739C12.375 8.58657 12.4343 8.72965 12.5398 8.83514C12.6452 8.94063 12.7883 8.99989 12.9375 8.99989H23.0625C23.2117 8.99989 23.3548 8.94063 23.4602 8.83514C23.5657 8.72965 23.625 8.58657 23.625 8.43739V6.74989H28.125V7.53176C28.125 7.68095 28.1843 7.82402 28.2898 7.92951C28.3952 8.035 28.5383 8.09426 28.6875 8.09426C28.8367 8.09426 28.9798 8.035 29.0852 7.92951C29.1907 7.82402 29.25 7.68095 29.25 7.53176V6.18739C29.25 6.03821 29.1907 5.89513 29.0852 5.78964C28.9798 5.68415 28.8367 5.62489 28.6875 5.62489H23.625V3.93739C23.625 3.78821 23.5657 3.64513 23.4602 3.53964C23.3548 3.43415 23.2117 3.37489 23.0625 3.37489H20.7563C20.6271 2.7391 20.2822 2.1675 19.7799 1.75693C19.2776 1.34636 18.6488 1.12207 18 1.12207C17.3512 1.12207 16.7224 1.34636 16.2201 1.75693C15.7178 2.1675 15.3729 2.7391 15.2438 3.37489H12.9375C12.7883 3.37489 12.6452 3.43415 12.5398 3.53964C12.4343 3.64513 12.375 3.78821 12.375 3.93739V5.62489H11.8125C11.6633 5.62489 11.5202 5.68415 11.4148 5.78964C11.3093 5.89513 11.25 6.03821 11.25 6.18739C11.25 6.33657 11.3093 6.47965 11.4148 6.58514C11.5202 6.69063 11.6633 6.74989 11.8125 6.74989ZM18 2.24989C18.3491 2.24971 18.6897 2.35781 18.9748 2.5593C19.2599 2.76078 19.4755 3.04574 19.5919 3.37489H16.4081C16.5245 3.04574 16.7401 2.76078 17.0252 2.5593C17.3103 2.35781 17.6509 2.24971 18 2.24989ZM13.5 4.49989H22.5V7.87489H13.5V4.49989Z" fill="#00525D"/>
<path d="M34.0538 25.1493C34.0015 25.0965 33.9393 25.0547 33.8707 25.0261C33.8022 24.9976 33.7286 24.9829 33.6544 24.9829C33.5801 24.9829 33.5066 24.9976 33.4381 25.0261C33.3695 25.0547 33.3073 25.0965 33.255 25.1493L31.2694 27.1349L29.6775 25.543L31.6631 23.5574C31.7159 23.5051 31.7577 23.4429 31.7863 23.3743C31.8148 23.3058 31.8295 23.2323 31.8295 23.158C31.8295 23.0837 31.8148 23.0102 31.7863 22.9417C31.7577 22.8731 31.7159 22.8109 31.6631 22.7586C31.1357 22.2314 30.4205 21.9352 29.6747 21.9352C28.9289 21.9352 28.2137 22.2314 27.6863 22.7586L26.0944 24.3505C25.7085 24.7379 25.4439 25.2295 25.333 25.765C25.2221 26.3005 25.2697 26.8567 25.47 27.3655L19.0856 33.7499H7.875V16.0986C7.875 15.9494 7.81574 15.8064 7.71025 15.7009C7.60476 15.5954 7.46168 15.5361 7.3125 15.5361C7.16332 15.5361 7.02024 15.5954 6.91475 15.7009C6.80926 15.8064 6.75 15.9494 6.75 16.0986V34.3124C6.75 34.4616 6.80926 34.6046 6.91475 34.7101C7.02024 34.8156 7.16332 34.8749 7.3125 34.8749H19.3163C19.3915 34.8735 19.4659 34.8582 19.5356 34.8299C19.6027 34.8025 19.6638 34.7624 19.7156 34.7118L26.0944 28.3274L28.485 30.718L25.3125 33.913C25.2598 33.9653 25.2179 34.0275 25.1894 34.0961C25.1608 34.1646 25.1461 34.2381 25.1461 34.3124C25.1461 34.3866 25.1608 34.4602 25.1894 34.5287C25.2179 34.5972 25.2598 34.6595 25.3125 34.7118C25.3651 34.7639 25.4274 34.8051 25.4959 34.8331C25.5645 34.8611 25.6378 34.8753 25.7119 34.8749C25.8594 34.8743 26.0009 34.8157 26.1056 34.7118L29.4806 31.3368C29.8066 31.4656 30.1538 31.5324 30.5044 31.5336C30.874 31.5343 31.2401 31.4621 31.5817 31.3212C31.9234 31.1803 32.234 30.9734 32.4956 30.7124L34.0875 29.1205C34.6086 28.5889 34.8977 27.8723 34.8913 27.1279C34.885 26.3835 34.5838 25.672 34.0538 25.1493ZM33.255 28.3274L31.6631 29.9193C31.3467 30.2353 30.9178 30.4128 30.4706 30.4128C30.0234 30.4128 29.5945 30.2353 29.2781 29.9193L26.8931 27.5624C26.5771 27.246 26.3996 26.8171 26.3996 26.3699C26.3996 25.9227 26.5771 25.4938 26.8931 25.1774L28.485 23.5855C28.6392 23.4237 28.824 23.2941 29.0288 23.2043C29.2335 23.1145 29.454 23.0662 29.6775 23.0624C29.9284 23.0634 30.176 23.1191 30.4031 23.2255L28.485 25.1493C28.3802 25.2546 28.3214 25.3972 28.3214 25.5458C28.3214 25.6944 28.3802 25.837 28.485 25.9424L30.87 28.3274C30.9754 28.4321 31.118 28.491 31.2666 28.491C31.4152 28.491 31.5577 28.4321 31.6631 28.3274L33.5869 26.4374C33.7301 26.7488 33.775 27.0965 33.7157 27.4341C33.6564 27.7718 33.4957 28.0833 33.255 28.3274Z" fill="#00525D"/>
<path d="M26.4936 30.3188C26.3882 30.2141 26.2456 30.1553 26.097 30.1553C25.9484 30.1553 25.8059 30.2141 25.7005 30.3188L22.1005 33.9132C22.0477 33.9655 22.0059 34.0277 21.9773 34.0963C21.9488 34.1648 21.9341 34.2383 21.9341 34.3126C21.9341 34.3869 21.9488 34.4604 21.9773 34.5289C22.0059 34.5975 22.0477 34.6597 22.1005 34.712C22.1528 34.7647 22.215 34.8065 22.2835 34.8351C22.3521 34.8637 22.4256 34.8784 22.4998 34.8784C22.5741 34.8784 22.6476 34.8637 22.7162 34.8351C22.7847 34.8065 22.8469 34.7647 22.8992 34.712L26.4936 31.112C26.5984 31.0066 26.6572 30.864 26.6572 30.7154C26.6572 30.5668 26.5984 30.4242 26.4936 30.3188Z" fill="#00525D"/>
<path d="M7.83584 14.0625V13.1175C8.03143 13.0277 8.21953 12.9223 8.39834 12.8025L9.21959 13.275C9.34875 13.3483 9.50167 13.3676 9.64498 13.3286C9.7883 13.2896 9.91038 13.1955 9.98459 13.0669L11.1096 11.1206C11.147 11.0568 11.1715 10.9861 11.1815 10.9128C11.1916 10.8395 11.1871 10.7649 11.1683 10.6933C11.1495 10.6217 11.1167 10.5545 11.0719 10.4956C11.0271 10.4367 10.9711 10.3872 10.9071 10.35L10.0858 9.8775C10.1083 9.6681 10.1083 9.4569 10.0858 9.2475L10.9071 8.775C10.9711 8.73778 11.0271 8.6883 11.0719 8.6294C11.1167 8.57049 11.1495 8.50331 11.1683 8.43172C11.1871 8.36013 11.1916 8.28553 11.1815 8.2122C11.1715 8.13886 11.147 8.06824 11.1096 8.00437L9.98459 6.05813C9.91038 5.92946 9.7883 5.83537 9.64498 5.79638C9.50167 5.75739 9.34875 5.77667 9.21959 5.85L8.39834 6.3225C8.21953 6.20268 8.03143 6.09734 7.83584 6.0075V5.0625C7.83584 4.91332 7.77657 4.77024 7.67108 4.66475C7.56559 4.55926 7.42252 4.5 7.27334 4.5H5.02333C4.87415 4.5 4.73108 4.55926 4.62559 4.66475C4.5201 4.77024 4.46083 4.91332 4.46083 5.0625V6.0075C4.26537 6.0976 4.07729 6.20292 3.89833 6.3225L3.09396 5.85C3.02976 5.81281 2.95883 5.78868 2.88527 5.77902C2.81171 5.76935 2.73696 5.77434 2.66533 5.79368C2.5937 5.81303 2.52661 5.84635 2.46791 5.89174C2.40922 5.93712 2.36008 5.99367 2.32333 6.05813L1.19833 8.00437C1.16114 8.06858 1.13702 8.1395 1.12735 8.21306C1.11769 8.28662 1.12267 8.36137 1.14201 8.433C1.16136 8.50463 1.19468 8.57172 1.24007 8.63042C1.28545 8.68912 1.342 8.73825 1.40646 8.775L2.25021 9.2475V9.5625C2.25021 9.5625 2.25021 9.77062 2.25021 9.8775L1.40646 10.35C1.342 10.3867 1.28545 10.4359 1.24007 10.4946C1.19468 10.5533 1.16136 10.6204 1.14201 10.692C1.12267 10.7636 1.11769 10.8384 1.12735 10.9119C1.13702 10.9855 1.16114 11.0564 1.19833 11.1206L2.32333 13.0669C2.39793 13.1967 2.52102 13.2915 2.66554 13.3305C2.7371 13.3499 2.81177 13.3549 2.88527 13.3454C2.95878 13.3358 3.02969 13.3119 3.09396 13.275C3.15822 13.2381 3.21459 13.1888 3.25983 13.1301C3.30507 13.0714 3.3383 13.0044 3.35762 12.9328C3.37695 12.8612 3.38199 12.7866 3.37246 12.7131C3.36293 12.6396 3.33902 12.5686 3.30208 12.5044L2.45833 11.0419L3.11083 10.6875C3.21461 10.6269 3.29626 10.5347 3.34383 10.4244C3.39141 10.3141 3.4024 10.1914 3.37521 10.0744C3.30777 9.73646 3.30777 9.38854 3.37521 9.05062C3.4024 8.93359 3.39141 8.81093 3.34383 8.70059C3.29626 8.59026 3.21461 8.49806 3.11083 8.4375L2.45833 8.06063L3.02083 7.08188L3.67333 7.46438C3.77431 7.52225 3.89075 7.54738 4.00661 7.5363C4.12247 7.52522 4.23204 7.47847 4.32021 7.4025C4.58324 7.17977 4.88432 7.00637 5.20896 6.89062C5.31873 6.85225 5.4139 6.78081 5.48139 6.68612C5.54888 6.59143 5.58537 6.47815 5.58583 6.36188V5.625H6.71084V6.38438C6.71088 6.49998 6.74655 6.61276 6.81298 6.70737C6.87941 6.80198 6.97337 6.87382 7.08209 6.91313C7.40792 7.02628 7.70945 7.19994 7.97084 7.425C8.05901 7.50097 8.16858 7.54772 8.28443 7.5588C8.40029 7.56988 8.51674 7.54475 8.61771 7.48688L9.27584 7.10438L9.83834 8.08312L9.18021 8.4375C9.07967 8.49596 8.99972 8.58414 8.95137 8.68991C8.90302 8.79568 8.88864 8.91384 8.91021 9.02812C8.97765 9.36604 8.97765 9.71396 8.91021 10.0519C8.87815 10.1728 8.88729 10.3009 8.93619 10.416C8.98508 10.5311 9.07095 10.6266 9.18021 10.6875L9.83834 11.0644L9.27584 12.0431L8.61771 11.6606C8.51674 11.6027 8.40029 11.5776 8.28443 11.5887C8.16858 11.5998 8.05901 11.6465 7.97084 11.7225C7.70945 11.9476 7.40792 12.1212 7.08209 12.2344C6.97337 12.2737 6.87941 12.3455 6.81298 12.4401C6.74655 12.5347 6.71088 12.6475 6.71084 12.7631V13.5H5.58583V12.7406C5.58583 12.5914 5.52657 12.4484 5.42108 12.3429C5.31559 12.2374 5.17252 12.1781 5.02333 12.1781C4.87415 12.1781 4.73108 12.2374 4.62559 12.3429C4.5201 12.4484 4.46083 12.5914 4.46083 12.7406V14.0625C4.46083 14.2117 4.5201 14.3548 4.62559 14.4602C4.73108 14.5657 4.87415 14.625 5.02333 14.625H7.27334C7.42252 14.625 7.56559 14.5657 7.67108 14.4602C7.77657 14.3548 7.83584 14.2117 7.83584 14.0625Z" fill="#00525D"/>
<path d="M6.14795 11.25C6.48171 11.25 6.80797 11.151 7.08547 10.9656C7.36298 10.7802 7.57927 10.5166 7.707 10.2083C7.83472 9.89993 7.86814 9.56063 7.80302 9.23329C7.73791 8.90594 7.57719 8.60526 7.34119 8.36926C7.10519 8.13326 6.80451 7.97254 6.47716 7.90743C6.14982 7.84231 5.81052 7.87573 5.50217 8.00345C5.19382 8.13118 4.93027 8.34747 4.74484 8.62498C4.55942 8.90248 4.46045 9.22874 4.46045 9.5625C4.46045 10.0101 4.63824 10.4393 4.95471 10.7557C5.27117 11.0722 5.7004 11.25 6.14795 11.25ZM6.14795 9C6.2592 9 6.36795 9.03299 6.46046 9.0948C6.55296 9.15661 6.62506 9.24446 6.66763 9.34724C6.71021 9.45002 6.72135 9.56313 6.69964 9.67224C6.67794 9.78135 6.62436 9.88158 6.5457 9.96025C6.46703 10.0389 6.3668 10.0925 6.25769 10.1142C6.14857 10.1359 6.03547 10.1248 5.93269 10.0822C5.82991 10.0396 5.74206 9.96751 5.68025 9.87501C5.61844 9.78251 5.58545 9.67375 5.58545 9.5625C5.58545 9.41332 5.64471 9.27024 5.7502 9.16475C5.85569 9.05926 5.99877 9 6.14795 9Z" fill="#00525D"/>
<path d="M24.4069 17.7694C24.3755 17.8252 24.3545 17.8862 24.345 17.9494L23.9118 20.9475C23.8968 21.0581 23.915 21.1705 23.9641 21.2707C24.0132 21.3709 24.0909 21.4542 24.1875 21.51C24.2732 21.5586 24.3702 21.5838 24.4687 21.5832C24.5949 21.584 24.7178 21.5424 24.8175 21.465L27.1968 19.5919C27.2132 19.5784 27.2283 19.5633 27.2418 19.5469L27.2925 19.4794V19.4513L32.9175 9.70878L33.48 8.73566C33.5909 8.54363 33.6629 8.33162 33.6918 8.11175C33.7208 7.89189 33.7061 7.66847 33.6486 7.45428C33.5911 7.24009 33.492 7.03933 33.3569 6.86348C33.2218 6.68762 33.0534 6.54012 32.8612 6.42941C32.6692 6.31848 32.4572 6.24649 32.2373 6.21755C32.0175 6.18862 31.794 6.2033 31.5798 6.26077C31.3657 6.31823 31.1649 6.41735 30.989 6.55246C30.8132 6.68756 30.6657 6.85601 30.555 7.04816L29.9925 8.02128L24.3675 17.7638C24.3726 17.7688 24.3792 17.772 24.3862 17.773C24.3933 17.774 24.4005 17.7728 24.4069 17.7694ZM25.3406 18.9338L25.8469 19.2263L25.2281 19.7157L25.3406 18.9338ZM31.5731 7.59378C31.6477 7.46399 31.7708 7.36915 31.9153 7.33012C32.0598 7.29109 32.2139 7.31106 32.3437 7.38566C32.4735 7.46025 32.5684 7.58334 32.6074 7.72786C32.6464 7.87238 32.6264 8.02649 32.5518 8.15628L32.2706 8.64566L31.7812 8.36441L31.2918 8.08316L31.5731 7.59378ZM30.7293 9.05628L31.2187 9.33753L31.7081 9.61878L26.6456 18.3882L26.1562 18.1069L25.6669 17.8257L30.7293 9.05628Z" fill="#00525D"/>
</svg>
