<svg width="30" height="30" viewBox="0 0 30 30" fill="none" xmlns="http://www.w3.org/2000/svg">
<g clip-path="url(#clip0_603_266)">
<path d="M30 15.4839V11.6013C30 10.5247 29.307 9.59331 28.276 9.28404L25.1613 8.34961V7.61459C26.0376 7.00172 26.6129 5.98696 26.6129 4.83918V3.3871C26.6129 1.51942 25.0935 0 23.2258 0C21.3581 0 19.8387 1.51942 19.8387 3.3871V4.83871C19.8387 5.98696 20.414 7.00172 21.2903 7.61412V8.34914L18.5454 9.17276C17.5153 8.25156 16.2028 7.74194 14.8093 7.74194C13.4215 7.74194 12.1518 8.25038 11.1706 9.08817L8.70968 8.34961V7.61459C9.58598 7.00172 10.1613 5.98696 10.1613 4.83918V3.3871C10.1613 1.51942 8.64187 0 6.77419 0C4.90652 0 3.3871 1.51942 3.3871 3.3871V4.83871C3.3871 5.98696 3.9624 7.00172 4.83871 7.61412V8.34914L1.72403 9.28357C0.692966 9.59331 0 10.5247 0 11.6013V15.4839H0.967742V11.6013C0.967742 10.9554 1.38333 10.3964 2.00235 10.2111L5.11797 9.27624C5.3996 9.64198 5.94443 10.1613 6.77419 10.1613C7.60396 10.1613 8.14878 9.64198 8.43041 9.27624L10.4148 9.87139C9.78492 10.6636 9.36531 11.6278 9.23797 12.6827C8.62013 12.0261 7.74524 11.6129 6.77419 11.6129C4.90652 11.6129 3.3871 13.1323 3.3871 15V16.4516C3.3871 17.5999 3.9624 18.6146 4.83871 19.227V19.962L1.72403 20.8965C0.692966 21.2062 0 22.1376 0 23.2142V27.5806H5.80645C6.07296 27.5806 6.29032 27.798 6.29032 28.0645V30H23.7097V28.0645C23.7097 27.798 23.927 27.5806 24.1935 27.5806H30V23.2142C30 22.1376 29.307 21.2062 28.276 20.8969L25.1613 19.9625V19.2275C26.0376 18.6146 26.6129 17.5999 26.6129 16.4521V15.0005C26.6129 13.1328 25.0935 11.6134 23.2258 11.6134C22.2784 11.6134 21.4219 12.0053 20.8065 12.6343V12.1757C20.8065 11.22 20.2871 10.3598 19.4768 9.90494L21.5696 9.27671C21.8512 9.64198 22.396 10.1613 23.2258 10.1613C24.0556 10.1613 24.6004 9.64198 24.882 9.27624L27.9981 10.2111C28.6167 10.3964 29.0323 10.9554 29.0323 11.6013V15.4839H30ZM6.77419 0.967742C8.10815 0.967742 9.19355 2.05314 9.19355 3.3871H6.97455C6.66717 3.3871 6.36569 3.26235 6.14856 3.04498L5.80645 2.70287L5.46434 3.04498C5.24721 3.26235 4.94574 3.3871 4.63836 3.3871H4.35484C4.35484 2.05314 5.44024 0.967742 6.77419 0.967742ZM4.35484 4.83871V4.35484H4.63836C5.05985 4.35484 5.46245 4.23387 5.80645 4.008C6.15045 4.23387 6.55305 4.35484 6.97455 4.35484H9.19355V4.83871C9.19355 6.17266 8.10815 7.25806 6.77419 7.25806C5.44024 7.25806 4.35484 6.17266 4.35484 4.83871ZM6.77419 9.19355C6.25984 9.19355 5.92647 8.76142 5.80645 8.57666V8.08357C6.11312 8.17501 6.43799 8.22581 6.77419 8.22581C7.1104 8.22581 7.43526 8.17501 7.74194 8.0831V8.57619C7.62191 8.76189 7.28854 9.19355 6.77419 9.19355ZM20.0747 17.6863C20.3212 18.3122 20.7464 18.8473 21.2903 19.2275V19.9625L18.1761 20.8969C18.0736 20.9274 17.9739 20.9671 17.8765 21.0111L17.4194 20.9057V19.9524C17.9365 19.5368 18.3441 18.991 18.5943 18.3654C19.1516 18.3165 19.6743 18.0792 20.0747 17.6863ZM15 20.8065C15.5134 20.8065 16.0032 20.7039 16.4516 20.5215V21.0484L15 22.1371L13.5484 21.0484V20.5215C13.9968 20.7039 14.4866 20.8065 15 20.8065ZM12.9542 21.8125L14.1339 22.6975L12.9204 23.4257L12.6135 21.8914L12.9542 21.8125ZM14.4653 25.6452H15.5347L15.911 29.0323H14.089L14.4653 25.6452ZM15.6188 24.6774H14.3807L14.1029 23.8441L15 23.3061L15.8966 23.8441L15.6188 24.6774ZM15.8661 22.6975L17.0458 21.8125L17.3865 21.8909L17.0796 23.4252L15.8661 22.6975ZM19.4614 16.9442C19.2939 17.128 19.081 17.2568 18.8502 17.3352C18.8636 17.2036 18.871 17.0704 18.871 16.9355V14.6201C19.3917 14.8176 19.7792 15.2757 19.8314 15.8231C19.8711 16.2397 19.74 16.6373 19.4614 16.9442ZM17.9032 16.9355C17.9032 18.5367 16.6012 19.8387 15 19.8387C13.3988 19.8387 12.0968 18.5367 12.0968 16.9355V14.5161H13.7395C14.794 14.5161 15.8201 14.2529 16.7375 13.7502L17.1202 14.5161H17.9032V16.9355ZM11.1498 17.3352C10.919 17.2568 10.7061 17.128 10.5386 16.9442C10.26 16.6378 10.1289 16.2397 10.1686 15.8236C10.2208 15.2762 10.6083 14.8176 11.129 14.6206V16.9355C11.129 17.0704 11.1364 17.2036 11.1498 17.3352ZM11.4057 18.3654C11.6554 18.991 12.063 19.5368 12.5806 19.9524V20.9057L12.1235 21.0111C12.0257 20.9671 11.9264 20.9279 11.8244 20.8969L8.70968 19.9625V19.2275C9.25309 18.8473 9.67884 18.3122 9.92526 17.6863C10.3257 18.0792 10.8483 18.3165 11.4057 18.3654ZM6.77419 12.5806C8.10815 12.5806 9.19355 13.666 9.19355 15H8.91003C8.60265 15 8.30118 14.8753 8.08405 14.6579L7.74194 14.3158L7.39982 14.6579C7.1827 14.8753 6.88122 15 6.57384 15H4.35484C4.35484 13.666 5.44024 12.5806 6.77419 12.5806ZM4.35484 16.4516V15.9677H6.57384C6.99534 15.9677 7.39793 15.8468 7.74194 15.6209C8.08594 15.8468 8.48853 15.9677 8.91003 15.9677H9.19355V16.4516C9.19355 17.7856 8.10815 18.871 6.77419 18.871C5.44024 18.871 4.35484 17.7856 4.35484 16.4516ZM6.77419 19.8387C7.1104 19.8387 7.43526 19.7879 7.74194 19.696V20.1891C7.62191 20.3748 7.28854 20.8065 6.77419 20.8065C6.25984 20.8065 5.92647 20.3743 5.80645 20.1896V19.6965C6.11312 19.7879 6.43799 19.8387 6.77419 19.8387ZM5.80645 26.6129H3.87097V23.2258H2.90323V26.6129H0.967742V23.2142C0.967742 22.5683 1.38333 22.0093 2.00235 21.824L5.11797 20.8891C5.3996 21.2549 5.94443 21.7742 6.77419 21.7742C7.60396 21.7742 8.14878 21.2549 8.43041 20.8891L10.2652 21.4399L8.9157 21.751C7.36982 22.108 6.29032 23.4654 6.29032 25.0514V25.6452H7.25806V25.0514C7.25806 23.9183 8.02947 22.9491 9.13354 22.694L11.6701 22.1085L12.2404 24.9614L13.2528 24.3542L13.5392 25.2135L13.1153 29.0323H10.6452V25.1613H9.67742V29.0323H7.25806V28.0645C7.25806 27.2643 6.60668 26.6129 5.80645 26.6129ZM27.9977 21.824C28.6167 22.0093 29.0323 22.5683 29.0323 23.2142V26.6129H27.0968V23.2258H26.129V26.6129H24.1935C23.3933 26.6129 22.7419 27.2643 22.7419 28.0645V29.0323H20.3226V25.1613H19.3548V29.0323H16.8847L16.4604 25.2135L16.7467 24.3542L17.7591 24.9614L18.3294 22.1085L20.8665 22.694C21.9705 22.9491 22.7419 23.9183 22.7419 25.0514V25.6452H23.7097V25.0514C23.7097 23.4654 22.6302 22.108 21.0843 21.751L19.7348 21.4399L21.5696 20.8891C21.8512 21.2549 22.396 21.7742 23.2258 21.7742C24.0556 21.7742 24.6004 21.2549 24.882 20.8891L27.9977 21.824ZM24.1935 20.1896C24.0735 20.3748 23.7402 20.8065 23.2258 20.8065C22.7105 20.8065 22.3767 20.3729 22.2581 20.1896V19.696C22.5647 19.7879 22.8896 19.8387 23.2258 19.8387C23.562 19.8387 23.8869 19.7879 24.1935 19.696V20.1896ZM23.2258 18.871C21.8919 18.871 20.8065 17.7856 20.8065 16.4516V15.9677H21.09C21.5115 15.9677 21.9141 15.8468 22.2581 15.6209C22.6021 15.8468 23.0047 15.9677 23.4262 15.9677H25.6452V16.4516C25.6452 17.7856 24.5598 18.871 23.2258 18.871ZM23.2258 12.5806C24.5598 12.5806 25.6452 13.666 25.6452 15H23.4262C23.1188 15 22.8173 14.8753 22.6002 14.6579L22.2581 14.3158L21.916 14.6579C21.6988 14.8753 21.3974 15 21.09 15H20.8065C20.8065 13.666 21.8919 12.5806 23.2258 12.5806ZM19.8387 14.0734C19.4106 13.7492 18.8788 13.5484 18.3039 13.5484H17.7185L17.1233 12.3581L16.6673 12.6619C15.7969 13.2422 14.7848 13.5484 13.7395 13.5484H11.6961C11.1212 13.5484 10.5894 13.7492 10.1613 14.0734V13.3577C10.1613 10.7952 12.2468 8.70968 14.8093 8.70968C16.0509 8.70968 17.2185 9.19308 18.0963 10.0708L18.6097 10.5842L18.7181 10.6206C19.3882 10.8441 19.8387 11.4688 19.8387 12.1752V14.0734ZM23.2258 0.967742C24.5598 0.967742 25.6452 2.05314 25.6452 3.3871H25.3616C25.0543 3.3871 24.7528 3.26235 24.5357 3.04498L24.1935 2.70287L23.8514 3.04498C23.6343 3.26235 23.3328 3.3871 23.0255 3.3871H20.8065C20.8065 2.05314 21.8919 0.967742 23.2258 0.967742ZM20.8065 4.83871V4.35484H23.0255C23.4469 4.35484 23.8495 4.23387 24.1935 4.008C24.5375 4.23387 24.9401 4.35484 25.3616 4.35484H25.6452V4.83871C25.6452 6.17266 24.5598 7.25806 23.2258 7.25806C21.8919 7.25806 20.8065 6.17266 20.8065 4.83871ZM23.2258 9.19355C22.7105 9.19355 22.3767 8.76 22.2581 8.57666V8.0831C22.5647 8.17501 22.8896 8.22581 23.2258 8.22581C23.562 8.22581 23.8869 8.17501 24.1935 8.0831V8.57619C24.0735 8.76189 23.7402 9.19355 23.2258 9.19355Z" fill="#00525D"/>
<path d="M11.1289 0H12.0966V0.967742H11.1289V0Z" fill="#00525D"/>
<path d="M11.1289 1.93555H12.0966V7.25813H11.1289V1.93555Z" fill="#00525D"/>
<path d="M17.9033 0H18.8711V0.967742H17.9033V0Z" fill="#00525D"/>
<path d="M17.9033 1.93555H18.8711V7.25813H17.9033V1.93555Z" fill="#00525D"/>
<path d="M13.0649 1.93555H14.0327V5.32264H13.0649V1.93555Z" fill="#00525D"/>
<path d="M13.0649 6.29028H14.0327V7.25803H13.0649V6.29028Z" fill="#00525D"/>
<path d="M15.9678 1.93555H16.9355V5.32264H15.9678V1.93555Z" fill="#00525D"/>
<path d="M15.9678 6.29028H16.9355V7.25803H15.9678V6.29028Z" fill="#00525D"/>
</g>
<defs>
<clipPath id="clip0_603_266">
<rect width="30" height="30" fill="white"/>
</clipPath>
</defs>
</svg>
