<svg width="32" height="32" viewBox="0 0 32 32" fill="none" xmlns="http://www.w3.org/2000/svg">
<g clip-path="url(#clip0_603_317)">
<path d="M31.5315 15.5312H23.9841V14.4647H26.0204C26.2793 14.4647 26.4892 14.2548 26.4892 13.9959C26.4892 13.7371 26.2793 13.5272 26.0204 13.5272H23.9841V12.4606H25.3979C25.9246 12.4606 26.4197 12.2556 26.7921 11.8831L29.875 8.80028C30.0759 8.90034 30.2985 8.95359 30.5295 8.95359C30.9224 8.95359 31.2917 8.80059 31.5695 8.52284C31.8473 8.24503 32.0003 7.87572 32.0003 7.48285C32.0003 7.08997 31.8473 6.72066 31.5695 6.44285C31.2918 6.16504 30.9224 6.01204 30.5295 6.01204C30.1367 6.01204 29.7674 6.16504 29.4895 6.44279C29.2117 6.7206 29.0587 7.08991 29.0587 7.48279C29.0587 7.71378 29.112 7.93647 29.212 8.13735L26.1292 11.2202C25.9339 11.4155 25.6741 11.5231 25.3978 11.5231H23.9841V10.4889C23.9841 9.1254 22.8748 8.01616 21.5113 8.01616H20.4771V3.86649C21.0588 3.6703 21.4791 3.11986 21.4791 2.47274C21.4791 1.66174 20.8193 1.002 20.0083 1.002C19.1974 1.002 18.5376 1.66181 18.5376 2.47274C18.5376 3.11986 18.9578 3.67024 19.5396 3.86649V8.0161H18.4731V5.97979C18.4731 5.72092 18.2632 5.51104 18.0043 5.51104C17.7455 5.51104 17.5356 5.72092 17.5356 5.97979V8.0161H16.469V0.468748C16.469 0.209874 16.2592 0 16.0003 0C15.7414 0 15.5315 0.209874 15.5315 0.468748V8.0161H14.465V5.97979C14.465 5.72092 14.2552 5.51104 13.9963 5.51104C13.7374 5.51104 13.5275 5.72092 13.5275 5.97979V8.0161H12.461V6.60241C12.461 6.07573 12.2559 5.58054 11.8835 5.20817L8.79956 2.12424C9.072 1.57418 8.98069 0.888309 8.52325 0.430811C7.94975 -0.142624 7.0167 -0.142562 6.44326 0.430811C5.86982 1.00425 5.86982 1.93731 6.44326 2.5108C6.73001 2.79749 7.10663 2.94086 7.48326 2.94086C7.7075 2.94086 7.93138 2.8888 8.13669 2.78712L11.2206 5.8711C11.416 6.06642 11.5236 6.32616 11.5236 6.60241V8.0161H10.4893C10.2802 8.0161 10.0723 8.04235 9.87131 8.09403C9.62062 8.15853 9.46969 8.41409 9.53419 8.66484C9.59869 8.91559 9.85431 9.06653 10.105 9.00197C10.2297 8.9699 10.3589 8.95359 10.4892 8.95359H21.5113C22.3579 8.95359 23.0466 9.64234 23.0466 10.4888V21.511C23.0466 21.6412 23.0303 21.7704 22.9983 21.8949C22.9339 22.1457 23.0849 22.4012 23.3356 22.4656C23.3747 22.4757 23.4139 22.4805 23.4526 22.4805C23.6614 22.4805 23.8519 22.3399 23.9063 22.1283C23.9579 21.9275 23.9841 21.7198 23.9841 21.5109V20.4767H28.1337C28.3299 21.0584 28.8803 21.4787 29.5274 21.4787C30.3384 21.4787 30.9982 20.8189 30.9982 20.0079C30.9982 19.1969 30.3384 18.5372 29.5274 18.5372C28.8803 18.5372 28.3299 18.9574 28.1337 19.5392H23.9841V18.4726H26.0204C26.2792 18.4726 26.4891 18.2627 26.4891 18.0039C26.4891 17.745 26.2792 17.5351 26.0204 17.5351H23.9841V16.4687H31.5315C31.7903 16.4687 32.0002 16.2588 32.0002 15.9999C32.0002 15.7411 31.7903 15.5312 31.5315 15.5312ZM30.1524 7.10579C30.2532 7.00504 30.387 6.9496 30.5295 6.9496C30.6719 6.9496 30.8058 7.00504 30.9065 7.10579C31.0073 7.20654 31.0627 7.34041 31.0627 7.48285C31.0627 7.62529 31.0073 7.75916 30.9065 7.85991C30.8058 7.96066 30.6719 8.0161 30.5295 8.0161C30.387 8.0161 30.2532 7.96066 30.1524 7.85991C30.0517 7.75916 29.9962 7.62529 29.9962 7.48285C29.9962 7.34041 30.0517 7.20647 30.1524 7.10579ZM7.86025 1.84793C7.65238 2.05574 7.31407 2.05581 7.10607 1.84787C6.89813 1.63993 6.89813 1.30162 7.10607 1.09375C7.21007 0.989746 7.34657 0.937809 7.48319 0.937809C7.61976 0.937809 7.75632 0.989809 7.86025 1.09375C8.06819 1.30168 8.06819 1.63999 7.86025 1.84793ZM20.0083 3.00599C19.7143 3.00599 19.4751 2.76674 19.4751 2.47274C19.4751 2.17874 19.7143 1.93949 20.0083 1.93949C20.3024 1.93949 20.5416 2.17874 20.5416 2.47274C20.5416 2.76674 20.3023 3.00599 20.0083 3.00599ZM29.5275 19.4747C29.8215 19.4747 30.0607 19.714 30.0607 20.008C30.0607 20.3021 29.8215 20.5412 29.5275 20.5412C29.2335 20.5412 28.9942 20.302 28.9942 20.008C28.9942 19.7139 29.2334 19.4747 29.5275 19.4747Z" fill="#00525D"/>
<path d="M25.557 29.4891C25.0996 29.0316 24.4137 28.9403 23.8636 29.2128L20.7797 26.1288C20.5843 25.9335 20.4767 25.6737 20.4767 25.3975V23.9838H21.511C21.72 23.9838 21.9279 23.9575 22.1288 23.9058C22.3795 23.8413 22.5305 23.5858 22.466 23.335C22.4015 23.0844 22.146 22.9334 21.8952 22.9979C21.7705 23.03 21.6413 23.0462 21.511 23.0462H10.4889C9.64234 23.0462 8.95365 22.3575 8.95365 21.511V10.4889C8.95365 10.3586 8.9699 10.2293 9.00196 10.1048C9.06653 9.85409 8.91559 9.59853 8.6649 9.53396C8.41416 9.4694 8.15859 9.62034 8.09409 9.87103C8.04234 10.0719 8.01616 10.2798 8.01616 10.4889V11.5231H3.86648C3.6703 10.9414 3.11986 10.5211 2.47274 10.5211C1.66174 10.5211 1.002 11.1809 1.002 11.9919C1.002 12.8029 1.66181 13.4626 2.47274 13.4626C3.11986 13.4626 3.67024 13.0424 3.86648 12.4606H8.01609V13.5272H5.97979C5.72092 13.5272 5.51104 13.7371 5.51104 13.9959C5.51104 14.2548 5.72092 14.4647 5.97979 14.4647H8.01609V15.5312H0.468748C0.209874 15.5312 0 15.7411 0 15.9999C0 16.2588 0.209874 16.4687 0.468748 16.4687H8.01609V17.5352H5.97979C5.72092 17.5352 5.51104 17.7451 5.51104 18.0039C5.51104 18.2628 5.72092 18.4727 5.97979 18.4727H8.01609V19.5392H6.60235C6.07566 19.5392 5.58048 19.7443 5.2081 20.1167L2.12524 23.1996C1.92437 23.0995 1.70168 23.0463 1.47068 23.0463C1.07781 23.0463 0.708497 23.1993 0.430686 23.477C0.152999 23.7549 0 24.1242 0 24.517C0 24.9098 0.152999 25.2792 0.430811 25.557C0.70856 25.8348 1.07793 25.9878 1.47081 25.9878C1.86368 25.9878 2.23299 25.8348 2.5108 25.557C2.78861 25.2792 2.94161 24.9099 2.94161 24.517C2.94161 24.286 2.88836 24.0633 2.7883 23.8625L5.87116 20.7796C6.06648 20.5843 6.32622 20.4767 6.60254 20.4767H8.01628V21.5109C8.01628 22.8744 9.12559 23.9837 10.489 23.9837H11.5233V28.1333C10.9415 28.3295 10.5213 28.8799 10.5213 29.527C10.5213 30.338 11.1811 30.9978 11.992 30.9978C12.8029 30.9978 13.4628 30.338 13.4628 29.527C13.4628 28.8799 13.0425 28.3295 12.4608 28.1333V23.9837H13.5273V26.02C13.5273 26.2788 13.7371 26.4887 13.996 26.4887C14.2549 26.4887 14.4648 26.2788 14.4648 26.02V23.9837H15.5312V31.5311C15.5312 31.79 15.7411 31.9999 15.9999 31.9999C16.2588 31.9999 16.4687 31.79 16.4687 31.5311V23.9838H17.5352V26.0201C17.5352 26.279 17.7451 26.4888 18.0039 26.4888C18.2628 26.4888 18.4727 26.279 18.4727 26.0201V23.9838H19.5392V25.3975C19.5392 25.9242 19.7443 26.4193 20.1167 26.7917L23.2007 29.8756C22.9282 30.4257 23.0195 31.1116 23.477 31.5691C23.7637 31.8558 24.1404 31.9991 24.517 31.9991C24.8937 31.9991 25.2703 31.8558 25.557 31.5691C26.1305 30.9956 26.1305 30.0626 25.557 29.4891ZM2.47274 12.5251C2.17868 12.5251 1.93949 12.2859 1.93949 11.9919C1.93949 11.6978 2.17874 11.4586 2.47274 11.4586C2.76674 11.4586 3.00599 11.6979 3.00599 11.9919C3.00605 12.286 2.7668 12.5251 2.47274 12.5251ZM1.84781 24.8941C1.74706 24.9948 1.61318 25.0503 1.47074 25.0503C1.32831 25.0503 1.19443 24.9948 1.09368 24.8941C0.992934 24.7933 0.937496 24.6595 0.937496 24.517C0.937496 24.3746 0.992934 24.2407 1.09368 24.14C1.19443 24.0392 1.32831 23.9838 1.47074 23.9838C1.61318 23.9838 1.74706 24.0392 1.84781 24.14C1.94855 24.2407 2.00399 24.3746 2.00399 24.517C2.00399 24.6595 1.94855 24.7934 1.84781 24.8941ZM12.5251 29.5271C12.5251 29.8211 12.286 30.0604 11.9919 30.0604C11.6978 30.0604 11.4586 29.8211 11.4586 29.5271C11.4586 29.2331 11.6979 28.9939 11.9919 28.9939C12.2859 28.9939 12.5251 29.2331 12.5251 29.5271ZM24.8942 30.9062C24.6862 31.1141 24.3479 31.1141 24.14 30.9062C23.932 30.6983 23.932 30.36 24.14 30.1521C24.244 30.0481 24.3805 29.9961 24.5171 29.9961C24.6537 29.9961 24.7902 30.0481 24.8942 30.1521C25.102 30.36 25.102 30.6983 24.8942 30.9062Z" fill="#00525D"/>
<path d="M20.9779 14.7476C20.9779 13.7451 20.2447 12.8959 19.2409 12.62C19.2706 12.4974 19.2871 12.3714 19.2871 12.2425C19.2871 11.2934 18.4446 10.5212 17.4092 10.5212C16.8484 10.5212 16.3446 10.7481 16.0002 11.1066C15.6558 10.7481 15.1519 10.5212 14.5911 10.5212C13.5557 10.5212 12.7133 11.2934 12.7133 12.2425C12.7133 12.3714 12.7298 12.4974 12.7595 12.62C11.7557 12.8959 11.0225 13.745 11.0225 14.7476C11.0225 15.2375 11.1958 15.6998 11.5161 16.0815C11.203 16.487 11.0225 16.9792 11.0225 17.5032C11.0223 18.3001 11.4482 19.0443 12.1496 19.506C12.1496 19.5063 12.1496 19.5067 12.1496 19.5071C12.1496 20.5943 13.1185 21.4789 14.3093 21.4789C14.9937 21.4789 15.6043 21.1865 16.0002 20.7316C16.3961 21.1865 17.0067 21.4789 17.6911 21.4789C18.8371 21.4789 19.7771 20.6595 19.8462 19.6288C20.5422 19.2249 20.9779 18.5175 20.9779 17.7536C20.9779 17.1917 20.7384 16.6557 20.326 16.2506C20.7383 15.8455 20.9779 15.3094 20.9779 14.7476ZM19.3189 16.6651C19.7706 16.9035 20.0402 17.3104 20.0402 17.7536C20.0402 18.084 19.8867 18.3992 19.6273 18.6349C19.3809 18.1786 18.9453 17.8153 18.395 17.6425C18.1481 17.5649 17.8849 17.7022 17.8073 17.9492C17.7297 18.1961 17.8671 18.4593 18.114 18.5368C18.5919 18.687 18.913 19.077 18.913 19.5071C18.913 20.0775 18.3647 20.5415 17.6908 20.5415C17.0169 20.5415 16.4687 20.0775 16.4687 19.5071V16.5011C16.4687 15.9308 17.0169 15.4668 17.6908 15.4668C17.9497 15.4668 18.1596 15.257 18.1596 14.9981C18.1596 14.7392 17.9497 14.5294 17.6908 14.5294C17.2374 14.5294 16.8164 14.6578 16.4687 14.8767V14.2779C16.4687 14.019 16.2588 13.8092 15.9999 13.8092C15.7411 13.8092 15.5312 14.019 15.5312 14.2779V16.8802C15.3734 16.7812 15.2004 16.6993 15.0133 16.6405C14.7662 16.5628 14.5032 16.7002 14.4256 16.9471C14.348 17.1941 14.4853 17.4572 14.7323 17.5348C15.2101 17.685 15.5312 18.075 15.5312 18.5051V19.5071C15.5312 20.0774 14.9829 20.5414 14.3091 20.5414C13.6351 20.5414 13.0869 20.0774 13.0869 19.5071C13.0869 19.2626 13.1905 19.025 13.3786 18.838C13.5623 18.6555 13.5631 18.3587 13.3806 18.1751C13.1981 17.9915 12.9014 17.9906 12.7178 18.1731C12.6055 18.2848 12.5088 18.4068 12.4284 18.5365C12.1324 18.2565 11.9596 17.8881 11.9596 17.503C11.9596 16.8085 12.5046 16.1984 13.2851 16.0193C13.5374 15.9615 13.695 15.71 13.6371 15.4577C13.5793 15.2053 13.3277 15.0477 13.0755 15.1056C12.7613 15.1777 12.472 15.298 12.2155 15.4559C12.0492 15.247 11.9596 15.0024 11.9596 14.7475C11.9598 14.0424 12.6282 13.4684 13.4521 13.463C13.4563 13.4631 13.4605 13.4637 13.4646 13.4637C13.5716 13.4637 13.6792 13.4272 13.7673 13.3527C13.9469 13.2005 13.983 12.9424 13.8624 12.7482C13.8588 12.7425 13.8556 12.7366 13.8518 12.731C13.8499 12.7282 13.8476 12.7255 13.8456 12.7227C13.8383 12.7125 13.8309 12.7025 13.8228 12.6929C13.8226 12.6926 13.8224 12.6923 13.8221 12.692C13.744 12.5996 13.6506 12.4466 13.6506 12.2425C13.6506 11.8103 14.0725 11.4587 14.5909 11.4587C15.1094 11.4587 15.5313 11.8103 15.5313 12.2425C15.5313 12.5014 15.7411 12.7112 16 12.7112C16.2589 12.7112 16.4688 12.5014 16.4688 12.2425C16.4688 11.8103 16.8906 11.4587 17.4091 11.4587C17.9275 11.4587 18.3494 11.8103 18.3494 12.2425C18.3494 12.358 18.3191 12.4565 18.2791 12.5375C18.0124 12.5627 17.7546 12.6271 17.5097 12.7304C17.2712 12.8309 17.1594 13.1059 17.2599 13.3444C17.3605 13.5829 17.6354 13.6949 17.874 13.5942C18.0766 13.5088 18.2946 13.4649 18.522 13.4631C18.5265 13.4632 18.5309 13.4637 18.5354 13.4637C18.5396 13.4637 18.5437 13.4631 18.5479 13.463C19.3719 13.4684 20.0402 14.0424 20.0402 14.7475C20.0402 15.1907 19.7706 15.5975 19.3189 15.836C19.1652 15.9171 19.0689 16.0767 19.0689 16.2505C19.0689 16.4244 19.1652 16.584 19.3189 16.6651Z" fill="#00525D"/>
</g>
<defs>
<clipPath id="clip0_603_317">
<rect width="32" height="32" fill="white"/>
</clipPath>
</defs>
</svg>
