<svg width="32" height="32" viewBox="0 0 32 32" fill="none" xmlns="http://www.w3.org/2000/svg">
<path d="M26.748 5.09766H25.1861C24.9529 5.09766 24.8052 5.24534 24.8052 5.40853H24.8052V10.4597C24.8052 10.6695 25.0539 10.7783 25.3103 10.7783C25.559 10.7783 25.8154 10.6696 25.8154 10.4597V8.65683H26.6859C27.7116 8.65683 28.512 8.16721 28.512 6.89277V6.84621C28.512 5.57172 27.7349 5.09766 26.748 5.09766ZM27.5017 6.97052C27.5017 7.57665 27.1909 7.86421 26.6858 7.86421H25.8154V5.98359H26.6858C27.1909 5.98359 27.5017 6.27115 27.5017 6.87728V6.97052Z" fill="#00525D"/>
<path d="M18.3166 7.07235C16.8413 5.5971 14.88 4.78467 12.7937 4.78467C10.7074 4.78467 8.746 5.5971 7.27075 7.07235C7.09269 7.25034 7.09269 7.53897 7.27075 7.71703C7.44875 7.89503 7.73738 7.89503 7.91538 7.71703C9.21843 6.41404 10.9509 5.69641 12.7936 5.69641C14.6363 5.69641 16.3688 6.41404 17.6718 7.71703C17.7609 7.80603 17.8776 7.85053 17.9942 7.85053C18.1108 7.85053 18.2275 7.80603 18.3166 7.71703C18.4946 7.53903 18.4946 7.25034 18.3166 7.07235Z" fill="#00525D"/>
<path d="M16.4361 8.95305C14.4277 6.94469 11.1599 6.94469 9.15161 8.95305C8.97355 9.13105 8.97355 9.41974 9.15161 9.59774C9.32961 9.77574 9.6183 9.77574 9.7963 9.59774C11.4492 7.94493 14.1385 7.94493 15.7914 9.59774C15.8804 9.68674 15.997 9.73124 16.1137 9.73124C16.2303 9.73124 16.347 9.68674 16.4361 9.59774C16.6141 9.41974 16.6141 9.13105 16.4361 8.95305Z" fill="#00525D"/>
<path d="M14.5854 10.8038C13.5976 9.81605 11.9904 9.81605 11.0027 10.8038C10.8246 10.9818 10.8246 11.2704 11.0027 11.4485C11.1807 11.6265 11.4694 11.6265 11.6474 11.4485C12.2797 10.8162 13.3084 10.8162 13.9407 11.4485C14.0297 11.5375 14.1464 11.582 14.263 11.582C14.3797 11.582 14.4964 11.5375 14.5854 11.4485C14.7634 11.2704 14.7634 10.9819 14.5854 10.8038Z" fill="#00525D"/>
<path d="M22.4324 19.6823C22.2351 19.5738 22.0405 19.4549 21.854 19.3289L18.8387 17.2919C17.9236 16.6737 16.8561 16.3469 15.7517 16.3469H10.2173C8.74825 16.3469 7.36601 16.918 6.32514 17.9549C5.79014 18.4879 5.18064 18.9338 4.51358 19.2802C4.11909 19.485 3.87402 19.8882 3.87402 20.3324C3.87402 20.9865 4.40615 21.5187 5.06027 21.5187H6.94714C7.19888 21.5187 7.40301 21.3145 7.40301 21.0628C7.40301 20.811 7.19888 20.6069 6.94714 20.6069H5.06027C4.90889 20.6069 4.78571 20.4837 4.78571 20.3323C4.78571 20.2298 4.84239 20.1367 4.93371 20.0893C5.68314 19.7002 6.36783 19.1993 6.96857 18.6007C7.83732 17.7352 8.99107 17.2586 10.2172 17.2586H11.4563V20.6069H9.94181C9.69006 20.6069 9.48594 20.811 9.48594 21.0628C9.48594 21.3145 9.69006 21.5187 9.94181 21.5187H22.4416C22.8164 21.5187 23.1213 21.2138 23.1213 20.839C23.1213 20.3592 22.8573 19.9159 22.4324 19.6823ZM12.3682 20.607V17.2587H15.7518C16.6736 17.2587 17.5646 17.5314 18.3284 18.0474L21.3437 20.0844C21.5531 20.2258 21.7715 20.3593 21.9931 20.4812C22.0505 20.5128 22.0986 20.5562 22.1347 20.607H12.3682Z" fill="#00525D"/>
<path d="M13.4978 22.2117H12.0897C11.8379 22.2117 11.6338 22.4158 11.6338 22.6675C11.6338 22.9193 11.8379 23.1234 12.0897 23.1234H13.4978C13.7495 23.1234 13.9537 22.9193 13.9537 22.6675C13.9537 22.4158 13.7495 22.2117 13.4978 22.2117Z" fill="#00525D"/>
<path d="M31.6067 21.829L31.4627 21.59C30.92 20.6894 30.0173 20.0553 28.9861 19.8502L27.8092 19.6161V13.6507H30.8549C31.4821 13.6507 31.9922 13.1405 31.9922 12.5134V3.63529C31.9922 3.00817 31.482 2.49805 30.8549 2.49805H21.9768C21.3497 2.49805 20.8395 3.00823 20.8395 3.63529V7.00309C20.8395 7.25484 21.0436 7.45897 21.2954 7.45897C21.5472 7.45897 21.7513 7.25484 21.7513 7.00309V3.63529C21.7513 3.51092 21.8525 3.40973 21.9769 3.40973H30.8551C30.9794 3.40973 31.0806 3.51092 31.0806 3.63529V12.5135C31.0806 12.6379 30.9794 12.7391 30.8551 12.7391H21.9768C21.8524 12.7391 21.7512 12.6379 21.7512 12.5135V9.9667C21.7512 9.71496 21.5472 9.51083 21.2954 9.51083C21.0435 9.51083 20.8395 9.71496 20.8395 9.9667V12.5135C20.8395 13.1406 21.3497 13.6508 21.9767 13.6508H25.4305V19.1432L24.8255 19.0229C23.9905 18.8568 23.1765 18.3529 22.6367 17.9882L19.6215 15.9512C18.4743 15.1763 17.1362 14.7667 15.7519 14.7667H10.2175C8.37597 14.7667 6.64329 15.4825 5.33873 16.7822C4.51323 17.6046 3.47411 18.1655 2.33368 18.4044L1.67918 18.5415C0.706185 18.7452 0 19.6147 0 20.6089V25.0238C0 25.5505 0.310936 26.029 0.792247 26.2429L2.60799 27.0499C2.7178 27.6241 2.99443 28.1724 3.43805 28.616C4.02761 29.2056 4.80204 29.5004 5.57654 29.5004C6.35104 29.5004 7.12541 29.2056 7.71503 28.616C8.09422 28.2368 8.35072 27.781 8.48603 27.2981H23.6257C23.761 27.781 24.0176 28.2368 24.3968 28.616C24.968 29.1872 25.7274 29.5018 26.5353 29.5018C27.3431 29.5018 28.1026 29.1873 28.6738 28.616C29.053 28.2368 29.3095 27.781 29.4448 27.2981H30.3096C31.2417 27.2981 32 26.5398 32 25.6077V23.2432C31.9999 22.7448 31.8639 22.2558 31.6067 21.829ZM26.3423 13.6507H26.8975V19.4348L26.3423 19.3244V13.6507ZM7.07028 27.9714C6.67129 28.3704 6.14079 28.5901 5.57648 28.5901C5.01217 28.5901 4.48167 28.3704 4.08267 27.9714C3.44261 27.3313 3.30024 26.3795 3.65486 25.6004C3.65774 25.5941 3.66049 25.5878 3.66336 25.5816C3.67417 25.5585 3.68561 25.5356 3.6973 25.5128C3.7028 25.5021 3.7083 25.4914 3.71405 25.4808C3.72461 25.461 3.73561 25.4414 3.74686 25.4219C3.75461 25.4085 3.76255 25.3951 3.77061 25.3819C3.78105 25.3647 3.79161 25.3476 3.80261 25.3306C3.81255 25.3153 3.8228 25.3002 3.83317 25.2851C3.84342 25.2702 3.85361 25.2552 3.86423 25.2405C3.87642 25.2237 3.88911 25.2072 3.90186 25.1907C3.9118 25.1778 3.92148 25.1648 3.93173 25.1521C3.94673 25.1336 3.96242 25.1155 3.97805 25.0973C3.98698 25.087 3.99555 25.0765 4.00467 25.0663C4.02792 25.0405 4.05186 25.0151 4.07648 24.9903C4.07861 24.9882 4.08055 24.986 4.08267 24.9838C4.08736 24.9791 4.0923 24.9748 4.09705 24.9701C4.11792 24.9496 4.13892 24.9294 4.16036 24.91C4.16592 24.9049 4.1718 24.9002 4.17742 24.8952C4.1988 24.8763 4.2203 24.8575 4.2423 24.8395C4.24436 24.8378 4.24655 24.8363 4.24861 24.8346C5.02129 24.2093 6.13573 24.21 6.90747 24.8371C6.90835 24.8378 6.90929 24.8385 6.91022 24.8392C6.93379 24.8584 6.95685 24.8785 6.97978 24.8989C6.98391 24.9025 6.98816 24.906 6.99222 24.9096C7.01872 24.9336 7.04472 24.9583 7.07022 24.9838C7.09772 25.0113 7.12422 25.0396 7.14997 25.0683C7.16128 25.0809 7.17197 25.0938 7.18291 25.1066C7.19628 25.1223 7.20972 25.138 7.2226 25.1539C7.23703 25.1718 7.25097 25.1901 7.26472 25.2083C7.27247 25.2185 7.28016 25.2288 7.28766 25.2391C7.30435 25.2621 7.3206 25.2853 7.33628 25.3089C7.33897 25.3129 7.3416 25.317 7.34422 25.321C7.88047 26.14 7.78922 27.2524 7.07028 27.9714ZM28.029 27.9714C27.63 28.3704 27.0995 28.5901 26.5351 28.5901C25.9708 28.5901 25.4404 28.3704 25.0414 27.9714C24.3223 27.2524 24.2311 26.1398 24.7674 25.3208C24.77 25.3169 24.7725 25.313 24.7752 25.3091C24.7908 25.2855 24.8072 25.2621 24.8239 25.239C24.8313 25.2288 24.839 25.2186 24.8467 25.2086C24.8605 25.1902 24.8745 25.1719 24.889 25.1538C24.9018 25.138 24.9151 25.1225 24.9284 25.107C24.9395 25.0941 24.9503 25.081 24.9617 25.0683C24.9875 25.0396 25.014 25.0113 25.0415 24.9838C25.4405 24.5848 25.9709 24.3651 26.5352 24.3651C27.0995 24.3651 27.63 24.5848 28.029 24.9838C28.0565 25.0113 28.083 25.0396 28.1088 25.0683C28.1201 25.081 28.1308 25.094 28.1418 25.1068C28.1552 25.1224 28.1686 25.138 28.1814 25.1539C28.1959 25.1719 28.2098 25.1901 28.2236 25.2085C28.2313 25.2186 28.239 25.2288 28.2465 25.2391C28.2632 25.2622 28.2795 25.2854 28.2951 25.309C28.2978 25.313 28.3005 25.317 28.3031 25.321C28.8392 26.14 28.7479 27.2525 28.029 27.9714ZM31.0883 25.6077H31.0882C31.0882 26.0371 30.7389 26.3864 30.3095 26.3864H29.559C29.5411 25.7252 29.3078 25.0944 28.8878 24.5772C28.8849 24.5737 28.8823 24.5701 28.8794 24.5666C28.8534 24.5349 28.8264 24.5038 28.7991 24.473C28.7921 24.4651 28.7854 24.457 28.7784 24.4491C28.7494 24.4171 28.7194 24.3858 28.6889 24.355C28.6837 24.3497 28.6789 24.3442 28.6737 24.339C28.281 23.9463 27.7993 23.6749 27.2741 23.5437C27.0353 23.484 26.7876 23.4533 26.5351 23.4533C26.3332 23.4533 26.1343 23.473 25.9405 23.5113C25.3593 23.6266 24.8251 23.9107 24.3967 24.339C24.3915 24.3442 24.3868 24.3495 24.3818 24.3547C24.3512 24.3858 24.321 24.4171 24.292 24.4492C24.2851 24.4568 24.2787 24.4646 24.272 24.4723C24.2443 24.5034 24.2171 24.5348 24.1909 24.5668C24.1883 24.57 24.1858 24.5733 24.1832 24.5765C23.7629 25.0938 23.5293 25.725 23.5113 26.3865H8.60028C8.58234 25.7241 8.34822 25.0922 7.92684 24.5745C7.92491 24.5721 7.92303 24.5696 7.92109 24.5672C7.89359 24.5336 7.86503 24.5006 7.83597 24.468C7.83059 24.462 7.82559 24.4558 7.82016 24.4498C7.78609 24.4123 7.75109 24.3753 7.71491 24.3391C7.56753 24.1917 7.40853 24.0627 7.24097 23.9522C6.7381 23.6205 6.15729 23.4547 5.57648 23.4547C4.80204 23.4547 4.02755 23.7495 3.43799 24.3391C3.4043 24.3728 3.37174 24.4073 3.33986 24.4423C3.33042 24.4527 3.32136 24.4633 3.31205 24.4737C3.28955 24.4991 3.26742 24.5248 3.24586 24.5508C3.2363 24.5624 3.22674 24.574 3.21736 24.5858C3.19505 24.6136 3.1733 24.6417 3.15205 24.6701C3.14543 24.679 3.13861 24.6877 3.13218 24.6966C3.07505 24.7748 3.02205 24.8555 2.97305 24.9381C2.97168 24.9405 2.97036 24.9428 2.96899 24.9451C2.94505 24.9858 2.92211 25.0271 2.90018 25.0688C2.89955 25.07 2.89893 25.0712 2.89824 25.0724C2.7393 25.3748 2.63243 25.702 2.58343 26.0413L1.16262 25.4098C1.01025 25.342 0.911809 25.1905 0.911809 25.0238V20.6089C0.911809 20.0438 1.31324 19.5496 1.86631 19.4337L2.5208 19.2967C3.83455 19.0215 5.03154 18.3753 5.98241 17.428C7.11491 16.2997 8.61903 15.6783 10.2177 15.6783H15.7521C16.9539 15.6783 18.1154 16.0339 19.1113 16.7066L22.1265 18.7435C22.7316 19.1524 23.6513 19.7187 24.6478 19.917L28.8085 20.7444C29.5886 20.8995 30.2714 21.3792 30.6819 22.0605L30.8259 22.2995C30.9976 22.5843 31.0883 22.9107 31.0883 23.2432V25.6077Z" fill="#00525D"/>
<path d="M6.55506 25.4991C6.29356 25.2377 5.94606 25.0938 5.57638 25.0938C5.20669 25.0938 4.85913 25.2377 4.59776 25.4991C4.33638 25.7605 4.19238 26.1081 4.19238 26.4777C4.19238 26.8474 4.33638 27.195 4.59776 27.4564C4.85913 27.7177 5.20669 27.8617 5.57644 27.8617C5.94613 27.8617 6.29369 27.7178 6.55506 27.4564C7.09468 26.9167 7.09468 26.0387 6.55506 25.4991ZM5.91031 26.8117C5.82113 26.9009 5.7025 26.95 5.57638 26.95C5.45019 26.95 5.33163 26.9009 5.24244 26.8116C5.15325 26.7224 5.10407 26.6039 5.10407 26.4777C5.10407 26.3515 5.15319 26.2329 5.24244 26.1437C5.33163 26.0546 5.45019 26.0054 5.57638 26.0054C5.7025 26.0054 5.82113 26.0545 5.91031 26.1437C6.09444 26.3279 6.09444 26.6276 5.91031 26.8117Z" fill="#00525D"/>
<path d="M27.5139 25.4992C27.2525 25.2377 26.905 25.0938 26.5352 25.0938C26.1655 25.0938 25.818 25.2377 25.5565 25.4991C25.017 26.0387 25.017 26.9167 25.5565 27.4564C25.818 27.7178 26.1655 27.8617 26.5352 27.8617C26.905 27.8617 27.2525 27.7178 27.5138 27.4564C27.7753 27.1951 27.9192 26.8475 27.9192 26.4778C27.9192 26.1081 27.7753 25.7606 27.5139 25.4992ZM26.8691 26.8117C26.78 26.9009 26.6614 26.9501 26.5352 26.9501C26.4091 26.9501 26.2905 26.9009 26.2013 26.8117C26.0171 26.6276 26.0171 26.328 26.2013 26.1439C26.2905 26.0547 26.4091 26.0055 26.5352 26.0055C26.6614 26.0055 26.78 26.0546 26.8692 26.1439C26.9584 26.2331 27.0075 26.3516 27.0075 26.4778C27.0075 26.6039 26.9585 26.7225 26.8691 26.8117Z" fill="#00525D"/>
</svg>
