<svg width="32" height="32" viewBox="0 0 32 32" fill="none" xmlns="http://www.w3.org/2000/svg">
<path d="M29.75 3H2.25C1.78603 3.00051 1.34121 3.18505 1.01313 3.51313C0.685052 3.84121 0.500513 4.28603 0.5 4.75V23.25C0.500513 23.714 0.685052 24.1588 1.01313 24.4869C1.34121 24.8149 1.78603 24.9995 2.25 25H12.39L12.09 26.5H10C9.86739 26.5 9.74021 26.5527 9.64645 26.6464C9.55268 26.7402 9.5 26.8674 9.5 27V28.5C9.5 28.6326 9.55268 28.7598 9.64645 28.8536C9.74021 28.9473 9.86739 29 10 29H22C22.1326 29 22.2598 28.9473 22.3536 28.8536C22.4473 28.7598 22.5 28.6326 22.5 28.5V27C22.5 26.8674 22.4473 26.7402 22.3536 26.6464C22.2598 26.5527 22.1326 26.5 22 26.5H19.91L19.61 25H29.75C30.214 24.9995 30.6588 24.8149 30.9869 24.4869C31.3149 24.1588 31.4995 23.714 31.5 23.25V4.75C31.4995 4.28603 31.3149 3.84121 30.9869 3.51313C30.6588 3.18505 30.214 3.00051 29.75 3ZM21.5 27.5V28H10.5V27.5H21.5ZM13.11 26.5L13.41 25H18.59L18.89 26.5H13.11ZM30.5 23.25C30.4998 23.4489 30.4208 23.6395 30.2801 23.7801C30.1395 23.9208 29.9489 23.9998 29.75 24H2.25C2.05114 23.9998 1.86047 23.9208 1.71985 23.7801C1.57924 23.6395 1.50017 23.4489 1.5 23.25V22H30.5V23.25ZM30.5 21H1.5V4.75C1.50017 4.55114 1.57924 4.36047 1.71985 4.21985C1.86047 4.07924 2.05114 4.00017 2.25 4H29.75C29.9489 4.00017 30.1395 4.07924 30.2801 4.21985C30.4208 4.36047 30.4998 4.55114 30.5 4.75V21Z" fill="#00525D"/>
<path d="M16.5 22.5H15.5C15.3674 22.5 15.2402 22.5527 15.1464 22.6464C15.0527 22.7402 15 22.8674 15 23C15 23.1326 15.0527 23.2598 15.1464 23.3536C15.2402 23.4473 15.3674 23.5 15.5 23.5H16.5C16.6326 23.5 16.7598 23.4473 16.8536 23.3536C16.9473 23.2598 17 23.1326 17 23C17 22.8674 16.9473 22.7402 16.8536 22.6464C16.7598 22.5527 16.6326 22.5 16.5 22.5Z" fill="#00525D"/>
</svg>
