<svg width="32" height="32" viewBox="0 0 32 32" fill="none" xmlns="http://www.w3.org/2000/svg">
<path d="M30.5 17.5H27V16.118L27.809 14.5H29V13.5H27.9705C27.8465 12.4007 27.3223 11.3854 26.4978 10.6477C25.6734 9.91003 24.6063 9.5015 23.5 9.5V9C23.5 8.86739 23.4473 8.74021 23.3536 8.64645C23.2598 8.55268 23.1326 8.5 23 8.5C22.8674 8.5 22.7402 8.55268 22.6464 8.64645C22.5527 8.74021 22.5 8.86739 22.5 9V9.5C21.3937 9.5015 20.3266 9.91003 19.5022 10.6477C18.6777 11.3854 18.1535 12.4007 18.0295 13.5H17V14.5H18.191L19 16.118V17.5H13V16.118L13.809 14.5H15V13.5H13.9705C13.8465 12.4007 13.3223 11.3854 12.4978 10.6477C11.6734 9.91003 10.6063 9.5015 9.5 9.5V9C9.5 8.86739 9.44732 8.74021 9.35355 8.64645C9.25979 8.55268 9.13261 8.5 9 8.5C8.86739 8.5 8.74021 8.55268 8.64645 8.64645C8.55268 8.74021 8.5 8.86739 8.5 9V9.5C7.39369 9.5015 6.32662 9.91003 5.50216 10.6477C4.6777 11.3854 4.15351 12.4007 4.0295 13.5H3V14.5H4.191L5 16.118V17.5H1.5C1.36739 17.5 1.24021 17.5527 1.14645 17.6464C1.05268 17.7402 1 17.8674 1 18V29C1 29.1326 1.05268 29.2598 1.14645 29.3536C1.24021 29.4473 1.36739 29.5 1.5 29.5C1.77895 29.4991 2.05516 29.555 2.31183 29.6643C2.56849 29.7735 2.80025 29.9339 2.993 30.1355C3.56367 30.69 4.32804 31.0002 5.12375 31.0002C5.91947 31.0002 6.68383 30.69 7.2545 30.1355C7.44777 29.9346 7.6796 29.7748 7.9361 29.6657C8.1926 29.5565 8.46849 29.5002 8.74725 29.5002C9.02601 29.5002 9.3019 29.5565 9.5584 29.6657C9.8149 29.7748 10.0467 29.9346 10.24 30.1355C10.8108 30.6901 11.5752 31.0003 12.371 31.0003C13.1668 31.0003 13.9312 30.6901 14.502 30.1355C14.6955 29.9346 14.9275 29.7748 15.1842 29.6657C15.4408 29.5566 15.7169 29.5003 15.9958 29.5003C16.2747 29.5003 16.5507 29.5566 16.8073 29.6657C17.064 29.7748 17.296 29.9346 17.4895 30.1355C18.0605 30.69 18.8251 31.0002 19.621 31.0002C20.4169 31.0002 21.1815 30.69 21.7525 30.1355C21.946 29.9346 22.178 29.7748 22.4347 29.6657C22.6913 29.5566 22.9674 29.5003 23.2463 29.5003C23.5252 29.5003 23.8012 29.5566 24.0578 29.6657C24.3145 29.7748 24.5465 29.9346 24.74 30.1355C25.3115 30.6899 26.0765 31 26.8727 31C27.669 31 28.434 30.6899 29.0055 30.1355C29.1985 29.9338 29.4305 29.7734 29.6874 29.6642C29.9444 29.5549 30.2208 29.4991 30.5 29.5C30.6326 29.5 30.7598 29.4473 30.8536 29.3536C30.9473 29.2598 31 29.1326 31 29V18C31 17.8674 30.9473 17.7402 30.8536 17.6464C30.7598 17.5527 30.6326 17.5 30.5 17.5ZM19.309 14.5H26.691L26.191 15.5H19.809L19.309 14.5ZM22.5 10.5H23.5C24.3414 10.501 25.1543 10.8047 25.7904 11.3555C26.4264 11.9062 26.8432 12.6674 26.9645 13.5H19.0355C19.1568 12.6674 19.5736 11.9062 20.2096 11.3555C20.8457 10.8047 21.6586 10.501 22.5 10.5ZM20 16.5H26V17.5H20V16.5ZM5.309 14.5H12.691L12.191 15.5H5.809L5.309 14.5ZM8.5 10.5H9.5C10.3414 10.501 11.1543 10.8047 11.7904 11.3555C12.4264 11.9062 12.8432 12.6674 12.9645 13.5H5.0355C5.15683 12.6674 5.57357 11.9062 6.20962 11.3555C6.84568 10.8047 7.65862 10.501 8.5 10.5ZM6 16.5H12V17.5H6V16.5ZM30 28.537C29.3864 28.6466 28.8186 28.9344 28.3675 29.3645C28.1171 29.6012 27.8222 29.7859 27.5 29.908V25.5H26.5V29.968C26.0755 29.8796 25.6857 29.67 25.378 29.3645C24.987 29.0001 24.5145 28.7344 24 28.5895V23.5H23V28.5135C22.2928 28.573 21.6273 28.873 21.1145 29.3635C20.9211 29.5644 20.6891 29.7243 20.4324 29.8335C20.1757 29.9426 19.8997 29.9989 19.6208 29.9989C19.3418 29.9989 19.0658 29.9426 18.8091 29.8335C18.5524 29.7243 18.3204 29.5644 18.127 29.3635C17.6749 28.9365 17.1081 28.6505 16.496 28.5405L16.5 26H15.5L15.496 28.542C14.8835 28.6513 14.3164 28.9374 13.8645 29.365C13.6147 29.6007 13.321 29.7849 13 29.907V22.5H12V29.9685C11.5755 29.8801 11.1857 29.6705 10.878 29.365C10.4873 28.9999 10.0148 28.7338 9.5 28.589V24H8.5V28.5135C7.79343 28.5731 7.12864 28.8731 6.6165 29.3635C6.42323 29.5644 6.1914 29.7242 5.9349 29.8333C5.6784 29.9425 5.40251 29.9988 5.12375 29.9988C4.84499 29.9988 4.5691 29.9425 4.3126 29.8333C4.0561 29.7242 3.82427 29.5644 3.631 29.3635C3.18026 28.9339 2.61302 28.6464 2 28.537V18.5H30V28.537Z" fill="#00525D"/>
<path d="M3 24H4V20.5H5.5V19.5H3V24Z" fill="#00525D"/>
<path d="M26 20.5H28V22.5H29V19.5H26V20.5Z" fill="#00525D"/>
<path d="M27.4999 1H4.49989C4.36729 1 4.24011 1.05268 4.14634 1.14645C4.05257 1.24021 3.99989 1.36739 3.99989 1.5V3.293L1.14639 6.1465C1.07649 6.21643 1.02889 6.30551 1.0096 6.40248C0.990318 6.49946 1.00022 6.59998 1.03805 6.69133C1.07589 6.78268 1.13996 6.86076 1.22216 6.9157C1.30437 6.97064 1.40102 6.99998 1.49989 7H30.4999C30.5988 6.99998 30.6954 6.97064 30.7776 6.9157C30.8598 6.86076 30.9239 6.78268 30.9617 6.69133C30.9996 6.59998 31.0095 6.49946 30.9902 6.40248C30.9709 6.30551 30.9233 6.21643 30.8534 6.1465L27.9999 3.293V1.5C27.9999 1.36739 27.9472 1.24021 27.8535 1.14645C27.7597 1.05268 27.6325 1 27.4999 1ZM4.99989 2H26.9999V3H4.99989V2ZM2.70689 6L4.70689 4H27.2929L29.2929 6H2.70689Z" fill="#00525D"/>
</svg>
