<svg width="30" height="30" viewBox="0 0 30 30" fill="none" xmlns="http://www.w3.org/2000/svg">
<path d="M28.9747 9.30912H24.2803L27.0834 6.18855C27.239 6.01506 27.318 5.79167 27.3056 5.55912C27.2931 5.32635 27.1908 5.11258 27.0175 4.95694L25.812 3.87432C25.4542 3.55297 24.9017 3.5825 24.5806 3.94024L19.7578 9.30912H11.3643C11.1216 9.30912 10.9248 9.50573 10.9248 9.74858C10.9248 9.99142 11.1216 10.188 11.3643 10.188H18.9684L17.0078 12.3706C16.8522 12.5439 16.7734 12.7675 16.7858 13.0001C16.7874 13.0275 16.7901 13.0545 16.794 13.0816L16.1202 14.9037C16.0202 15.1742 16.0941 15.4736 16.3088 15.6663C16.4404 15.7846 16.6066 15.846 16.7748 15.846C16.8805 15.846 16.9872 15.8217 17.087 15.7723L18.8281 14.9067C18.8391 14.9071 18.8498 14.9083 18.8611 14.9083C18.8768 14.9083 18.8926 14.9078 18.9087 14.9069C19.1412 14.8943 19.355 14.7922 19.5108 14.6187L23.4909 10.188H28.9747C29.0555 10.188 29.1211 10.2537 29.1211 10.3345V27.2658C29.1211 27.3466 29.0555 27.4123 28.9747 27.4123H25.7776C25.535 27.4123 25.3382 27.6089 25.3382 27.8518C25.3382 28.0944 25.535 28.2912 25.7776 28.2912H28.9747C29.54 28.2912 30 27.8312 30 27.2658V10.3345C30 9.76895 29.54 9.30912 28.9747 9.30912ZM26.4251 5.60627L25.9031 6.18718L24.7078 5.11372L25.2299 4.53259L26.4251 5.60627ZM24.1205 5.76764L24.3913 6.01071L17.9371 13.196L17.6663 12.9527L24.1205 5.76764ZM17.4228 13.9154L17.9304 14.3715L17.1019 14.7833L17.4228 13.9154ZM18.8615 14.0264L18.5907 13.7833L25.0452 6.59802L25.3158 6.84109L18.8615 14.0264Z" fill="#00525D"/>
<path d="M23.8639 27.4123H4.09836C2.32315 27.4123 0.878906 25.968 0.878906 24.1928V23.9605C0.878906 22.1853 2.32292 20.7413 4.09813 20.7413H5.0013C5.56686 20.7413 6.02669 20.2812 6.02669 19.7159V10.188H9.45053C9.69337 10.188 9.88998 9.99115 9.88998 9.74854C9.88998 9.50569 9.69337 9.30908 9.45053 9.30908H6.02669V7.78313C6.02669 7.54051 5.83008 7.34367 5.58723 7.34367C5.34462 7.34367 5.14778 7.54051 5.14778 7.78313V19.7159C5.14778 19.7967 5.08209 19.8624 5.0013 19.8624H4.09813C2.79396 19.8624 1.62987 20.4749 0.878906 21.4272V5.85617C0.878906 4.08096 2.32315 2.63672 4.09836 2.63672H5.0013C5.08209 2.63672 5.14778 2.70241 5.14778 2.7832V5.86945C5.14778 6.11229 5.34462 6.3089 5.58723 6.3089C5.83008 6.3089 6.02669 6.11229 6.02669 5.86945V2.7832C6.02669 2.21786 5.56686 1.75781 5.0013 1.75781H4.09836C1.83861 1.75781 0 3.59619 0 5.85617V24.1928C0 26.4526 1.83861 28.2912 4.09836 28.2912H23.8639C24.1068 28.2912 24.3034 28.0943 24.3034 27.8517C24.3034 27.6089 24.1068 27.4123 23.8639 27.4123Z" fill="#00525D"/>
<path d="M23.4487 13.9485C21.6535 13.9485 20.1816 15.3557 20.0763 17.1247H18.0532C17.8106 17.1247 17.6138 17.3215 17.6138 17.5641V22.584C17.6138 22.8268 17.8106 23.0234 18.0532 23.0234H23.0731C23.3159 23.0234 23.5125 22.8268 23.5125 22.584V20.7053C25.3465 20.671 26.8279 19.1695 26.8279 17.3277C26.8279 15.4644 25.312 13.9485 23.4487 13.9485ZM22.6338 19.6909C21.8641 19.4247 21.264 18.7928 21.0422 18.0036H22.6338V19.6909ZM18.4927 22.1445V18.0036H20.1376C20.3977 19.2789 21.3782 20.2947 22.6338 20.6069V22.1445H18.4927ZM23.5127 19.8264V17.5641C23.5127 17.3215 23.3159 17.1247 23.0733 17.1247H20.9575C21.0612 15.8407 22.1385 14.8274 23.4489 14.8274C24.8274 14.8274 25.9492 15.9489 25.9492 17.3277C25.949 18.685 24.8618 19.7923 23.5127 19.8264Z" fill="#00525D"/>
<path d="M25.0815 21.0105C24.8387 21.0105 24.6421 21.2071 24.6421 21.45C24.6421 21.6926 24.8387 21.8894 25.0815 21.8894H26.0591C26.3019 21.8894 26.4986 21.6926 26.4986 21.45C26.4986 21.2071 26.3019 21.0105 26.0591 21.0105H25.0815Z" fill="#00525D"/>
<path d="M26.4986 22.584C26.4986 22.3414 26.3019 22.1445 26.0591 22.1445H25.0815C24.8387 22.1445 24.6421 22.3414 24.6421 22.584C24.6421 22.8268 24.8387 23.0234 25.0815 23.0234H26.0591C26.3019 23.0234 26.4986 22.8268 26.4986 22.584Z" fill="#00525D"/>
<path d="M8.02734 13.7734H8.73047C8.97308 13.7734 9.16992 13.5768 9.16992 13.334C9.16992 13.0914 8.97308 12.8945 8.73047 12.8945H8.02734C7.78473 12.8945 7.58789 13.0914 7.58789 13.334C7.58789 13.5768 7.78473 13.7734 8.02734 13.7734Z" fill="#00525D"/>
<path d="M8.02734 15.0537H11.4196C11.6624 15.0537 11.8591 14.8569 11.8591 14.6143C11.8591 14.3714 11.6624 14.1748 11.4196 14.1748H8.02734C7.78473 14.1748 7.58789 14.3714 7.58789 14.6143C7.58789 14.8569 7.78473 15.0537 8.02734 15.0537Z" fill="#00525D"/>
<path d="M10.7163 13.7734H11.4194C11.6623 13.7734 11.8589 13.5768 11.8589 13.334C11.8589 13.0914 11.6623 12.8945 11.4194 12.8945H10.7163C10.4737 12.8945 10.2769 13.0914 10.2769 13.334C10.2769 13.5768 10.4737 13.7734 10.7163 13.7734Z" fill="#00525D"/>
<path d="M14.1084 12.8945H13.4053C13.1627 12.8945 12.9658 13.0914 12.9658 13.334C12.9658 13.5768 13.1627 13.7734 13.4053 13.7734H14.1084C14.3512 13.7734 14.5479 13.5768 14.5479 13.334C14.5479 13.0914 14.3512 12.8945 14.1084 12.8945Z" fill="#00525D"/>
<path d="M8.02734 16.3245H11.4196C11.6624 16.3245 11.8591 16.1276 11.8591 15.885C11.8591 15.6422 11.6624 15.4456 11.4196 15.4456H8.02734C7.78473 15.4456 7.58789 15.6422 7.58789 15.885C7.58789 16.1276 7.78473 16.3245 8.02734 16.3245Z" fill="#00525D"/>
<path d="M7.58789 17.1555C7.58789 17.3984 7.78473 17.595 8.02734 17.595H13.4056C13.6485 17.595 13.8451 17.3984 13.8451 17.1555C13.8451 16.9129 13.6485 16.7161 13.4056 16.7161H8.02734C7.78473 16.7161 7.58789 16.9129 7.58789 17.1555Z" fill="#00525D"/>
<path d="M14.5482 18.4263C14.5482 18.1837 14.3516 17.9868 14.1087 17.9868H8.02734C7.78473 17.9868 7.58789 18.1837 7.58789 18.4263C7.58789 18.6691 7.78473 18.8657 8.02734 18.8657H14.1087C14.3516 18.8657 14.5482 18.6691 14.5482 18.4263Z" fill="#00525D"/>
<path d="M9.67781 20.4736C9.67781 20.2308 9.48097 20.0342 9.23836 20.0342H8.02734C7.78473 20.0342 7.58789 20.2308 7.58789 20.4736V21.6844C7.58789 21.9273 7.78473 22.1239 8.02734 22.1239H9.23836C9.48097 22.1239 9.67781 21.9273 9.67781 21.6844V20.4736ZM8.7989 21.2452H8.4668V20.9131H8.7989V21.2452Z" fill="#00525D"/>
<path d="M12.5836 20.4736C12.5836 20.2308 12.3867 20.0342 12.1441 20.0342H10.9331C10.6905 20.0342 10.4937 20.2308 10.4937 20.4736V21.6844C10.4937 21.9273 10.6905 22.1239 10.9331 22.1239H12.1441C12.3867 22.1239 12.5836 21.9273 12.5836 21.6844V20.4736ZM11.7047 21.2452H11.3726V20.9131H11.7047V21.2452Z" fill="#00525D"/>
<path d="M15.4888 20.4736C15.4888 20.2308 15.292 20.0342 15.0494 20.0342H13.8384C13.5955 20.0342 13.3989 20.2308 13.3989 20.4736V21.6844C13.3989 21.9273 13.5955 22.1239 13.8384 22.1239H15.0494C15.292 22.1239 15.4888 21.9273 15.4888 21.6844V20.4736ZM14.6099 21.2452H14.2778V20.9131H14.6099V21.2452Z" fill="#00525D"/>
<path d="M9.23836 23.1204H8.02734C7.78473 23.1204 7.58789 23.317 7.58789 23.5598V24.7706C7.58789 25.0134 7.78473 25.2101 8.02734 25.2101H9.23836C9.48097 25.2101 9.67781 25.0134 9.67781 24.7706V23.5598C9.67781 23.317 9.48097 23.1204 9.23836 23.1204ZM8.7989 24.3311H8.4668V23.999H8.7989V24.3311Z" fill="#00525D"/>
<path d="M12.1441 23.1201H10.9331C10.6905 23.1201 10.4937 23.3167 10.4937 23.5596V24.7704C10.4937 25.0132 10.6905 25.2098 10.9331 25.2098H12.1441C12.3867 25.2098 12.5836 25.0132 12.5836 24.7704V23.5596C12.5836 23.3167 12.3867 23.1201 12.1441 23.1201ZM11.7047 24.3309H11.3726V23.9988H11.7047V24.3309Z" fill="#00525D"/>
<path d="M13.8384 25.21H15.0494C15.292 25.21 15.4888 25.0134 15.4888 24.7706V23.5596C15.4888 23.317 15.292 23.1201 15.0494 23.1201H13.8384C13.5955 23.1201 13.3989 23.317 13.3989 23.5596V24.7706C13.3989 25.0134 13.5955 25.21 13.8384 25.21ZM14.2778 23.9993H14.6099V24.3311H14.2778V23.9993Z" fill="#00525D"/>
</svg>
