<svg width="161" height="103" viewBox="0 0 161 103" fill="none" xmlns="http://www.w3.org/2000/svg">
<rect width="161" height="103" fill="#004A54"/>
<path d="M50.6 37.02C50.6 37.3667 50.48 37.66 50.24 37.9C50.0133 38.1267 49.7267 38.24 49.38 38.24C49.0333 38.24 48.74 38.1267 48.5 37.9C48.2733 37.66 48.16 37.3667 48.16 37.02C48.16 36.6733 48.2733 36.3867 48.5 36.16C48.74 35.9333 49.0333 35.82 49.38 35.82C49.7267 35.82 50.0133 35.9333 50.24 36.16C50.48 36.3867 50.6 36.6733 50.6 37.02ZM58.4656 37.02C58.4656 37.3667 58.3456 37.66 58.1056 37.9C57.879 38.1267 57.5923 38.24 57.2456 38.24C56.899 38.24 56.6056 38.1267 56.3656 37.9C56.139 37.66 56.0256 37.3667 56.0256 37.02C56.0256 36.6733 56.139 36.3867 56.3656 36.16C56.6056 35.9333 56.899 35.82 57.2456 35.82C57.5923 35.82 57.879 35.9333 58.1056 36.16C58.3456 36.3867 58.4656 36.6733 58.4656 37.02ZM66.3312 37.02C66.3312 37.3667 66.2112 37.66 65.9712 37.9C65.7446 38.1267 65.4579 38.24 65.1112 38.24C64.7646 38.24 64.4712 38.1267 64.2312 37.9C64.0046 37.66 63.8912 37.3667 63.8912 37.02C63.8912 36.6733 64.0046 36.3867 64.2312 36.16C64.4712 35.9333 64.7646 35.82 65.1112 35.82C65.4579 35.82 65.7446 35.9333 65.9712 36.16C66.2112 36.3867 66.3312 36.6733 66.3312 37.02ZM74.1969 37.02C74.1969 37.3667 74.0769 37.66 73.8369 37.9C73.6102 38.1267 73.3235 38.24 72.9769 38.24C72.6302 38.24 72.3369 38.1267 72.0969 37.9C71.8702 37.66 71.7569 37.3667 71.7569 37.02C71.7569 36.6733 71.8702 36.3867 72.0969 36.16C72.3369 35.9333 72.6302 35.82 72.9769 35.82C73.3235 35.82 73.6102 35.9333 73.8369 36.16C74.0769 36.3867 74.1969 36.6733 74.1969 37.02ZM82.0625 37.02C82.0625 37.3667 81.9425 37.66 81.7025 37.9C81.4758 38.1267 81.1892 38.24 80.8425 38.24C80.4958 38.24 80.2025 38.1267 79.9625 37.9C79.7358 37.66 79.6225 37.3667 79.6225 37.02C79.6225 36.6733 79.7358 36.3867 79.9625 36.16C80.2025 35.9333 80.4958 35.82 80.8425 35.82C81.1892 35.82 81.4758 35.9333 81.7025 36.16C81.9425 36.3867 82.0625 36.6733 82.0625 37.02ZM89.9281 37.02C89.9281 37.3667 89.8081 37.66 89.5681 37.9C89.3415 38.1267 89.0548 38.24 88.7081 38.24C88.3615 38.24 88.0681 38.1267 87.8281 37.9C87.6015 37.66 87.4881 37.3667 87.4881 37.02C87.4881 36.6733 87.6015 36.3867 87.8281 36.16C88.0681 35.9333 88.3615 35.82 88.7081 35.82C89.0548 35.82 89.3415 35.9333 89.5681 36.16C89.8081 36.3867 89.9281 36.6733 89.9281 37.02ZM97.7937 37.02C97.7937 37.3667 97.6737 37.66 97.4337 37.9C97.2071 38.1267 96.9204 38.24 96.5737 38.24C96.2271 38.24 95.9337 38.1267 95.6937 37.9C95.4671 37.66 95.3537 37.3667 95.3537 37.02C95.3537 36.6733 95.4671 36.3867 95.6937 36.16C95.9337 35.9333 96.2271 35.82 96.5737 35.82C96.9204 35.82 97.2071 35.9333 97.4337 36.16C97.6737 36.3867 97.7937 36.6733 97.7937 37.02ZM105.659 37.02C105.659 37.3667 105.539 37.66 105.299 37.9C105.073 38.1267 104.786 38.24 104.439 38.24C104.093 38.24 103.799 38.1267 103.559 37.9C103.333 37.66 103.219 37.3667 103.219 37.02C103.219 36.6733 103.333 36.3867 103.559 36.16C103.799 35.9333 104.093 35.82 104.439 35.82C104.786 35.82 105.073 35.9333 105.299 36.16C105.539 36.3867 105.659 36.6733 105.659 37.02ZM113.525 37.02C113.525 37.3667 113.405 37.66 113.165 37.9C112.938 38.1267 112.652 38.24 112.305 38.24C111.958 38.24 111.665 38.1267 111.425 37.9C111.198 37.66 111.085 37.3667 111.085 37.02C111.085 36.6733 111.198 36.3867 111.425 36.16C111.665 35.9333 111.958 35.82 112.305 35.82C112.652 35.82 112.938 35.9333 113.165 36.16C113.405 36.3867 113.525 36.6733 113.525 37.02ZM50.6 46.02C50.6 46.3667 50.48 46.66 50.24 46.9C50.0133 47.1267 49.7267 47.24 49.38 47.24C49.0333 47.24 48.74 47.1267 48.5 46.9C48.2733 46.66 48.16 46.3667 48.16 46.02C48.16 45.6733 48.2733 45.3867 48.5 45.16C48.74 44.9333 49.0333 44.82 49.38 44.82C49.7267 44.82 50.0133 44.9333 50.24 45.16C50.48 45.3867 50.6 45.6733 50.6 46.02ZM58.4656 46.02C58.4656 46.3667 58.3456 46.66 58.1056 46.9C57.879 47.1267 57.5923 47.24 57.2456 47.24C56.899 47.24 56.6056 47.1267 56.3656 46.9C56.139 46.66 56.0256 46.3667 56.0256 46.02C56.0256 45.6733 56.139 45.3867 56.3656 45.16C56.6056 44.9333 56.899 44.82 57.2456 44.82C57.5923 44.82 57.879 44.9333 58.1056 45.16C58.3456 45.3867 58.4656 45.6733 58.4656 46.02ZM66.3312 46.02C66.3312 46.3667 66.2112 46.66 65.9712 46.9C65.7446 47.1267 65.4579 47.24 65.1112 47.24C64.7646 47.24 64.4712 47.1267 64.2312 46.9C64.0046 46.66 63.8912 46.3667 63.8912 46.02C63.8912 45.6733 64.0046 45.3867 64.2312 45.16C64.4712 44.9333 64.7646 44.82 65.1112 44.82C65.4579 44.82 65.7446 44.9333 65.9712 45.16C66.2112 45.3867 66.3312 45.6733 66.3312 46.02ZM74.1969 46.02C74.1969 46.3667 74.0769 46.66 73.8369 46.9C73.6102 47.1267 73.3235 47.24 72.9769 47.24C72.6302 47.24 72.3369 47.1267 72.0969 46.9C71.8702 46.66 71.7569 46.3667 71.7569 46.02C71.7569 45.6733 71.8702 45.3867 72.0969 45.16C72.3369 44.9333 72.6302 44.82 72.9769 44.82C73.3235 44.82 73.6102 44.9333 73.8369 45.16C74.0769 45.3867 74.1969 45.6733 74.1969 46.02ZM82.0625 46.02C82.0625 46.3667 81.9425 46.66 81.7025 46.9C81.4758 47.1267 81.1892 47.24 80.8425 47.24C80.4958 47.24 80.2025 47.1267 79.9625 46.9C79.7358 46.66 79.6225 46.3667 79.6225 46.02C79.6225 45.6733 79.7358 45.3867 79.9625 45.16C80.2025 44.9333 80.4958 44.82 80.8425 44.82C81.1892 44.82 81.4758 44.9333 81.7025 45.16C81.9425 45.3867 82.0625 45.6733 82.0625 46.02ZM89.9281 46.02C89.9281 46.3667 89.8081 46.66 89.5681 46.9C89.3415 47.1267 89.0548 47.24 88.7081 47.24C88.3615 47.24 88.0681 47.1267 87.8281 46.9C87.6015 46.66 87.4881 46.3667 87.4881 46.02C87.4881 45.6733 87.6015 45.3867 87.8281 45.16C88.0681 44.9333 88.3615 44.82 88.7081 44.82C89.0548 44.82 89.3415 44.9333 89.5681 45.16C89.8081 45.3867 89.9281 45.6733 89.9281 46.02ZM97.7937 46.02C97.7937 46.3667 97.6737 46.66 97.4337 46.9C97.2071 47.1267 96.9204 47.24 96.5737 47.24C96.2271 47.24 95.9337 47.1267 95.6937 46.9C95.4671 46.66 95.3537 46.3667 95.3537 46.02C95.3537 45.6733 95.4671 45.3867 95.6937 45.16C95.9337 44.9333 96.2271 44.82 96.5737 44.82C96.9204 44.82 97.2071 44.9333 97.4337 45.16C97.6737 45.3867 97.7937 45.6733 97.7937 46.02ZM105.659 46.02C105.659 46.3667 105.539 46.66 105.299 46.9C105.073 47.1267 104.786 47.24 104.439 47.24C104.093 47.24 103.799 47.1267 103.559 46.9C103.333 46.66 103.219 46.3667 103.219 46.02C103.219 45.6733 103.333 45.3867 103.559 45.16C103.799 44.9333 104.093 44.82 104.439 44.82C104.786 44.82 105.073 44.9333 105.299 45.16C105.539 45.3867 105.659 45.6733 105.659 46.02ZM113.525 46.02C113.525 46.3667 113.405 46.66 113.165 46.9C112.938 47.1267 112.652 47.24 112.305 47.24C111.958 47.24 111.665 47.1267 111.425 46.9C111.198 46.66 111.085 46.3667 111.085 46.02C111.085 45.6733 111.198 45.3867 111.425 45.16C111.665 44.9333 111.958 44.82 112.305 44.82C112.652 44.82 112.938 44.9333 113.165 45.16C113.405 45.3867 113.525 45.6733 113.525 46.02ZM50.6 55.02C50.6 55.3667 50.48 55.66 50.24 55.9C50.0133 56.1267 49.7267 56.24 49.38 56.24C49.0333 56.24 48.74 56.1267 48.5 55.9C48.2733 55.66 48.16 55.3667 48.16 55.02C48.16 54.6733 48.2733 54.3867 48.5 54.16C48.74 53.9333 49.0333 53.82 49.38 53.82C49.7267 53.82 50.0133 53.9333 50.24 54.16C50.48 54.3867 50.6 54.6733 50.6 55.02ZM58.4656 55.02C58.4656 55.3667 58.3456 55.66 58.1056 55.9C57.879 56.1267 57.5923 56.24 57.2456 56.24C56.899 56.24 56.6056 56.1267 56.3656 55.9C56.139 55.66 56.0256 55.3667 56.0256 55.02C56.0256 54.6733 56.139 54.3867 56.3656 54.16C56.6056 53.9333 56.899 53.82 57.2456 53.82C57.5923 53.82 57.879 53.9333 58.1056 54.16C58.3456 54.3867 58.4656 54.6733 58.4656 55.02ZM66.3312 55.02C66.3312 55.3667 66.2112 55.66 65.9712 55.9C65.7446 56.1267 65.4579 56.24 65.1112 56.24C64.7646 56.24 64.4712 56.1267 64.2312 55.9C64.0046 55.66 63.8912 55.3667 63.8912 55.02C63.8912 54.6733 64.0046 54.3867 64.2312 54.16C64.4712 53.9333 64.7646 53.82 65.1112 53.82C65.4579 53.82 65.7446 53.9333 65.9712 54.16C66.2112 54.3867 66.3312 54.6733 66.3312 55.02ZM74.1969 55.02C74.1969 55.3667 74.0769 55.66 73.8369 55.9C73.6102 56.1267 73.3235 56.24 72.9769 56.24C72.6302 56.24 72.3369 56.1267 72.0969 55.9C71.8702 55.66 71.7569 55.3667 71.7569 55.02C71.7569 54.6733 71.8702 54.3867 72.0969 54.16C72.3369 53.9333 72.6302 53.82 72.9769 53.82C73.3235 53.82 73.6102 53.9333 73.8369 54.16C74.0769 54.3867 74.1969 54.6733 74.1969 55.02ZM82.0625 55.02C82.0625 55.3667 81.9425 55.66 81.7025 55.9C81.4758 56.1267 81.1892 56.24 80.8425 56.24C80.4958 56.24 80.2025 56.1267 79.9625 55.9C79.7358 55.66 79.6225 55.3667 79.6225 55.02C79.6225 54.6733 79.7358 54.3867 79.9625 54.16C80.2025 53.9333 80.4958 53.82 80.8425 53.82C81.1892 53.82 81.4758 53.9333 81.7025 54.16C81.9425 54.3867 82.0625 54.6733 82.0625 55.02ZM89.9281 55.02C89.9281 55.3667 89.8081 55.66 89.5681 55.9C89.3415 56.1267 89.0548 56.24 88.7081 56.24C88.3615 56.24 88.0681 56.1267 87.8281 55.9C87.6015 55.66 87.4881 55.3667 87.4881 55.02C87.4881 54.6733 87.6015 54.3867 87.8281 54.16C88.0681 53.9333 88.3615 53.82 88.7081 53.82C89.0548 53.82 89.3415 53.9333 89.5681 54.16C89.8081 54.3867 89.9281 54.6733 89.9281 55.02ZM97.7937 55.02C97.7937 55.3667 97.6737 55.66 97.4337 55.9C97.2071 56.1267 96.9204 56.24 96.5737 56.24C96.2271 56.24 95.9337 56.1267 95.6937 55.9C95.4671 55.66 95.3537 55.3667 95.3537 55.02C95.3537 54.6733 95.4671 54.3867 95.6937 54.16C95.9337 53.9333 96.2271 53.82 96.5737 53.82C96.9204 53.82 97.2071 53.9333 97.4337 54.16C97.6737 54.3867 97.7937 54.6733 97.7937 55.02ZM105.659 55.02C105.659 55.3667 105.539 55.66 105.299 55.9C105.073 56.1267 104.786 56.24 104.439 56.24C104.093 56.24 103.799 56.1267 103.559 55.9C103.333 55.66 103.219 55.3667 103.219 55.02C103.219 54.6733 103.333 54.3867 103.559 54.16C103.799 53.9333 104.093 53.82 104.439 53.82C104.786 53.82 105.073 53.9333 105.299 54.16C105.539 54.3867 105.659 54.6733 105.659 55.02ZM113.525 55.02C113.525 55.3667 113.405 55.66 113.165 55.9C112.938 56.1267 112.652 56.24 112.305 56.24C111.958 56.24 111.665 56.1267 111.425 55.9C111.198 55.66 111.085 55.3667 111.085 55.02C111.085 54.6733 111.198 54.3867 111.425 54.16C111.665 53.9333 111.958 53.82 112.305 53.82C112.652 53.82 112.938 53.9333 113.165 54.16C113.405 54.3867 113.525 54.6733 113.525 55.02ZM50.6 64.02C50.6 64.3667 50.48 64.66 50.24 64.9C50.0133 65.1267 49.7267 65.24 49.38 65.24C49.0333 65.24 48.74 65.1267 48.5 64.9C48.2733 64.66 48.16 64.3667 48.16 64.02C48.16 63.6733 48.2733 63.3867 48.5 63.16C48.74 62.9333 49.0333 62.82 49.38 62.82C49.7267 62.82 50.0133 62.9333 50.24 63.16C50.48 63.3867 50.6 63.6733 50.6 64.02ZM58.4656 64.02C58.4656 64.3667 58.3456 64.66 58.1056 64.9C57.879 65.1267 57.5923 65.24 57.2456 65.24C56.899 65.24 56.6056 65.1267 56.3656 64.9C56.139 64.66 56.0256 64.3667 56.0256 64.02C56.0256 63.6733 56.139 63.3867 56.3656 63.16C56.6056 62.9333 56.899 62.82 57.2456 62.82C57.5923 62.82 57.879 62.9333 58.1056 63.16C58.3456 63.3867 58.4656 63.6733 58.4656 64.02ZM66.3312 64.02C66.3312 64.3667 66.2112 64.66 65.9712 64.9C65.7446 65.1267 65.4579 65.24 65.1112 65.24C64.7646 65.24 64.4712 65.1267 64.2312 64.9C64.0046 64.66 63.8912 64.3667 63.8912 64.02C63.8912 63.6733 64.0046 63.3867 64.2312 63.16C64.4712 62.9333 64.7646 62.82 65.1112 62.82C65.4579 62.82 65.7446 62.9333 65.9712 63.16C66.2112 63.3867 66.3312 63.6733 66.3312 64.02ZM74.1969 64.02C74.1969 64.3667 74.0769 64.66 73.8369 64.9C73.6102 65.1267 73.3235 65.24 72.9769 65.24C72.6302 65.24 72.3369 65.1267 72.0969 64.9C71.8702 64.66 71.7569 64.3667 71.7569 64.02C71.7569 63.6733 71.8702 63.3867 72.0969 63.16C72.3369 62.9333 72.6302 62.82 72.9769 62.82C73.3235 62.82 73.6102 62.9333 73.8369 63.16C74.0769 63.3867 74.1969 63.6733 74.1969 64.02ZM82.0625 64.02C82.0625 64.3667 81.9425 64.66 81.7025 64.9C81.4758 65.1267 81.1892 65.24 80.8425 65.24C80.4958 65.24 80.2025 65.1267 79.9625 64.9C79.7358 64.66 79.6225 64.3667 79.6225 64.02C79.6225 63.6733 79.7358 63.3867 79.9625 63.16C80.2025 62.9333 80.4958 62.82 80.8425 62.82C81.1892 62.82 81.4758 62.9333 81.7025 63.16C81.9425 63.3867 82.0625 63.6733 82.0625 64.02ZM89.9281 64.02C89.9281 64.3667 89.8081 64.66 89.5681 64.9C89.3415 65.1267 89.0548 65.24 88.7081 65.24C88.3615 65.24 88.0681 65.1267 87.8281 64.9C87.6015 64.66 87.4881 64.3667 87.4881 64.02C87.4881 63.6733 87.6015 63.3867 87.8281 63.16C88.0681 62.9333 88.3615 62.82 88.7081 62.82C89.0548 62.82 89.3415 62.9333 89.5681 63.16C89.8081 63.3867 89.9281 63.6733 89.9281 64.02ZM97.7937 64.02C97.7937 64.3667 97.6737 64.66 97.4337 64.9C97.2071 65.1267 96.9204 65.24 96.5737 65.24C96.2271 65.24 95.9337 65.1267 95.6937 64.9C95.4671 64.66 95.3537 64.3667 95.3537 64.02C95.3537 63.6733 95.4671 63.3867 95.6937 63.16C95.9337 62.9333 96.2271 62.82 96.5737 62.82C96.9204 62.82 97.2071 62.9333 97.4337 63.16C97.6737 63.3867 97.7937 63.6733 97.7937 64.02ZM105.659 64.02C105.659 64.3667 105.539 64.66 105.299 64.9C105.073 65.1267 104.786 65.24 104.439 65.24C104.093 65.24 103.799 65.1267 103.559 64.9C103.333 64.66 103.219 64.3667 103.219 64.02C103.219 63.6733 103.333 63.3867 103.559 63.16C103.799 62.9333 104.093 62.82 104.439 62.82C104.786 62.82 105.073 62.9333 105.299 63.16C105.539 63.3867 105.659 63.6733 105.659 64.02ZM113.525 64.02C113.525 64.3667 113.405 64.66 113.165 64.9C112.938 65.1267 112.652 65.24 112.305 65.24C111.958 65.24 111.665 65.1267 111.425 64.9C111.198 64.66 111.085 64.3667 111.085 64.02C111.085 63.6733 111.198 63.3867 111.425 63.16C111.665 62.9333 111.958 62.82 112.305 62.82C112.652 62.82 112.938 62.9333 113.165 63.16C113.405 63.3867 113.525 63.6733 113.525 64.02ZM50.6 73.02C50.6 73.3667 50.48 73.66 50.24 73.9C50.0133 74.1267 49.7267 74.24 49.38 74.24C49.0333 74.24 48.74 74.1267 48.5 73.9C48.2733 73.66 48.16 73.3667 48.16 73.02C48.16 72.6733 48.2733 72.3867 48.5 72.16C48.74 71.9333 49.0333 71.82 49.38 71.82C49.7267 71.82 50.0133 71.9333 50.24 72.16C50.48 72.3867 50.6 72.6733 50.6 73.02ZM58.4656 73.02C58.4656 73.3667 58.3456 73.66 58.1056 73.9C57.879 74.1267 57.5923 74.24 57.2456 74.24C56.899 74.24 56.6056 74.1267 56.3656 73.9C56.139 73.66 56.0256 73.3667 56.0256 73.02C56.0256 72.6733 56.139 72.3867 56.3656 72.16C56.6056 71.9333 56.899 71.82 57.2456 71.82C57.5923 71.82 57.879 71.9333 58.1056 72.16C58.3456 72.3867 58.4656 72.6733 58.4656 73.02ZM66.3312 73.02C66.3312 73.3667 66.2112 73.66 65.9712 73.9C65.7446 74.1267 65.4579 74.24 65.1112 74.24C64.7646 74.24 64.4712 74.1267 64.2312 73.9C64.0046 73.66 63.8912 73.3667 63.8912 73.02C63.8912 72.6733 64.0046 72.3867 64.2312 72.16C64.4712 71.9333 64.7646 71.82 65.1112 71.82C65.4579 71.82 65.7446 71.9333 65.9712 72.16C66.2112 72.3867 66.3312 72.6733 66.3312 73.02ZM74.1969 73.02C74.1969 73.3667 74.0769 73.66 73.8369 73.9C73.6102 74.1267 73.3235 74.24 72.9769 74.24C72.6302 74.24 72.3369 74.1267 72.0969 73.9C71.8702 73.66 71.7569 73.3667 71.7569 73.02C71.7569 72.6733 71.8702 72.3867 72.0969 72.16C72.3369 71.9333 72.6302 71.82 72.9769 71.82C73.3235 71.82 73.6102 71.9333 73.8369 72.16C74.0769 72.3867 74.1969 72.6733 74.1969 73.02ZM82.0625 73.02C82.0625 73.3667 81.9425 73.66 81.7025 73.9C81.4758 74.1267 81.1892 74.24 80.8425 74.24C80.4958 74.24 80.2025 74.1267 79.9625 73.9C79.7358 73.66 79.6225 73.3667 79.6225 73.02C79.6225 72.6733 79.7358 72.3867 79.9625 72.16C80.2025 71.9333 80.4958 71.82 80.8425 71.82C81.1892 71.82 81.4758 71.9333 81.7025 72.16C81.9425 72.3867 82.0625 72.6733 82.0625 73.02ZM89.9281 73.02C89.9281 73.3667 89.8081 73.66 89.5681 73.9C89.3415 74.1267 89.0548 74.24 88.7081 74.24C88.3615 74.24 88.0681 74.1267 87.8281 73.9C87.6015 73.66 87.4881 73.3667 87.4881 73.02C87.4881 72.6733 87.6015 72.3867 87.8281 72.16C88.0681 71.9333 88.3615 71.82 88.7081 71.82C89.0548 71.82 89.3415 71.9333 89.5681 72.16C89.8081 72.3867 89.9281 72.6733 89.9281 73.02ZM97.7937 73.02C97.7937 73.3667 97.6737 73.66 97.4337 73.9C97.2071 74.1267 96.9204 74.24 96.5737 74.24C96.2271 74.24 95.9337 74.1267 95.6937 73.9C95.4671 73.66 95.3537 73.3667 95.3537 73.02C95.3537 72.6733 95.4671 72.3867 95.6937 72.16C95.9337 71.9333 96.2271 71.82 96.5737 71.82C96.9204 71.82 97.2071 71.9333 97.4337 72.16C97.6737 72.3867 97.7937 72.6733 97.7937 73.02ZM105.659 73.02C105.659 73.3667 105.539 73.66 105.299 73.9C105.073 74.1267 104.786 74.24 104.439 74.24C104.093 74.24 103.799 74.1267 103.559 73.9C103.333 73.66 103.219 73.3667 103.219 73.02C103.219 72.6733 103.333 72.3867 103.559 72.16C103.799 71.9333 104.093 71.82 104.439 71.82C104.786 71.82 105.073 71.9333 105.299 72.16C105.539 72.3867 105.659 72.6733 105.659 73.02ZM113.525 73.02C113.525 73.3667 113.405 73.66 113.165 73.9C112.938 74.1267 112.652 74.24 112.305 74.24C111.958 74.24 111.665 74.1267 111.425 73.9C111.198 73.66 111.085 73.3667 111.085 73.02C111.085 72.6733 111.198 72.3867 111.425 72.16C111.665 71.9333 111.958 71.82 112.305 71.82C112.652 71.82 112.938 71.9333 113.165 72.16C113.405 72.3867 113.525 72.6733 113.525 73.02Z" fill="#005F6C"/>
</svg>
